<svg xmlns="http://www.w3.org/2000/svg" xmlns:xlink="http://www.w3.org/1999/xlink" width="500" zoomAndPan="magnify" viewBox="0 0 375 374.999991" height="500" preserveAspectRatio="xMidYMid meet" version="1.0"><defs><g/><clipPath id="4c7fbe0ce1"><path d="M 19 23.261719 L 345.898438 23.261719 L 345.898438 351.761719 L 19 351.761719 Z M 19 23.261719 " clip-rule="nonzero"/></clipPath><clipPath id="fe710d76a4"><path d="M 146 140.753906 L 248.449219 140.753906 L 248.449219 216.726562 L 146 216.726562 Z M 146 140.753906 " clip-rule="nonzero"/></clipPath><clipPath id="14854ebe37"><path d="M 126.3125 139 L 233 139 L 233 216.726562 L 126.3125 216.726562 Z M 126.3125 139 " clip-rule="nonzero"/></clipPath></defs><g clip-path="url(#4c7fbe0ce1)"><path fill="#bf953f" d="M 288.011719 65.832031 C 305.148438 80.914062 319.257812 99.503906 328.886719 120.214844 C 329.3125 120.820312 329.917969 122.035156 330.644531 123.546875 C 331.007812 124.273438 331.371094 125.121094 331.792969 126.03125 C 332.21875 126.9375 332.582031 127.90625 332.945312 128.875 C 333.308594 129.84375 333.734375 130.8125 334.097656 131.84375 C 334.460938 132.8125 334.882812 133.78125 335.1875 134.75 C 335.851562 136.628906 336.519531 138.382812 337.003906 139.714844 C 336.277344 137.414062 335.609375 135.175781 334.824219 132.996094 C 334.035156 130.8125 333.1875 128.695312 332.398438 126.636719 C 331.550781 124.578125 330.644531 122.519531 329.796875 120.519531 L 329.128906 119.003906 L 328.402344 117.550781 C 327.917969 116.582031 327.433594 115.613281 326.949219 114.644531 C 324.105469 109.011719 320.894531 103.5625 317.261719 98.050781 C 322.890625 106.347656 327.738281 115.191406 331.734375 124.394531 C 330.945312 122.578125 330.097656 120.820312 329.3125 119.003906 C 328.402344 117.25 327.496094 115.433594 326.585938 113.675781 C 325.738281 111.859375 324.648438 110.101562 323.679688 108.347656 C 322.648438 106.589844 321.679688 104.773438 320.53125 103.078125 C 316.230469 96.054688 311.203125 89.332031 305.753906 82.910156 C 294.792969 70.011719 281.410156 58.808594 266.691406 49.90625 C 261.304688 46.757812 256.335938 43.546875 250.402344 40.640625 C 248.949219 39.914062 247.433594 39.125 245.859375 38.460938 C 244.285156 37.792969 242.589844 37.128906 240.832031 36.402344 C 239.078125 35.675781 237.261719 35.128906 235.324219 34.523438 C 233.386719 33.917969 231.324219 33.3125 229.144531 32.828125 C 239.863281 36.160156 250.28125 40.640625 260.152344 46.152344 C 270.144531 51.664062 279.472656 58.265625 288.011719 65.832031 Z M 316.535156 96.78125 C 316.171875 96.234375 315.746094 95.628906 315.324219 95.085938 C 315.746094 95.628906 316.109375 96.175781 316.535156 96.78125 Z M 344.027344 179.566406 C 343.96875 178.476562 343.847656 177.324219 343.785156 176.234375 C 343.90625 177.386719 343.96875 178.597656 344.089844 179.746094 C 344.148438 180.351562 344.210938 180.898438 344.210938 181.503906 C 344.210938 182.046875 344.269531 182.652344 344.269531 183.199219 C 344.332031 185.4375 344.390625 187.679688 344.390625 189.738281 C 344.332031 187.4375 344.269531 185.195312 344.210938 182.957031 C 344.210938 182.410156 344.210938 181.804688 344.148438 181.261719 C 344.089844 180.65625 344.027344 180.109375 344.027344 179.566406 Z M 202.136719 30.40625 C 181.546875 27.863281 160.167969 29.253906 139.515625 35.070312 C 150.722656 31.859375 162.652344 29.738281 174.703125 29.011719 C 186.753906 28.285156 198.867188 29.132812 210.3125 31.375 C 207.585938 30.953125 204.859375 30.707031 202.136719 30.40625 Z M 260.636719 50.632812 C 251.613281 45.425781 241.925781 41.003906 231.75 37.671875 C 241.804688 40.945312 251.554688 45.242188 260.578125 50.511719 C 269.660156 55.78125 278.015625 61.898438 285.34375 68.558594 C 277.957031 61.957031 269.660156 55.902344 260.636719 50.632812 Z M 39.53125 146.4375 C 33.960938 165.210938 31.902344 185.4375 33.902344 206.03125 C 33.78125 205.363281 33.78125 204.636719 33.71875 203.96875 C 33.660156 203.304688 33.597656 202.578125 33.539062 201.910156 C 33.417969 200.519531 33.296875 199.125 33.234375 197.671875 C 33.175781 196.28125 33.175781 194.824219 33.113281 193.371094 C 33.113281 192.644531 33.054688 191.917969 33.054688 191.191406 C 33.054688 190.464844 32.992188 189.738281 33.054688 189.011719 C 33.113281 186.105469 32.8125 183.5 32.75 182.109375 C 33.417969 174.539062 34.507812 167.089844 36.382812 158.367188 C 36.625 157.035156 37.230469 154.128906 37.714844 151.464844 C 38.320312 149.890625 38.925781 148.195312 39.53125 146.4375 Z M 160.167969 27.558594 C 159.625 27.621094 159.078125 27.742188 158.53125 27.800781 C 159.867188 27.621094 161.136719 27.378906 162.46875 27.257812 C 161.683594 27.378906 160.894531 27.5 160.167969 27.558594 Z M 84.46875 58.6875 C 84.527344 58.628906 84.648438 58.566406 84.710938 58.507812 C 84.648438 58.566406 84.527344 58.628906 84.46875 58.6875 Z M 82.105469 60.503906 C 81.136719 61.292969 80.167969 62.078125 79.140625 62.925781 C 80.109375 62.140625 81.078125 61.292969 82.105469 60.503906 Z M 345.058594 196.703125 C 344.996094 197.976562 344.816406 199.246094 344.695312 200.578125 C 344.574219 201.910156 344.390625 203.304688 344.210938 204.699219 C 344.148438 205.363281 344.089844 206.089844 343.96875 206.816406 C 343.847656 207.542969 343.726562 208.210938 343.605469 208.9375 C 343.363281 210.390625 343.121094 211.84375 342.9375 213.296875 L 342.757812 214.386719 C 342.695312 214.75 342.636719 215.113281 342.515625 215.476562 C 342.332031 216.203125 342.210938 216.929688 342.027344 217.65625 C 341.726562 219.109375 341.421875 220.625 341.121094 222.078125 C 340.757812 223.53125 340.394531 224.984375 340.03125 226.5 C 339.667969 227.953125 339.304688 229.40625 338.878906 230.859375 C 338.457031 232.253906 337.972656 233.644531 337.546875 235.039062 C 337.125 236.429688 336.699219 237.761719 336.214844 239.09375 C 335.730469 240.425781 335.246094 241.699219 334.761719 242.910156 C 334.277344 244.121094 333.855469 245.394531 333.308594 246.484375 C 332.277344 248.785156 331.371094 250.90625 330.402344 252.78125 C 331.007812 250.964844 331.613281 249.085938 332.21875 247.210938 C 331.792969 247.996094 331.128906 249.328125 330.402344 250.964844 C 330.21875 251.390625 330.039062 251.8125 329.796875 252.238281 C 329.554688 252.660156 329.371094 253.144531 329.128906 253.570312 C 328.644531 254.476562 328.160156 255.445312 327.675781 256.476562 C 327.191406 257.445312 326.707031 258.472656 326.164062 259.503906 C 325.617188 260.472656 325.074219 261.441406 324.527344 262.410156 C 323.496094 264.289062 322.527344 266.042969 321.621094 267.4375 C 321.921875 266.769531 322.285156 266.164062 322.648438 265.4375 C 323.011719 264.773438 323.375 264.046875 323.738281 263.378906 C 324.46875 261.988281 325.316406 260.59375 326.101562 259.140625 C 324.46875 261.988281 324.46875 261.988281 322.890625 264.773438 C 324.226562 262.046875 325.921875 259.019531 327.375 255.6875 C 327.738281 254.839844 328.160156 253.992188 328.523438 253.144531 C 328.707031 252.722656 328.886719 252.296875 329.128906 251.875 C 329.3125 251.449219 329.492188 250.964844 329.675781 250.542969 C 330.402344 248.785156 331.128906 246.96875 331.855469 245.152344 C 334.582031 237.824219 336.941406 230.011719 338.515625 222.988281 C 338.757812 222.136719 338.878906 221.230469 339.0625 220.382812 C 339.242188 219.535156 339.363281 218.6875 339.546875 217.839844 C 339.667969 216.992188 339.847656 216.203125 339.96875 215.417969 C 340.089844 214.628906 340.273438 213.902344 340.332031 213.113281 C 340.695312 210.148438 341.058594 207.542969 341.242188 205.425781 C 341.484375 201.246094 341.421875 199.125 340.9375 200.214844 C 340.03125 202.457031 338.878906 214.386719 334.882812 228.980469 C 332.824219 236.25 330.039062 244.242188 326.648438 251.933594 C 325.738281 253.871094 324.890625 255.75 323.980469 257.6875 C 323.011719 259.566406 322.042969 261.382812 321.074219 263.199219 C 320.832031 263.683594 320.589844 264.105469 320.347656 264.589844 C 320.105469 265.015625 319.804688 265.5 319.5625 265.921875 C 319.015625 266.832031 318.53125 267.679688 317.988281 268.527344 C 317.503906 269.375 316.957031 270.222656 316.472656 271.070312 C 315.929688 271.917969 315.382812 272.707031 314.835938 273.492188 C 315.261719 272.765625 315.6875 272.101562 316.109375 271.375 C 316.535156 270.648438 316.898438 269.921875 317.320312 269.195312 C 318.109375 267.738281 318.894531 266.226562 319.742188 264.710938 C 320.53125 263.199219 321.257812 261.625 322.042969 260.050781 C 322.40625 259.261719 322.832031 258.472656 323.195312 257.6875 C 323.558594 256.898438 323.921875 256.113281 324.285156 255.265625 C 325.011719 253.628906 325.679688 252.054688 326.40625 250.421875 C 327.070312 248.785156 327.675781 247.089844 328.34375 245.453125 C 328.644531 244.605469 329.007812 243.820312 329.3125 242.972656 C 329.613281 242.125 329.917969 241.277344 330.160156 240.425781 L 331.007812 237.882812 C 331.308594 237.035156 331.613281 236.1875 331.855469 235.339844 L 333.371094 230.132812 L 333.734375 228.859375 L 334.035156 227.527344 L 334.640625 224.925781 C 335.550781 221.410156 336.09375 217.898438 336.761719 214.386719 C 337.789062 207.363281 338.578125 200.398438 338.578125 193.613281 C 338.457031 195.1875 338.335938 196.644531 338.214844 197.976562 C 338.03125 199.308594 337.851562 200.640625 337.609375 202.03125 C 337.488281 202.757812 337.425781 203.425781 337.304688 204.210938 C 337.183594 205 337.125 205.789062 336.941406 206.636719 C 336.640625 208.332031 336.335938 210.269531 336.035156 212.507812 C 335.972656 213.234375 335.792969 213.964844 335.671875 214.628906 L 335.246094 216.75 L 334.398438 220.988281 L 333.371094 225.167969 L 332.824219 227.285156 C 332.640625 228.011719 332.460938 228.679688 332.277344 229.34375 C 330.644531 234.855469 328.886719 240.367188 326.707031 245.695312 C 322.527344 256.414062 317.925781 265.742188 311.6875 274.039062 C 311.144531 274.886719 310.597656 275.734375 309.992188 276.519531 C 308.84375 278.21875 307.875 279.851562 306.722656 281.546875 C 306.421875 282.03125 306.058594 282.457031 305.753906 282.820312 C 305.449219 283.242188 305.085938 283.605469 304.84375 283.96875 C 304.238281 284.695312 303.695312 285.363281 303.148438 285.96875 C 302.605469 286.574219 302.121094 287.179688 301.695312 287.726562 C 301.210938 288.269531 300.726562 288.816406 300.242188 289.300781 C 299.273438 290.390625 298.304688 291.480469 297.15625 292.8125 C 296.609375 293.476562 295.941406 294.144531 295.214844 294.929688 C 294.488281 295.71875 293.761719 296.566406 292.914062 297.476562 C 292.792969 297.476562 292.976562 297.171875 293.339844 296.6875 C 292.855469 297.292969 292.25 297.898438 291.582031 298.625 C 290.917969 299.292969 290.191406 299.957031 289.464844 300.683594 C 288.738281 301.410156 288.011719 302.078125 287.28125 302.804688 C 286.917969 303.167969 286.617188 303.46875 286.253906 303.832031 C 285.890625 304.136719 285.585938 304.5 285.285156 304.800781 C 285.042969 304.800781 284.800781 304.800781 284.195312 305.167969 C 267.539062 319.578125 247.675781 330.660156 225.996094 336.777344 C 224.363281 337.203125 222.785156 337.6875 221.152344 338.109375 C 219.515625 338.472656 217.941406 338.835938 216.308594 339.199219 C 215.519531 339.382812 214.671875 339.5625 213.882812 339.746094 C 213.097656 339.867188 212.25 340.046875 211.460938 340.167969 C 209.828125 340.472656 208.253906 340.714844 206.617188 341.015625 C 205.222656 341.199219 203.832031 341.382812 202.4375 341.5625 C 201.046875 341.746094 199.652344 341.988281 198.199219 342.109375 C 196.746094 342.230469 195.351562 342.351562 193.898438 342.410156 C 192.445312 342.53125 190.992188 342.652344 189.539062 342.652344 C 188.085938 342.714844 186.691406 342.835938 185.480469 342.957031 C 184.269531 343.078125 183.300781 343.257812 182.574219 343.257812 C 180.699219 343.136719 178.761719 343.078125 176.820312 342.957031 C 176.335938 342.957031 175.851562 342.894531 175.367188 342.894531 C 174.882812 342.835938 174.398438 342.773438 173.914062 342.714844 C 172.945312 342.59375 171.976562 342.53125 170.949219 342.410156 C 169.980469 342.289062 168.949219 342.230469 167.917969 342.109375 C 166.890625 341.988281 165.921875 341.804688 164.832031 341.625 C 163.800781 341.441406 162.773438 341.320312 161.683594 341.140625 C 161.136719 341.078125 160.59375 341.019531 160.046875 340.894531 C 159.5 340.773438 158.957031 340.652344 158.410156 340.59375 C 157.746094 340.53125 156.65625 340.351562 155.382812 340.167969 C 154.171875 339.988281 152.71875 339.804688 151.328125 339.5625 C 149.75 339.019531 148.054688 338.535156 146.238281 337.988281 C 145.574219 337.867188 144.847656 337.625 144.179688 337.445312 L 142.183594 336.839844 C 140.847656 336.476562 139.515625 336.050781 138.125 335.6875 C 136.792969 335.203125 135.460938 334.78125 134.1875 334.296875 L 132.191406 333.628906 L 131.21875 333.265625 L 130.25 332.902344 C 125.042969 330.902344 119.957031 328.722656 115.050781 326.121094 L 115.050781 326.179688 C 113.839844 325.574219 112.566406 324.910156 111.296875 324.242188 C 110.023438 323.578125 108.753906 322.789062 107.480469 322.0625 C 104.878906 320.609375 102.332031 318.851562 99.667969 317.15625 C 98.335938 316.308594 97.125 315.339844 95.792969 314.433594 L 93.855469 313.039062 C 93.1875 312.554688 92.582031 312.128906 91.976562 311.644531 C 89.554688 309.648438 87.011719 307.769531 84.710938 305.652344 C 83.558594 304.621094 82.410156 303.652344 81.257812 302.621094 C 80.167969 301.59375 79.078125 300.5625 78.050781 299.535156 C 76.472656 298.082031 75.019531 296.566406 73.628906 295.113281 L 71.386719 292.691406 C 70.601562 291.84375 69.933594 290.933594 69.148438 290.085938 L 66.964844 287.421875 L 66.421875 286.757812 L 65.875 286.089844 L 64.847656 284.695312 C 65.148438 285.363281 65.148438 285.605469 65.089844 285.785156 C 65.390625 286.089844 65.632812 286.453125 65.9375 286.816406 C 66.238281 287.179688 66.542969 287.542969 66.90625 287.90625 C 67.449219 288.511719 67.996094 289.179688 68.542969 289.785156 C 66.480469 287.542969 64.664062 285.542969 63.210938 283.847656 C 62.605469 283 62 282.09375 61.394531 281.183594 C 60.789062 280.214844 60.183594 279.246094 59.578125 278.277344 C 58.972656 277.308594 58.304688 276.277344 57.640625 275.25 C 57.035156 274.21875 56.367188 273.128906 55.703125 272.039062 C 52.25 266.769531 49.34375 261.140625 46.558594 255.507812 L 44.621094 251.148438 L 43.652344 248.964844 L 42.804688 246.726562 C 42.257812 245.273438 41.652344 243.757812 41.109375 242.304688 C 40.5625 240.792969 40.136719 239.277344 39.59375 237.761719 C 39.167969 236.792969 39.289062 237.703125 39.167969 237.824219 C 37.535156 232.496094 36.324219 226.984375 35.234375 221.410156 C 33.175781 211.480469 32.144531 201.246094 32.144531 190.949219 C 32.023438 189.738281 32.023438 188.527344 32.023438 187.316406 C 32.023438 186.105469 31.964844 184.894531 31.964844 183.683594 C 32.085938 183.015625 32.144531 182.230469 32.265625 181.382812 C 32.386719 180.535156 32.507812 179.625 32.628906 178.597656 L 32.871094 175.6875 C 32.933594 174.71875 32.992188 173.75 33.175781 172.84375 C 33.417969 170.90625 33.71875 169.027344 33.960938 167.089844 C 34.023438 166.421875 34.144531 165.757812 34.324219 165.03125 C 34.445312 164.304688 34.566406 163.578125 34.75 162.851562 C 34.871094 162.0625 35.050781 161.277344 35.171875 160.488281 C 35.292969 159.640625 35.476562 158.792969 35.65625 157.945312 C 36.082031 156.1875 36.503906 154.371094 36.929688 152.496094 C 37.109375 151.527344 37.414062 150.558594 37.714844 149.589844 C 38.019531 148.617188 38.261719 147.589844 38.5625 146.558594 C 40.925781 138.382812 44.378906 129.300781 48.796875 120.457031 C 49.34375 119.066406 49.828125 117.976562 50.132812 117.371094 C 50.796875 116.097656 51.523438 114.886719 52.191406 113.675781 C 52.917969 112.464844 53.523438 111.253906 54.308594 110.101562 C 55.035156 108.953125 55.761719 107.800781 56.488281 106.652344 C 57.214844 105.5 57.941406 104.410156 58.730469 103.320312 C 59.398438 102.351562 60.0625 101.441406 60.667969 100.535156 C 61.335938 99.625 61.941406 98.65625 62.605469 97.808594 C 64 96.054688 65.332031 94.296875 66.601562 92.601562 C 67.996094 90.964844 69.390625 89.332031 70.660156 87.757812 C 70.964844 87.332031 71.328125 86.96875 71.691406 86.605469 C 72.054688 86.242188 72.355469 85.878906 72.71875 85.515625 C 73.386719 84.789062 74.050781 84.0625 74.71875 83.335938 C 75.988281 81.882812 77.382812 80.609375 78.65625 79.339844 C 79.261719 78.734375 79.925781 78.128906 80.53125 77.523438 C 80.835938 77.21875 81.136719 76.917969 81.441406 76.613281 C 81.742188 76.3125 82.046875 76.070312 82.347656 75.824219 C 84.769531 73.707031 86.832031 71.707031 88.707031 70.253906 C 90.886719 68.4375 90.707031 68.316406 89.253906 69.164062 C 88.527344 69.589844 87.496094 70.253906 86.222656 71.042969 C 85.011719 71.890625 83.621094 72.917969 82.226562 74.007812 C 81.5 74.554688 80.773438 75.097656 80.046875 75.644531 C 79.320312 76.25 78.65625 76.796875 77.988281 77.339844 C 76.65625 78.492188 75.324219 79.519531 74.234375 80.429688 C 72.113281 82.304688 70.722656 83.457031 71.085938 82.910156 C 74.839844 77.460938 81.136719 70.859375 90.222656 63.835938 C 94.824219 60.382812 99.972656 56.6875 105.96875 53.238281 C 108.875 51.421875 112.144531 49.785156 115.414062 47.96875 C 118.804688 46.332031 122.257812 44.578125 126.011719 43.003906 C 130.128906 41.246094 128.617188 41.792969 126.011719 42.699219 C 124.742188 43.183594 123.167969 43.730469 121.894531 44.152344 C 120.621094 44.636719 119.714844 45 119.59375 45 C 120.199219 44.636719 120.863281 44.273438 121.589844 43.789062 C 122.316406 43.367188 123.167969 43.003906 124.015625 42.578125 C 126.738281 41.488281 129.402344 40.339844 132.1875 39.429688 L 134.613281 38.582031 C 135.398438 38.277344 136.246094 37.976562 137.035156 37.792969 L 141.941406 36.339844 C 141.089844 36.582031 140.183594 36.824219 139.335938 37.066406 C 134.128906 38.582031 129.101562 40.398438 124.621094 42.335938 C 125.347656 41.972656 126.132812 41.609375 126.921875 41.246094 C 127.949219 40.761719 128.980469 40.277344 130.070312 39.855469 C 131.160156 39.429688 132.3125 38.945312 133.402344 38.519531 L 135.097656 37.855469 L 135.945312 37.492188 L 136.792969 37.1875 C 139.09375 36.402344 141.332031 35.613281 143.394531 34.886719 C 131.703125 37.855469 120.378906 42.15625 109.660156 47.726562 L 107.664062 48.757812 C 106.996094 49.121094 106.332031 49.484375 105.664062 49.847656 L 101.726562 52.085938 C 100.394531 52.8125 99.183594 53.660156 97.914062 54.507812 L 94.640625 57.171875 L 90.949219 59.839844 C 89.738281 60.746094 88.464844 61.59375 87.316406 62.5625 C 84.953125 64.441406 82.53125 66.257812 80.289062 68.316406 L 76.898438 71.285156 L 73.628906 74.433594 C 71.386719 76.492188 69.390625 78.734375 67.328125 80.914062 C 66.84375 81.457031 66.300781 82.003906 65.816406 82.546875 L 64.363281 84.242188 L 61.394531 87.695312 C 60.425781 88.847656 59.519531 90.058594 58.609375 91.269531 L 57.214844 93.085938 C 56.730469 93.691406 56.308594 94.296875 55.882812 94.902344 C 48.796875 104.714844 42.804688 115.25 38.078125 126.394531 C 41.652344 118.035156 46.074219 110.164062 50.980469 102.773438 C 55.882812 95.449219 61.335938 88.605469 67.148438 82.425781 C 61.878906 88.242188 56.972656 94.476562 52.554688 100.957031 C 48.191406 107.5 44.257812 114.402344 40.804688 121.546875 L 38.320312 126.9375 C 37.898438 127.847656 37.535156 128.753906 37.171875 129.664062 L 36.082031 132.449219 C 35.71875 133.359375 35.355469 134.265625 34.992188 135.234375 L 33.054688 140.929688 L 32.570312 142.320312 L 32.144531 143.773438 C 31.597656 145.710938 31.054688 147.589844 30.507812 149.527344 C 30.023438 151.464844 29.601562 153.402344 29.117188 155.339844 C 28.875 156.308594 28.632812 157.277344 28.449219 158.246094 L 27.90625 161.214844 L 27.359375 164.183594 C 27.300781 164.667969 27.179688 165.152344 27.117188 165.636719 L 26.9375 167.148438 L 26.148438 173.507812 L 25.664062 179.867188 L 25.542969 181.441406 C 25.542969 181.988281 25.542969 182.53125 25.484375 183.015625 L 25.421875 186.167969 L 25.363281 189.375 C 25.363281 190.464844 25.421875 191.496094 25.421875 192.585938 L 25.542969 195.796875 C 25.605469 196.886719 25.605469 197.914062 25.664062 199.003906 L 26.148438 205.363281 C 26.210938 205.910156 26.269531 206.394531 26.332031 206.9375 L 26.511719 208.511719 L 26.9375 211.660156 L 27.117188 213.234375 L 27.359375 214.8125 L 27.90625 217.960938 C 30.8125 234.734375 36.625 250.84375 44.5 265.800781 C 43.773438 264.589844 42.984375 263.199219 42.199219 261.804688 C 41.410156 260.351562 40.5625 258.898438 39.835938 257.261719 C 40.136719 257.929688 40.441406 258.59375 40.804688 259.261719 L 41.835938 261.261719 L 43.894531 265.257812 C 44.558594 266.589844 45.347656 267.859375 46.074219 269.132812 C 46.800781 270.40625 47.527344 271.738281 48.3125 273.007812 L 50.738281 276.761719 C 51.523438 278.035156 52.3125 279.308594 53.21875 280.457031 C 54.976562 282.878906 56.609375 285.363281 58.488281 287.664062 C 59.640625 289.058594 60.789062 290.449219 62 291.84375 L 65.632812 295.839844 C 64.726562 294.929688 62.605469 292.628906 61.09375 290.996094 C 72.78125 305.226562 86.769531 317.460938 102.332031 326.90625 C 117.835938 336.414062 134.914062 342.894531 152.175781 346.527344 C 149.386719 345.984375 147.996094 345.742188 146.722656 345.558594 C 147.632812 345.742188 148.601562 345.984375 149.507812 346.164062 C 150.417969 346.347656 151.386719 346.589844 152.355469 346.769531 C 154.898438 347.195312 157.441406 347.679688 159.988281 348.042969 C 162.53125 348.34375 165.074219 348.648438 167.554688 348.949219 C 165.074219 348.707031 162.53125 348.40625 159.988281 348.101562 C 157.441406 347.738281 154.898438 347.253906 152.417969 346.832031 C 151.386719 346.710938 150.355469 346.40625 149.328125 346.226562 C 148.296875 345.984375 147.269531 345.800781 146.238281 345.558594 C 145.632812 345.5 144.96875 345.378906 144.179688 345.195312 C 143.394531 345.015625 142.425781 344.710938 141.152344 344.289062 C 131.824219 341.804688 123.347656 338.59375 117.414062 335.628906 C 114.507812 334.296875 111.78125 332.722656 109.054688 331.265625 C 107.664062 330.539062 106.332031 329.691406 105 328.964844 C 103.664062 328.179688 102.332031 327.390625 101 326.605469 C 99.730469 325.757812 98.457031 324.910156 97.125 324.121094 C 95.855469 323.273438 94.582031 322.484375 93.371094 321.578125 C 90.886719 319.820312 88.40625 318.125 86.101562 316.25 C 76.714844 308.921875 68.421875 300.867188 61.578125 292.207031 C 58.425781 288.148438 59.398438 289.058594 61.09375 291.054688 C 60.246094 289.964844 59.335938 288.816406 58.488281 287.726562 L 56.488281 285.300781 L 54.613281 282.757812 C 53.402344 281.0625 52.070312 279.429688 50.917969 277.613281 C 49.765625 275.855469 48.554688 274.097656 47.464844 272.28125 C 46.375 270.464844 45.347656 268.589844 44.257812 266.769531 C 39.714844 258.351562 35.960938 249.570312 33.054688 240.609375 C 32.75 239.761719 32.449219 238.851562 32.144531 238.003906 C 31.84375 237.15625 31.597656 236.25 31.355469 235.339844 C 31.660156 236.1875 31.84375 237.097656 32.144531 238.003906 C 25.121094 214.8125 23.484375 190.40625 26.875 167.027344 C 27.058594 165.273438 27.421875 163.578125 27.722656 161.820312 L 28.148438 159.21875 C 28.269531 158.367188 28.449219 157.460938 28.632812 156.613281 C 29.417969 153.160156 30.085938 149.710938 31.113281 146.316406 C 32.933594 139.472656 35.355469 132.8125 38.019531 126.332031 L 37.535156 127.421875 L 37.109375 128.511719 L 36.203125 130.753906 C 35.597656 132.269531 34.992188 133.722656 34.445312 135.296875 C 33.902344 136.808594 33.417969 138.382812 32.871094 139.898438 L 32.085938 142.199219 L 31.417969 144.5625 L 30.085938 149.222656 C 29.660156 150.800781 29.359375 152.375 28.933594 153.949219 L 28.390625 156.308594 L 28.085938 157.519531 L 27.84375 158.734375 L 26.996094 163.515625 C 26.695312 165.089844 26.453125 166.726562 26.269531 168.363281 L 25.605469 173.207031 C 25.484375 174.839844 25.363281 176.414062 25.179688 178.050781 C 25.058594 179.6875 24.878906 181.261719 24.878906 182.894531 C 24.816406 184.53125 24.757812 186.105469 24.695312 187.742188 C 24.695312 188.527344 24.636719 189.375 24.636719 190.164062 L 24.695312 192.585938 C 24.695312 194.21875 24.757812 195.796875 24.757812 197.429688 C 24.816406 199.066406 24.9375 200.640625 25.058594 202.214844 C 23.242188 185.195312 24.574219 166.179688 29.359375 147.769531 C 26.089844 159.640625 24.332031 171.996094 23.910156 184.410156 C 23.847656 185.621094 23.789062 186.773438 23.789062 187.921875 C 23.789062 188.527344 23.726562 189.074219 23.726562 189.679688 C 23.726562 190.285156 23.726562 190.828125 23.726562 191.433594 C 23.726562 193.734375 23.789062 196.039062 23.789062 198.21875 C 23.910156 200.398438 24.03125 202.515625 24.089844 204.457031 C 24.152344 206.394531 24.394531 208.210938 24.453125 209.84375 C 23.0625 197.734375 23.0625 187.558594 23.546875 177.992188 C 21.96875 198.824219 24.273438 220.320312 30.871094 240.851562 C 31.175781 241.882812 31.539062 242.851562 31.84375 243.878906 C 32.023438 244.363281 32.144531 244.910156 32.328125 245.394531 C 32.507812 245.878906 32.691406 246.363281 32.871094 246.847656 C 32.691406 246.363281 32.507812 245.878906 32.328125 245.394531 L 31.84375 243.878906 C 31.539062 242.910156 31.175781 241.882812 30.871094 240.910156 C 27.238281 229.707031 24.574219 217.839844 23.363281 205.726562 C 22.152344 193.613281 22.394531 181.382812 24.089844 169.753906 L 23.910156 171.8125 C 23.847656 172.480469 23.789062 173.207031 23.726562 173.871094 C 23.667969 175.265625 23.605469 176.65625 23.484375 178.050781 C 23.789062 173.328125 24.453125 168.664062 25.121094 164 C 25.542969 161.699219 25.96875 159.398438 26.390625 157.097656 C 26.9375 154.796875 27.480469 152.554688 27.964844 150.253906 C 30.265625 141.171875 33.355469 132.328125 37.109375 123.851562 C 40.863281 115.371094 45.347656 107.257812 50.496094 99.566406 C 55.640625 91.933594 61.457031 84.726562 67.753906 78.007812 C 66.84375 78.855469 65.9375 79.761719 65.027344 80.671875 C 64.121094 81.578125 63.210938 82.609375 62.304688 83.636719 C 61.394531 84.667969 60.425781 85.695312 59.519531 86.789062 C 58.609375 87.9375 57.699219 89.027344 56.792969 90.238281 C 53.097656 94.902344 49.585938 100.171875 46.253906 105.621094 C 39.714844 116.644531 34.445312 128.753906 30.628906 139.414062 C 36.625 120.15625 46.617188 101.625 60.003906 85.574219 C 73.324219 69.46875 90.039062 55.839844 108.691406 45.96875 C 127.34375 36.039062 147.933594 29.980469 168.644531 27.984375 C 179.003906 26.953125 189.359375 26.953125 199.59375 27.800781 C 209.765625 28.710938 219.820312 30.585938 229.449219 33.3125 L 224.300781 31.859375 C 222.605469 31.375 220.847656 31.011719 219.09375 30.585938 C 215.640625 29.679688 212.128906 29.132812 208.617188 28.46875 C 201.589844 27.378906 194.503906 26.589844 187.359375 26.46875 C 180.214844 26.167969 173.066406 26.53125 165.921875 27.136719 C 164.164062 27.316406 162.347656 27.558594 160.59375 27.742188 C 159.683594 27.863281 158.773438 27.921875 157.925781 28.105469 L 155.261719 28.527344 C 153.507812 28.832031 151.691406 29.074219 149.933594 29.4375 C 148.175781 29.800781 146.421875 30.222656 144.664062 30.585938 C 145.996094 30.285156 147.390625 29.980469 148.78125 29.679688 C 149.507812 29.496094 150.175781 29.316406 150.902344 29.195312 C 151.628906 29.074219 152.355469 28.890625 153.082031 28.769531 C 154.597656 28.46875 156.050781 28.226562 157.5625 27.921875 C 157.746094 27.863281 157.988281 27.863281 158.167969 27.800781 C 149.75 29.132812 141.636719 31.011719 133.644531 33.617188 C 131.339844 34.402344 129.039062 35.191406 126.738281 35.976562 C 124.679688 36.824219 122.621094 37.613281 120.5625 38.460938 C 127.828125 35.371094 135.21875 32.769531 142.847656 30.769531 C 155.445312 27.4375 168.402344 25.621094 181.304688 25.199219 C 183.242188 25.078125 184.996094 25.136719 186.632812 25.136719 C 188.207031 25.136719 189.660156 25.136719 190.871094 25.136719 C 193.355469 25.199219 195.230469 25.257812 196.503906 25.257812 C 199.109375 25.257812 199.472656 25.078125 198.503906 24.773438 C 197.535156 24.472656 195.109375 24.109375 192.203125 23.746094 C 190.75 23.5625 189.117188 23.503906 187.480469 23.441406 C 185.84375 23.382812 184.148438 23.261719 182.574219 23.320312 C 178.578125 23.441406 174.582031 23.441406 170.585938 23.867188 C 169.617188 23.925781 168.585938 24.046875 167.617188 24.109375 C 167.132812 24.167969 166.648438 24.167969 166.164062 24.230469 L 164.710938 24.410156 C 162.773438 24.652344 160.773438 24.894531 158.835938 25.136719 C 156.898438 25.441406 154.960938 25.804688 153.023438 26.167969 C 152.054688 26.347656 151.085938 26.53125 150.113281 26.710938 C 149.144531 26.894531 148.238281 27.136719 147.269531 27.378906 C 145.390625 27.800781 143.453125 28.226562 141.578125 28.710938 C 139.699219 29.253906 137.820312 29.738281 136.003906 30.285156 C 128.617188 32.527344 121.347656 35.128906 114.445312 38.398438 L 111.839844 39.550781 C 110.992188 39.972656 110.144531 40.398438 109.296875 40.824219 C 107.601562 41.671875 105.90625 42.519531 104.210938 43.425781 C 100.941406 45.363281 97.609375 47.121094 94.460938 49.238281 C 69.027344 65.46875 48.433594 88.484375 35.476562 115.675781 C 35.113281 116.460938 34.6875 117.25 34.324219 118.097656 L 33.296875 120.519531 C 32.628906 122.152344 31.902344 123.789062 31.234375 125.425781 C 30.628906 127.058594 30.023438 128.753906 29.417969 130.390625 C 29.117188 131.238281 28.8125 132.027344 28.511719 132.875 L 27.722656 135.417969 L 26.089844 140.503906 L 24.9375 145.589844 L 24.273438 148.132812 L 23.726562 150.738281 L 22.574219 155.945312 C 19.910156 169.875 19.003906 184.167969 19.789062 198.339844 C 20.09375 202.335938 20.273438 206.757812 20.878906 211.238281 C 21 212.328125 21.121094 213.480469 21.304688 214.628906 C 21.484375 215.78125 21.667969 216.871094 21.847656 217.960938 C 22.03125 219.050781 22.210938 220.199219 22.453125 221.289062 C 22.574219 221.835938 22.636719 222.378906 22.757812 222.925781 C 22.878906 223.472656 23 224.015625 23.121094 224.5625 C 23.605469 226.679688 24.089844 228.800781 24.515625 230.796875 C 25.058594 232.796875 25.605469 234.675781 26.089844 236.429688 C 26.332031 237.339844 26.574219 238.1875 26.816406 238.972656 C 27.117188 239.761719 27.359375 240.546875 27.601562 241.277344 C 28.085938 242.730469 28.570312 244 28.933594 245.152344 C 33.355469 256.71875 39.230469 267.859375 46.316406 278.398438 C 49.828125 283.726562 53.765625 288.695312 57.882812 293.660156 C 58.910156 294.871094 60.0625 296.082031 61.09375 297.292969 C 62.183594 298.503906 63.210938 299.714844 64.421875 300.867188 C 66.722656 303.167969 68.964844 305.53125 71.386719 307.710938 C 72.597656 308.800781 73.75 309.949219 75.019531 311.039062 C 76.292969 312.070312 77.566406 313.160156 78.777344 314.191406 C 79.382812 314.734375 80.046875 315.28125 80.652344 315.765625 L 82.652344 317.277344 C 83.984375 318.308594 85.253906 319.277344 86.589844 320.304688 C 92.039062 324.121094 97.550781 327.875 103.542969 331.023438 C 106.453125 332.722656 109.539062 334.175781 112.566406 335.6875 C 113.292969 336.050781 114.082031 336.414062 114.871094 336.777344 L 117.230469 337.808594 L 119.59375 338.835938 L 120.742188 339.382812 L 121.953125 339.867188 C 123.53125 340.472656 125.164062 341.078125 126.738281 341.683594 L 127.949219 342.167969 C 128.375 342.289062 128.738281 342.410156 129.160156 342.59375 L 131.644531 343.378906 L 134.128906 344.167969 C 134.976562 344.46875 135.761719 344.710938 136.609375 344.953125 C 138.304688 345.4375 139.941406 345.863281 141.636719 346.347656 C 153.628906 349.617188 166.285156 351.375 179.0625 351.617188 C 180.636719 351.617188 182.273438 351.738281 183.847656 351.675781 C 185.421875 351.617188 187.054688 351.554688 188.632812 351.554688 L 191.054688 351.496094 C 191.839844 351.496094 192.628906 351.375 193.476562 351.3125 C 195.050781 351.191406 196.6875 351.070312 198.320312 350.890625 L 199.53125 350.769531 C 199.957031 350.707031 200.320312 350.648438 200.742188 350.585938 L 203.164062 350.28125 C 204.738281 350.039062 206.375 349.859375 207.949219 349.617188 L 212.734375 348.707031 L 215.097656 348.285156 C 215.882812 348.164062 216.671875 347.921875 217.457031 347.738281 L 222.179688 346.589844 L 223.390625 346.285156 L 224.542969 345.921875 L 226.90625 345.257812 C 228.480469 344.773438 230.054688 344.410156 231.566406 343.863281 L 236.171875 342.289062 L 238.472656 341.503906 L 240.710938 340.59375 L 245.195312 338.777344 C 246.707031 338.109375 248.160156 337.445312 249.613281 336.777344 C 251.066406 336.113281 252.582031 335.445312 253.976562 334.660156 C 256.820312 333.144531 259.726562 331.691406 262.515625 330.054688 C 263.90625 329.207031 265.300781 328.480469 266.691406 327.574219 C 268.023438 326.726562 269.417969 325.816406 270.75 324.96875 L 272.75 323.636719 L 274.6875 322.242188 C 276.019531 321.335938 277.289062 320.367188 278.5625 319.457031 C 279.835938 318.488281 281.105469 317.460938 282.316406 316.492188 C 283.527344 315.460938 284.859375 314.554688 286.011719 313.460938 C 295.699219 305.167969 304.359375 295.960938 311.808594 286.027344 C 319.199219 276.097656 325.316406 265.5 330.21875 254.71875 C 335.125 243.941406 338.757812 232.859375 341.179688 221.957031 C 343.664062 211.054688 344.996094 200.277344 345.480469 189.921875 C 345.421875 191.859375 345.238281 194.160156 345.058594 196.703125 Z M 25.96875 144.378906 C 26.453125 142.382812 26.9375 140.503906 27.542969 138.6875 C 28.148438 136.871094 28.753906 135.175781 29.296875 133.539062 C 29.902344 131.90625 30.628906 130.328125 31.234375 128.816406 C 33.839844 122.699219 36.746094 117.550781 39.652344 111.917969 C 43.710938 104.289062 48.3125 96.902344 53.523438 89.996094 C 54.855469 88.300781 56.1875 86.605469 57.457031 84.847656 C 58.851562 83.214844 60.246094 81.578125 61.636719 79.945312 C 62.304688 79.097656 63.03125 78.308594 63.816406 77.582031 L 65.996094 75.21875 C 66.722656 74.433594 67.449219 73.644531 68.238281 72.917969 C 69.027344 72.191406 69.753906 71.464844 70.539062 70.679688 C 72.054688 69.226562 73.566406 67.710938 75.203125 66.316406 C 76.777344 64.925781 78.351562 63.53125 79.988281 62.140625 C 81.621094 60.808594 83.257812 59.535156 84.890625 58.203125 C 85.679688 57.535156 86.589844 56.929688 87.375 56.324219 C 88.222656 55.71875 89.070312 55.113281 89.917969 54.507812 C 90.765625 53.902344 91.554688 53.296875 92.460938 52.691406 C 93.308594 52.148438 94.15625 51.542969 95.066406 50.996094 C 96.824219 49.90625 98.457031 48.695312 100.214844 47.726562 C 101.96875 46.695312 103.726562 45.667969 105.421875 44.699219 C 107.179688 43.789062 108.996094 42.820312 110.75 41.914062 C 101.546875 46.574219 92.824219 52.085938 84.710938 58.386719 C 90.160156 54.207031 95.609375 50.632812 101.242188 47.300781 C 102.210938 46.757812 103.179688 46.210938 104.089844 45.667969 L 105.542969 44.820312 L 106.996094 44.09375 C 108.996094 43.125 110.933594 42.09375 112.992188 41.066406 C 115.050781 40.15625 117.171875 39.246094 119.289062 38.277344 C 121.410156 37.371094 123.652344 36.582031 125.890625 35.734375 C 124.558594 36.339844 122.863281 37.066406 120.984375 37.855469 C 120.015625 38.21875 119.109375 38.703125 118.140625 39.125 C 117.171875 39.550781 116.203125 40.035156 115.234375 40.460938 C 114.265625 40.945312 113.355469 41.308594 112.445312 41.792969 C 111.597656 42.277344 110.75 42.699219 110.023438 43.125 C 108.570312 43.910156 107.359375 44.636719 106.753906 45.0625 C 108.8125 43.972656 110.871094 42.882812 112.992188 41.914062 C 110.871094 43.003906 108.753906 44.09375 106.574219 45.242188 C 106.632812 45.183594 106.695312 45.183594 106.753906 45.121094 C 86.527344 56.144531 68.601562 71.464844 54.492188 89.632812 C 47.464844 98.71875 41.289062 108.46875 36.324219 118.703125 C 31.355469 128.996094 27.421875 139.714844 24.636719 150.679688 C 24.9375 148.4375 25.484375 146.378906 25.96875 144.378906 Z M 119.410156 39.066406 C 117.59375 39.914062 115.71875 40.761719 113.839844 41.609375 C 115.65625 40.761719 117.535156 39.914062 119.410156 39.066406 Z M 84.46875 58.6875 C 83.679688 59.292969 82.894531 59.898438 82.105469 60.566406 C 82.894531 59.898438 83.679688 59.292969 84.46875 58.6875 Z M 101.425781 62.5625 C 103.421875 61.414062 105.484375 60.082031 107.785156 58.929688 L 105.605469 60.203125 L 103.484375 61.535156 C 102.089844 62.441406 100.699219 63.351562 99.304688 64.257812 C 96.640625 66.195312 93.855469 68.074219 91.25 70.195312 C 85.980469 74.25 81.078125 78.792969 76.351562 83.578125 L 72.902344 87.210938 C 72.296875 87.816406 71.8125 88.484375 71.265625 89.089844 L 69.632812 90.964844 L 67.996094 92.84375 C 67.449219 93.449219 66.964844 94.175781 66.421875 94.84375 C 65.390625 96.175781 64.363281 97.507812 63.332031 98.839844 C 62.363281 100.230469 61.394531 101.5625 60.425781 102.957031 C 59.941406 103.621094 59.457031 104.351562 58.972656 105.015625 L 57.640625 107.136719 C 56.730469 108.589844 55.824219 109.980469 54.914062 111.433594 C 54.066406 112.886719 53.21875 114.402344 52.371094 115.855469 L 52.3125 115.855469 C 57.519531 106.289062 65.210938 95.386719 73.566406 86.425781 C 74.597656 85.332031 75.6875 84.183594 76.65625 83.152344 C 77.140625 82.609375 77.6875 82.0625 78.230469 81.578125 C 78.777344 81.09375 79.261719 80.550781 79.804688 80.066406 C 80.835938 79.097656 81.804688 78.066406 82.832031 77.097656 C 83.863281 76.1875 84.832031 75.28125 85.800781 74.433594 C 86.285156 74.007812 86.769531 73.585938 87.195312 73.160156 C 87.4375 72.980469 87.679688 72.738281 87.859375 72.554688 C 88.101562 72.375 88.34375 72.191406 88.585938 71.949219 C 89.496094 71.164062 90.402344 70.4375 91.25 69.710938 C 92.097656 68.984375 92.886719 68.316406 93.613281 67.652344 C 94.398438 67.042969 95.066406 66.4375 95.734375 65.894531 C 97.550781 64.925781 99.367188 63.714844 101.425781 62.5625 Z M 276.867188 63.230469 C 270.628906 58.507812 264.027344 54.207031 257.183594 50.390625 L 251.976562 47.664062 C 251.128906 47.179688 250.21875 46.816406 249.3125 46.394531 L 246.648438 45.121094 C 245.738281 44.699219 244.890625 44.273438 243.984375 43.910156 L 238.53125 41.730469 L 237.140625 41.1875 L 235.746094 40.703125 C 233.871094 40.035156 231.992188 39.429688 230.175781 38.761719 C 228.296875 38.21875 226.359375 37.613281 224.484375 37.066406 C 222.605469 36.460938 220.667969 36.039062 218.730469 35.554688 C 216.792969 35.070312 214.855469 34.585938 212.914062 34.28125 C 213.761719 34.464844 214.671875 34.585938 215.519531 34.765625 L 218.0625 35.371094 C 219.757812 35.796875 221.453125 36.097656 223.148438 36.582031 C 226.480469 37.550781 229.933594 38.398438 233.203125 39.609375 C 239.863281 41.730469 246.34375 44.515625 252.644531 47.542969 C 260.699219 51.601562 268.265625 56.386719 275.292969 61.65625 C 282.316406 66.921875 288.675781 72.738281 294.429688 78.855469 C 288.917969 73.222656 283.042969 68.015625 276.867188 63.230469 Z M 142.121094 43.851562 C 143.453125 43.488281 144.785156 43.125 146.117188 42.820312 C 147.449219 42.519531 148.84375 42.277344 150.234375 41.972656 C 152.960938 41.367188 155.746094 41.003906 158.472656 40.582031 C 155.6875 41.066406 152.960938 41.488281 150.234375 42.15625 C 148.902344 42.457031 147.511719 42.761719 146.179688 43.0625 C 144.847656 43.425781 143.515625 43.789062 142.183594 44.152344 C 143.152344 43.851562 142.242188 43.910156 142.121094 43.851562 Z M 195.957031 39.003906 C 196.625 39.125 197.351562 39.308594 198.199219 39.429688 C 199.046875 39.550781 199.957031 39.792969 200.925781 39.914062 L 199.410156 39.671875 L 198.625 39.550781 L 197.835938 39.488281 C 196.808594 39.429688 195.777344 39.308594 194.808594 39.246094 C 193.777344 39.1875 192.75 39.066406 191.78125 39.003906 C 191.296875 38.945312 190.75 38.945312 190.265625 38.945312 L 188.753906 38.882812 C 191.175781 38.761719 193.535156 38.945312 195.957031 39.003906 Z M 270.8125 67.410156 C 271.355469 67.773438 271.902344 68.195312 272.445312 68.558594 C 272.992188 68.921875 273.476562 69.40625 273.960938 69.769531 C 272.6875 68.742188 271.355469 67.832031 270.023438 66.863281 C 269.359375 66.378906 268.691406 65.894531 268.023438 65.46875 C 267.359375 64.984375 266.691406 64.5 265.964844 64.078125 L 261.789062 61.414062 L 260.757812 60.746094 L 259.667969 60.140625 C 258.941406 59.71875 258.273438 59.355469 257.546875 58.929688 C 258.878906 59.597656 259.972656 60.082031 260.578125 60.445312 C 261.789062 61.171875 262.9375 61.957031 264.089844 62.746094 C 264.695312 63.109375 265.238281 63.472656 265.84375 63.894531 C 266.449219 64.257812 266.996094 64.621094 267.539062 65.046875 C 268.628906 65.832031 269.722656 66.621094 270.8125 67.410156 Z M 270.8125 67.410156 " fill-opacity="1" fill-rule="nonzero"/></g><g clip-path="url(#fe710d76a4)"><path fill="#bf953f" d="M 248.5625 144.109375 C 247.9375 139.488281 239.574219 139.488281 228.585938 146.230469 C 217.601562 152.972656 214.480469 167.328125 214.480469 167.328125 C 220.597656 150.601562 234.703125 143.984375 241.195312 143.234375 C 247.6875 142.488281 246.8125 147.605469 245.316406 151.476562 C 243.816406 155.34375 238.699219 167.078125 215.730469 172.695312 C 210.582031 173.957031 205.539062 175.5 200.726562 177.191406 C 193.101562 180.328125 184.921875 183.953125 178.652344 187.550781 C 165.171875 195.289062 151.769531 211.324219 150.691406 210.148438 C 149.316406 208.648438 157.144531 199.789062 164.171875 194.917969 C 170.175781 190.75 184.074219 183.058594 200.726562 177.191406 C 209.511719 173.578125 217.558594 170.613281 221.097656 169.074219 C 227.714844 166.203125 235.953125 162.710938 241.195312 154.71875 C 246.441406 146.730469 243.941406 143.234375 235.328125 147.355469 C 226.714844 151.476562 223.46875 157.464844 223.46875 157.464844 C 230.085938 148.726562 245.566406 143.859375 240.070312 152.472656 C 234.578125 161.085938 224.59375 165.328125 216.230469 169.324219 C 207.867188 173.320312 185.519531 180.933594 167.542969 190.796875 C 149.566406 200.660156 144.574219 213.640625 146.570312 215.890625 C 148.566406 218.136719 150.066406 216.511719 164.296875 202.90625 C 178.527344 189.300781 193.007812 178.1875 220.347656 173.695312 C 247.6875 169.199219 249.183594 148.726562 248.5625 144.109375 " fill-opacity="1" fill-rule="nonzero"/></g><g clip-path="url(#14854ebe37)"><path fill="#bf953f" d="M 211.390625 190.4375 C 189.015625 178.171875 168.253906 172.671875 178.34375 176.253906 C 194.996094 182.121094 208.816406 190.75 214.820312 194.917969 C 221.847656 199.789062 229.675781 208.648438 228.304688 210.148438 C 227.222656 211.324219 213.820312 195.289062 200.339844 187.550781 C 194.074219 183.953125 185.890625 180.328125 178.265625 177.191406 C 173.453125 175.5 168.394531 174.03125 163.261719 172.695312 C 145.617188 168.109375 134.902344 155.839844 133.542969 152.894531 C 138.550781 158.277344 149.222656 163.613281 149.222656 163.613281 C 139.253906 155.703125 136.960938 150.039062 136.960938 150.039062 C 139.765625 153.5 151.097656 161.835938 151.097656 161.835938 C 148.851562 159.496094 142.484375 151.160156 142.484375 151.160156 C 156.808594 165.394531 170.195312 171.851562 170.195312 171.851562 C 149.785156 158.839844 134.804688 139.082031 134.804688 139.082031 C 136.398438 144.890625 140.421875 150.882812 140.421875 150.882812 C 136.492188 148.167969 129.84375 140.863281 129.84375 140.863281 C 131.433594 145.238281 136.398438 153.050781 137.859375 155.308594 C 133.273438 151.578125 125.523438 142.734375 126.378906 144.046875 C 127.972656 146.480469 136.117188 169.792969 158.644531 173.695312 C 185.945312 178.421875 200.464844 189.300781 214.695312 202.90625 C 228.925781 216.511719 230.425781 218.136719 232.421875 215.890625 C 234.417969 213.640625 229.371094 200.292969 211.390625 190.4375 " fill-opacity="1" fill-rule="nonzero"/></g><path fill="#bf953f" d="M 212.261719 91.742188 C 212.261719 91.742188 198.910156 81.8125 179.695312 82.949219 C 160.480469 84.089844 150.386719 99.722656 154.78125 111.773438 C 158.578125 122.179688 172.21875 119.976562 176.359375 113.808594 C 180.347656 107.863281 178.816406 102.378906 176.273438 99.234375 C 173.710938 96.058594 172.367188 103.304688 175.460938 107.210938 C 178.554688 111.121094 185.230469 114.375 192.394531 111.773438 C 199.558594 109.167969 207.214844 96.546875 216.496094 98.828125 C 225.777344 101.105469 225.289062 112.828125 220.402344 117.550781 C 215.519531 122.273438 207.539062 121.542969 202.980469 117.472656 C 198.421875 113.398438 204.851562 114.050781 204.691406 121.214844 C 204.527344 128.378906 201.105469 133.589844 204.769531 138.964844 C 208.710938 144.742188 211.554688 136.902344 203.738281 133.484375 L 204.894531 135.464844 C 204.894531 135.464844 208.351562 138.3125 207.007812 138.945312 C 205.324219 139.734375 204.527344 134.324219 206.019531 129.085938 C 207.082031 125.347656 208.597656 119.585938 204.609375 114.867188 C 201.109375 110.722656 197.605469 115.027344 203.792969 119.425781 C 209.980469 123.820312 215.6875 124.214844 220.238281 122.140625 C 225.777344 119.613281 229.847656 110.304688 223.984375 101.894531 C 218 93.304688 207.945312 95.082031 200.78125 100.699219 C 197.332031 103.402344 189.410156 112.855469 180.941406 109.4375 C 173.707031 106.515625 174.972656 100.945312 175.789062 101.59375 C 176.601562 102.246094 178.554688 105.910156 175.949219 111.121094 C 173.34375 116.332031 164.550781 118.9375 159.828125 112.910156 C 155.109375 106.886719 158.203125 93.535156 171.878906 87.835938 C 185.558594 82.136719 200.210938 86.207031 212.261719 91.742188 " fill-opacity="1" fill-rule="nonzero"/><path fill="#bf953f" d="M 202.550781 155.46875 C 203.808594 153.230469 204.417969 151.355469 204.496094 150.847656 C 204.496094 150.847656 207.988281 150.476562 209.738281 153.597656 C 211.378906 156.527344 206.1875 157.257812 202.550781 155.46875 Z M 193.511719 162.085938 C 186.292969 165.355469 177.34375 161.1875 173.566406 155.476562 C 174.304688 155.210938 175.082031 154.921875 175.90625 154.59375 C 183.914062 151.441406 187.015625 154.09375 187.015625 154.09375 C 187.015625 154.09375 188.515625 152.097656 195.132812 154.84375 C 196.925781 155.589844 198.480469 156.332031 199.886719 156.980469 C 198.421875 158.890625 196.367188 160.789062 193.511719 162.085938 Z M 167.839844 148.652344 C 168.261719 150.300781 168.863281 152.09375 169.71875 153.871094 C 162.621094 156.589844 162.320312 149.332031 167.839844 148.652344 Z M 203.246094 150.101562 C 203.246094 150.101562 202.804688 152.210938 201.355469 154.769531 C 197.707031 152.476562 192.136719 148.792969 187.015625 150.101562 C 187.015625 150.101562 182.535156 147.457031 172.167969 152.710938 C 171.671875 151.476562 171.226562 150.1875 170.855469 148.882812 C 171.820312 149.117188 172.878906 149.511719 174.035156 150.101562 C 174.035156 150.101562 172.816406 148.871094 170.652344 148.121094 C 169.277344 142.796875 169.273438 137.464844 172.410156 135.621094 C 176.65625 133.125 184.144531 131.375 197.378906 133.5 C 199.832031 133.890625 201.816406 134.382812 203.246094 134.894531 C 203.261719 135.273438 203.410156 135.65625 203.46875 135.925781 C 203.523438 136.171875 203.886719 136.511719 203.957031 136.738281 L 204.121094 136.195312 L 204.121094 131.148438 L 203.296875 131.082031 C 203.222656 131.886719 203.164062 132.636719 203.136719 133.316406 C 198.152344 131.800781 186.414062 128.890625 176.40625 130.75 C 165.671875 132.75 166.855469 139.894531 166.855469 141.488281 C 166.855469 141.8125 166.875 144.304688 167.582031 147.566406 C 167.410156 147.5625 167.238281 147.554688 167.058594 147.558594 C 162.425781 147.648438 160.042969 152.796875 162.425781 155.34375 C 164.285156 157.328125 166.839844 157.527344 171.0625 156.296875 C 173.480469 160.089844 177.28125 163.476562 183.273438 164.832031 C 192.339844 166.882812 198.039062 162.117188 201.222656 157.582031 C 204.335938 158.9375 206.78125 159.574219 209.738281 158.214844 C 214.355469 156.09375 211.488281 148.976562 203.246094 150.101562 " fill-opacity="1" fill-rule="nonzero"/><g fill="#bf953f" fill-opacity="1"><g transform="translate(121.401728, 272.308636)"><g><path d="M 0 -4.707031 C 0 -1.675781 1.917969 0.800781 5.300781 0.800781 C 9.242188 0.800781 13.324219 -2.546875 16.21875 -4.953125 L 17.023438 -5.617188 C 17.300781 -5.824219 17.371094 -6.105469 17.371094 -6.3125 C 17.371094 -6.59375 17.160156 -6.800781 16.882812 -6.800781 C 16.671875 -6.800781 16.464844 -6.695312 16.253906 -6.523438 L 15.589844 -5.929688 C 13.148438 -3.730469 9.453125 -0.90625 6.070312 -0.90625 C 3.59375 -0.90625 1.988281 -2.441406 1.988281 -4.917969 C 1.988281 -8.441406 5.265625 -13.113281 12.523438 -14.511719 C 12.976562 -14.546875 13.253906 -15 13.253906 -15.453125 C 13.253906 -15.695312 13.183594 -15.941406 12.660156 -16.324219 C 11.683594 -17.058594 11.160156 -18.207031 11.160156 -19.359375 C 11.160156 -22.042969 14.160156 -24.871094 16.847656 -24.871094 C 17.613281 -24.871094 18.90625 -24.488281 18.90625 -23.507812 C 18.90625 -23.265625 18.730469 -23.089844 18.589844 -22.953125 C 17.023438 -21.382812 15.207031 -18.90625 15.207031 -16.671875 C 15.207031 -15.347656 15.835938 -14.613281 16.777344 -14.613281 C 19.183594 -14.613281 20.511719 -19.882812 20.511719 -21.730469 C 20.511719 -22.988281 23.195312 -24.101562 24.242188 -24.207031 C 24.941406 -24.277344 25.253906 -24.695312 25.253906 -25.113281 C 25.253906 -25.464844 24.976562 -25.777344 24.488281 -25.777344 L 24.3125 -25.777344 C 23.054688 -25.777344 21.800781 -25.183594 20.753906 -24.554688 C 20.542969 -24.453125 20.371094 -24.347656 20.195312 -24.347656 C 20.054688 -24.347656 19.953125 -24.417969 19.777344 -24.730469 C 19.148438 -25.882812 17.789062 -26.476562 16.289062 -26.476562 C 12.871094 -26.476562 9.765625 -23.195312 9.765625 -19.707031 C 9.765625 -18.242188 10.324219 -16.777344 11.648438 -15.625 C 3.558594 -14.09375 0 -8.859375 0 -4.707031 Z M 18.976562 -20.789062 C 19.046875 -20.789062 19.113281 -20.683594 19.113281 -20.476562 C 19.113281 -19.566406 17.753906 -15.835938 16.847656 -15.835938 C 16.671875 -15.835938 16.601562 -15.976562 16.601562 -16.183594 C 16.601562 -17.300781 18.382812 -20.789062 18.976562 -20.789062 Z M 18.976562 -20.789062 "/></g></g></g><g fill="#bf953f" fill-opacity="1"><g transform="translate(137.54922, 272.308636)"><g><path d="M -0.664062 -3.59375 C -0.664062 -2.265625 0.0703125 -1.535156 1.253906 -1.535156 C 3.382812 -1.535156 6.175781 -3.699219 8.09375 -5.6875 C 8.195312 -5.824219 8.300781 -5.929688 8.300781 -6.070312 C 8.300781 -6.382812 7.988281 -6.628906 7.640625 -6.628906 C 7.5 -6.628906 7.359375 -6.558594 7.21875 -6.417969 C 5.441406 -4.640625 3.140625 -2.964844 1.847656 -2.964844 C 1.253906 -2.964844 1.011719 -3.3125 1.011719 -3.941406 C 1.011719 -5.476562 2.511719 -7.707031 3.699219 -8.753906 C 6.59375 -11.335938 9 -13.359375 10.289062 -15 C 11.230469 -16.21875 11.648438 -17.230469 11.648438 -17.964844 C 11.648438 -18.765625 11.195312 -19.21875 10.464844 -19.21875 C 9.558594 -19.21875 8.230469 -18.558594 6.800781 -16.953125 L 5.058594 -14.753906 C 3.140625 -12.171875 -0.664062 -6.628906 -0.664062 -3.59375 Z M 5.265625 -12 L 6.558594 -13.847656 L 8.335938 -16.046875 C 9.207031 -17.023438 9.800781 -17.441406 10.046875 -17.441406 C 10.148438 -17.441406 10.21875 -17.371094 10.21875 -17.230469 C 10.21875 -16.113281 5.824219 -11.683594 5.265625 -11.683594 C 5.195312 -11.683594 5.164062 -11.71875 5.164062 -11.789062 C 5.164062 -11.824219 5.195312 -11.929688 5.265625 -12 Z M 5.265625 -12 "/></g></g></g><g fill="#bf953f" fill-opacity="1"><g transform="translate(144.733637, 272.308636)"><g><path d="M -1.046875 -3.664062 C -1.046875 -2.511719 -0.210938 -1.847656 0.976562 -1.847656 C 2.476562 -1.847656 4.359375 -2.652344 6.730469 -5.40625 L 6.941406 -5.652344 C 7.082031 -5.824219 7.183594 -5.964844 7.183594 -6.140625 C 7.183594 -6.417969 6.90625 -6.664062 6.59375 -6.664062 C 6.453125 -6.664062 6.277344 -6.59375 6.140625 -6.453125 L 5.894531 -6.242188 C 5.023438 -5.511719 2.582031 -3.035156 1.359375 -3.035156 C 0.976562 -3.035156 0.699219 -3.277344 0.699219 -3.871094 C 0.699219 -4.011719 0.699219 -4.1875 0.734375 -4.253906 C 1.117188 -5.023438 2.652344 -7.183594 3.699219 -8.511719 L 4.570312 -9.59375 C 4.742188 -9.800781 4.8125 -10.046875 4.8125 -10.21875 C 4.8125 -10.640625 4.464844 -10.917969 4.082031 -10.917969 C 3.765625 -10.917969 3.382812 -10.742188 3.070312 -10.324219 L 2.199219 -9.207031 C 1.324219 -8.09375 -0.105469 -6.453125 -0.699219 -5.164062 C -0.941406 -4.605469 -1.046875 -4.117188 -1.046875 -3.664062 Z M 4.464844 -12.136719 C 4.464844 -11.648438 4.847656 -11.265625 5.335938 -11.265625 C 5.824219 -11.265625 6.242188 -11.648438 6.242188 -12.136719 C 6.242188 -12.625 5.824219 -13.046875 5.335938 -13.046875 C 4.847656 -13.046875 4.464844 -12.625 4.464844 -12.136719 Z M 4.464844 -12.136719 "/></g></g></g><g fill="#bf953f" fill-opacity="1"><g transform="translate(150.802022, 272.308636)"><g><path d="M -1.8125 -13.707031 C -1.8125 -13.394531 -1.535156 -13.082031 -1.117188 -13.082031 C -0.941406 -13.082031 -0.765625 -13.113281 -0.382812 -13.324219 C 0.523438 -13.8125 1.5 -14.058594 2.546875 -14.058594 C 3.382812 -14.058594 4.253906 -13.917969 5.230469 -13.742188 L 4.675781 -13.011719 C 3.140625 -11.023438 -0.488281 -6.382812 -0.941406 -4.1875 C -0.976562 -3.976562 -1.011719 -3.800781 -1.011719 -3.628906 C -1.011719 -2.582031 -0.3125 -1.8125 1.082031 -1.8125 C 3.59375 -1.8125 7.082031 -4.289062 8.476562 -5.6875 L 8.511719 -5.71875 C 8.652344 -5.824219 8.71875 -6 8.71875 -6.105469 C 8.71875 -6.382812 8.441406 -6.59375 8.058594 -6.59375 C 7.882812 -6.59375 7.707031 -6.558594 7.605469 -6.453125 L 7.570312 -6.417969 C 6.488281 -5.265625 3.453125 -3.140625 1.847656 -3.140625 C 1.222656 -3.140625 0.941406 -3.488281 0.941406 -3.976562 C 0.941406 -4.117188 0.976562 -4.253906 1.011719 -4.429688 C 1.429688 -6.488281 4.8125 -10.464844 6.628906 -12.695312 L 7.21875 -13.429688 C 8.023438 -13.289062 8.753906 -13.183594 9.140625 -13.183594 C 10.253906 -13.183594 13.742188 -13.953125 13.742188 -14.894531 C 13.742188 -15.277344 13.289062 -15.453125 13.011719 -15.453125 C 12.800781 -15.453125 12.625 -15.382812 12.488281 -15.3125 C 11.160156 -14.648438 10.429688 -14.335938 9.488281 -14.335938 C 9.070312 -14.335938 8.582031 -14.371094 8.023438 -14.441406 L 9 -15.589844 C 9.140625 -15.730469 9.207031 -15.90625 9.207031 -16.082031 C 9.207031 -16.570312 8.71875 -16.882812 8.265625 -16.882812 C 7.988281 -16.882812 7.707031 -16.777344 7.324219 -16.324219 L 6.035156 -14.753906 L 5.230469 -14.894531 C 4.152344 -15.070312 3.210938 -15.277344 2.582031 -15.277344 C 1.464844 -15.277344 -1.8125 -14.683594 -1.8125 -13.707031 Z M -1.8125 -13.707031 "/></g></g></g><g fill="#bf953f" fill-opacity="1"><g transform="translate(158.37007, 272.308636)"><g><path d="M 3.730469 -1.917969 C 6.90625 -1.917969 9.558594 -3.417969 11.894531 -5.6875 C 12.035156 -5.824219 12.070312 -5.964844 12.070312 -6.070312 C 12.070312 -6.382812 11.753906 -6.628906 11.441406 -6.628906 C 11.300781 -6.628906 11.128906 -6.558594 11.023438 -6.453125 C 9.171875 -4.605469 6.871094 -3.140625 4.289062 -3.140625 C 3.035156 -3.140625 1.742188 -3.488281 1.742188 -4.640625 C 1.742188 -5.058594 1.882812 -5.441406 2.441406 -5.546875 C 4.394531 -5.71875 9.3125 -6.558594 9.3125 -9.070312 C 9.3125 -10.21875 8.265625 -11.09375 6.730469 -11.09375 C 3.730469 -11.09375 -0.347656 -7.742188 -0.347656 -4.742188 C -0.347656 -3.105469 0.941406 -1.917969 3.730469 -1.917969 Z M 6.695312 -9.382812 C 7.183594 -9.382812 7.640625 -9.105469 7.640625 -8.683594 C 7.640625 -7.394531 4.011719 -6.90625 3.210938 -6.730469 L 3.035156 -6.695312 C 2.722656 -6.695312 2.652344 -6.800781 2.652344 -6.941406 C 2.652344 -7.847656 5.582031 -9.382812 6.695312 -9.382812 Z M 6.695312 -9.382812 "/></g></g></g><g fill="#bf953f" fill-opacity="1"><g transform="translate(169.32106, 272.308636)"><g/></g></g><g fill="#bf953f" fill-opacity="1"><g transform="translate(181.457831, 272.308636)"><g><path d="M 0 1.847656 C 0 2.300781 0.382812 2.753906 1.324219 2.753906 C 4.253906 2.753906 8.582031 -1.742188 12.035156 -6.035156 C 13.847656 -8.265625 15.523438 -10.570312 17.230469 -12.90625 L 18.800781 -15.035156 C 21.382812 -18.558594 23.054688 -20.683594 24.382812 -22.113281 C 24.488281 -22.21875 24.589844 -22.289062 24.695312 -22.289062 C 24.871094 -22.289062 25.007812 -22.148438 24.976562 -21.90625 C 24.730469 -20.089844 23.507812 -8.71875 22.566406 -7.917969 C 21.277344 -6.835938 19.289062 -4.742188 19.289062 -2.929688 C 19.289062 -1.953125 19.882812 -1.394531 20.789062 -1.394531 C 23.265625 -1.394531 24.417969 -5.476562 24.625 -7.152344 C 24.695312 -7.742188 24.835938 -8.195312 25.253906 -8.582031 C 30.449219 -13.324219 39.519531 -20.230469 43.914062 -22.707031 C 44.125 -22.8125 44.296875 -22.847656 44.402344 -22.847656 C 44.578125 -22.847656 44.648438 -22.742188 44.648438 -22.601562 C 44.648438 -22.5 44.613281 -22.324219 44.507812 -22.183594 L 40.53125 -17.371094 C 35.578125 -11.511719 29.824219 -4.707031 29.824219 -0.0703125 C 29.824219 0.664062 29.960938 1.429688 30.695312 1.429688 C 31.53125 1.429688 31.601562 0.382812 31.601562 0 C 31.601562 -3.976562 37.21875 -10.742188 42.066406 -16.535156 C 44.648438 -19.636719 47.019531 -22.464844 47.996094 -24.136719 C 48.242188 -24.554688 48.273438 -24.695312 48.273438 -24.800781 C 48.273438 -25.324219 47.71875 -25.707031 47.019531 -25.707031 C 46.742188 -25.707031 46.460938 -25.671875 45.972656 -25.429688 C 43.183594 -24.03125 32.40625 -16.882812 25.183594 -9.976562 C 25.113281 -9.90625 25.007812 -9.871094 24.941406 -9.871094 C 24.835938 -9.871094 24.730469 -9.941406 24.730469 -10.117188 C 24.730469 -10.148438 24.730469 -10.183594 24.800781 -10.394531 C 25.671875 -13.046875 26.265625 -22.707031 26.859375 -24.453125 L 26.894531 -24.554688 C 26.894531 -25.113281 26.542969 -25.464844 26.230469 -25.464844 C 24.730469 -25.464844 18.523438 -17.40625 17.476562 -16.011719 L 15.941406 -13.917969 C 12.207031 -8.824219 5.300781 0.90625 1.289062 0.90625 C 0.417969 0.90625 0 1.394531 0 1.847656 Z M 22.671875 -6.488281 C 22.707031 -6.488281 22.742188 -6.453125 22.742188 -6.3125 C 22.742188 -5.652344 21.660156 -2.929688 20.964844 -2.929688 C 20.789062 -2.929688 20.71875 -3.070312 20.71875 -3.242188 C 20.71875 -3.871094 22.042969 -6.488281 22.671875 -6.488281 Z M 22.671875 -6.488281 "/></g></g></g><g fill="#bf953f" fill-opacity="1"><g transform="translate(218.495907, 272.308636)"><g><path d="M 3.730469 -1.917969 C 6.90625 -1.917969 9.558594 -3.417969 11.894531 -5.6875 C 12.035156 -5.824219 12.070312 -5.964844 12.070312 -6.070312 C 12.070312 -6.382812 11.753906 -6.628906 11.441406 -6.628906 C 11.300781 -6.628906 11.128906 -6.558594 11.023438 -6.453125 C 9.171875 -4.605469 6.871094 -3.140625 4.289062 -3.140625 C 3.035156 -3.140625 1.742188 -3.488281 1.742188 -4.640625 C 1.742188 -5.058594 1.882812 -5.441406 2.441406 -5.546875 C 4.394531 -5.71875 9.3125 -6.558594 9.3125 -9.070312 C 9.3125 -10.21875 8.265625 -11.09375 6.730469 -11.09375 C 3.730469 -11.09375 -0.347656 -7.742188 -0.347656 -4.742188 C -0.347656 -3.105469 0.941406 -1.917969 3.730469 -1.917969 Z M 6.695312 -9.382812 C 7.183594 -9.382812 7.640625 -9.105469 7.640625 -8.683594 C 7.640625 -7.394531 4.011719 -6.90625 3.210938 -6.730469 L 3.035156 -6.695312 C 2.722656 -6.695312 2.652344 -6.800781 2.652344 -6.941406 C 2.652344 -7.847656 5.582031 -9.382812 6.695312 -9.382812 Z M 6.695312 -9.382812 "/></g></g></g><g fill="#bf953f" fill-opacity="1"><g transform="translate(229.446897, 272.308636)"><g><path d="M -2.40625 -2.753906 C -2.40625 -2.335938 -2.058594 -1.953125 -1.605469 -1.953125 C -1.324219 -1.953125 -1.046875 -2.128906 -0.871094 -2.371094 L 1.882812 -6.347656 C 2.824219 -7.707031 5.09375 -9.628906 6.835938 -9.628906 C 7.324219 -9.628906 7.671875 -9.488281 7.671875 -9.070312 C 7.671875 -8.824219 7.605469 -8.511719 7.289062 -8.09375 L 5.789062 -6 C 5.164062 -5.058594 4.882812 -4.21875 4.882812 -3.59375 C 4.882812 -2.582031 5.546875 -2.023438 6.558594 -2.023438 C 8.617188 -2.023438 10.882812 -4.324219 12.242188 -5.71875 C 12.347656 -5.859375 12.382812 -5.964844 12.382812 -6.105469 C 12.382812 -6.417969 12.105469 -6.695312 11.789062 -6.695312 C 11.648438 -6.695312 11.546875 -6.628906 11.40625 -6.523438 L 11.195312 -6.347656 C 10.394531 -5.6875 7.917969 -3.242188 6.871094 -3.242188 C 6.628906 -3.242188 6.488281 -3.382812 6.488281 -3.664062 C 6.488281 -4.011719 6.695312 -4.640625 7.253906 -5.371094 L 7.953125 -6.3125 C 8.265625 -6.765625 8.617188 -7.152344 8.859375 -7.535156 C 9.242188 -8.128906 9.382812 -8.683594 9.382812 -9.140625 C 9.382812 -10.394531 8.371094 -11.023438 7.117188 -11.023438 C 6.59375 -11.023438 6.035156 -10.917969 5.476562 -10.671875 C 5.265625 -10.570312 5.128906 -10.535156 4.988281 -10.535156 C 4.847656 -10.535156 4.707031 -10.605469 4.640625 -10.8125 C 4.535156 -11.09375 4.253906 -11.195312 3.976562 -11.195312 C 3.730469 -11.195312 3.382812 -11.058594 3.140625 -10.707031 L 1.710938 -8.71875 C 0.382812 -6.871094 -1.082031 -5.058594 -2.265625 -3.175781 C -2.371094 -3.035156 -2.40625 -2.894531 -2.40625 -2.753906 Z M -2.40625 -2.753906 "/></g></g></g><g fill="#bf953f" fill-opacity="1"><g transform="translate(240.711769, 272.308636)"><g><path d="M -1.1875 -3.523438 C -1.1875 -2.371094 -0.3125 -1.710938 0.941406 -1.710938 C 1.742188 -1.710938 2.753906 -1.988281 3.765625 -2.582031 C 4.394531 -2.964844 4.847656 -3.105469 5.265625 -3.105469 C 5.6875 -3.105469 6.070312 -2.929688 6.382812 -2.546875 C 6.730469 -2.09375 7.253906 -1.917969 7.777344 -1.917969 C 9.730469 -1.917969 12.347656 -4.253906 13.742188 -5.617188 L 13.777344 -5.652344 C 13.917969 -5.789062 13.953125 -5.929688 13.953125 -6.070312 C 13.953125 -6.347656 13.671875 -6.59375 13.359375 -6.59375 C 13.183594 -6.59375 12.976562 -6.523438 12.835938 -6.347656 C 11.789062 -5.023438 9.417969 -3.277344 8.09375 -3.277344 C 7.605469 -3.277344 7.324219 -3.558594 7.324219 -4.046875 C 7.324219 -4.429688 7.5 -4.917969 7.882812 -5.511719 C 8.441406 -6.382812 9.835938 -7.8125 10.707031 -8.824219 L 11.546875 -9.800781 C 11.71875 -9.976562 11.789062 -10.183594 11.789062 -10.359375 C 11.789062 -10.847656 11.300781 -11.160156 10.847656 -11.160156 C 10.570312 -11.160156 10.253906 -11.023438 10.082031 -10.8125 C 8.683594 -9.140625 3.800781 -2.859375 1.5 -2.859375 C 1.011719 -2.859375 0.765625 -3.140625 0.765625 -3.628906 C 0.765625 -4.046875 0.941406 -4.570312 1.289062 -5.164062 C 1.917969 -6.207031 3.453125 -7.953125 4.359375 -9 L 5.023438 -9.765625 C 5.195312 -9.941406 5.265625 -10.183594 5.265625 -10.359375 C 5.265625 -10.847656 4.8125 -11.160156 4.394531 -11.160156 C 4.082031 -11.160156 3.730469 -10.988281 3.488281 -10.671875 L 2.617188 -9.628906 C 1.570312 -8.40625 0.140625 -6.730469 -0.558594 -5.511719 C -1.011719 -4.742188 -1.1875 -4.082031 -1.1875 -3.523438 Z M -1.1875 -3.523438 "/></g></g></g></svg>