<svg xmlns="http://www.w3.org/2000/svg" xmlns:xlink="http://www.w3.org/1999/xlink" width="498" zoomAndPan="magnify" viewBox="0 0 373.5 107.249998" height="143" preserveAspectRatio="xMidYMid meet" version="1.0"><defs><clipPath id="9d852ad71d"><path d="M 1.414062 0 L 371.207031 0 L 371.207031 106.210938 L 1.414062 106.210938 Z M 1.414062 0 " clip-rule="nonzero"/></clipPath></defs><g clip-path="url(#9d852ad71d)"><path fill="#737373" d="M 368.488281 24.382812 C 356.371094 -7.433594 317.738281 0.140625 310.921875 25.140625 C 304.101562 50.136719 332.886719 63.394531 344.25 48.242188 C 354.695312 34.316406 341.976562 23.625 341.976562 23.625 C 355.613281 40.289062 324.425781 62.851562 316.222656 39.152344 C 309.40625 19.457031 334.023438 8.851562 346.902344 13.398438 C 359.777344 17.945312 369.625 54.304688 330.992188 64.152344 C 292.363281 74 278.726562 41.425781 245.394531 11.882812 C 215.351562 -14.746094 190.851562 10.9375 186.3125 16.261719 C 181.773438 10.9375 157.273438 -14.746094 127.226562 11.882812 C 93.898438 41.425781 80.261719 74 41.628906 64.152344 C 2.996094 54.304688 12.84375 17.945312 25.722656 13.398438 C 38.597656 8.851562 63.21875 19.457031 56.402344 39.152344 C 48.199219 62.851562 17.011719 40.289062 30.648438 23.625 C 30.648438 23.625 17.925781 34.316406 28.375 48.242188 C 39.734375 63.394531 68.519531 50.136719 61.703125 25.140625 C 54.886719 0.140625 16.253906 -7.433594 4.132812 24.382812 C -7.988281 56.199219 21.558594 94.074219 70.035156 103.917969 C 117.640625 113.589844 165.246094 91.847656 186.3125 53.765625 C 207.378906 91.847656 254.980469 113.589844 302.585938 103.917969 C 351.066406 94.074219 380.609375 56.199219 368.488281 24.382812 " fill-opacity="1" fill-rule="nonzero"/><path fill="#bf953f" d="M 368.488281 24.382812 C 356.371094 -7.433594 317.738281 0.140625 310.921875 25.140625 C 304.101562 50.136719 332.886719 63.394531 344.25 48.242188 C 354.695312 34.316406 341.976562 23.625 341.976562 23.625 C 355.613281 40.289062 324.425781 62.851562 316.222656 39.152344 C 309.40625 19.457031 334.023438 8.851562 346.902344 13.398438 C 359.777344 17.945312 369.625 54.304688 330.992188 64.152344 C 292.363281 74 278.726562 41.425781 245.394531 11.882812 C 215.351562 -14.746094 190.851562 10.9375 186.3125 16.261719 C 181.773438 10.9375 157.273438 -14.746094 127.226562 11.882812 C 93.898438 41.425781 80.261719 74 41.628906 64.152344 C 2.996094 54.304688 12.84375 17.945312 25.722656 13.398438 C 38.597656 8.851562 63.21875 19.457031 56.402344 39.152344 C 48.199219 62.851562 17.011719 40.289062 30.648438 23.625 C 30.648438 23.625 17.925781 34.316406 28.375 48.242188 C 39.734375 63.394531 68.519531 50.136719 61.703125 25.140625 C 54.886719 0.140625 16.253906 -7.433594 4.132812 24.382812 C -7.988281 56.199219 21.558594 94.074219 70.035156 103.917969 C 117.640625 113.589844 165.246094 91.847656 186.3125 53.765625 C 207.378906 91.847656 254.980469 113.589844 302.585938 103.917969 C 351.066406 94.074219 380.609375 56.199219 368.488281 24.382812 " fill-opacity="1" fill-rule="nonzero"/></g></svg>