<svg xmlns="http://www.w3.org/2000/svg" xmlns:xlink="http://www.w3.org/1999/xlink" width="500" zoomAndPan="magnify" viewBox="0 0 375 374.999991" height="500" preserveAspectRatio="xMidYMid meet" version="1.0"><defs><g/><clipPath id="a1ec031823"><path d="M 87 25.066406 L 288.398438 25.066406 L 288.398438 227.566406 L 87 227.566406 Z M 87 25.066406 " clip-rule="nonzero"/></clipPath><clipPath id="6185b08e40"><path d="M 160.207031 93.539062 L 227.519531 93.539062 L 227.519531 143.351562 L 160.207031 143.351562 Z M 160.207031 93.539062 " clip-rule="nonzero"/></clipPath><clipPath id="b3b0f3ba7a"><path d="M 147.34375 92.351562 L 217.394531 92.351562 L 217.394531 143.351562 L 147.34375 143.351562 Z M 147.34375 92.351562 " clip-rule="nonzero"/></clipPath></defs><g clip-path="url(#a1ec031823)"><path fill="#bf953f" d="M 252.800781 51.351562 C 263.382812 60.660156 272.09375 72.140625 278.039062 84.925781 C 278.300781 85.300781 278.675781 86.050781 279.125 86.984375 C 279.347656 87.433594 279.570312 87.957031 279.832031 88.515625 C 280.09375 89.078125 280.320312 89.675781 280.542969 90.273438 C 280.769531 90.871094 281.03125 91.472656 281.253906 92.105469 C 281.480469 92.703125 281.742188 93.304688 281.925781 93.902344 C 282.339844 95.058594 282.75 96.144531 283.050781 96.96875 C 282.601562 95.546875 282.1875 94.164062 281.703125 92.816406 C 281.21875 91.472656 280.695312 90.164062 280.207031 88.890625 C 279.683594 87.621094 279.125 86.347656 278.601562 85.113281 L 278.1875 84.179688 L 277.738281 83.28125 C 277.441406 82.683594 277.140625 82.085938 276.84375 81.488281 C 275.085938 78.011719 273.101562 74.644531 270.859375 71.242188 C 274.335938 76.363281 277.328125 81.824219 279.796875 87.507812 C 279.308594 86.386719 278.785156 85.300781 278.300781 84.179688 C 277.738281 83.09375 277.179688 81.972656 276.617188 80.890625 C 276.09375 79.769531 275.421875 78.683594 274.824219 77.597656 C 274.1875 76.515625 273.589844 75.394531 272.878906 74.347656 C 270.222656 70.007812 267.121094 65.859375 263.753906 61.894531 C 256.988281 53.929688 248.726562 47.015625 239.640625 41.515625 C 236.3125 39.574219 233.246094 37.589844 229.582031 35.796875 C 228.683594 35.347656 227.75 34.863281 226.777344 34.449219 C 225.804688 34.039062 224.757812 33.628906 223.671875 33.179688 C 222.589844 32.730469 221.46875 32.394531 220.269531 32.019531 C 219.074219 31.644531 217.804688 31.273438 216.457031 30.972656 C 223.074219 33.03125 229.507812 35.796875 235.601562 39.199219 C 241.769531 42.601562 247.527344 46.675781 252.800781 51.351562 Z M 270.410156 70.457031 C 270.1875 70.121094 269.925781 69.746094 269.664062 69.410156 C 269.925781 69.746094 270.148438 70.082031 270.410156 70.457031 Z M 287.386719 121.570312 C 287.347656 120.898438 287.273438 120.1875 287.238281 119.511719 C 287.3125 120.222656 287.347656 120.972656 287.421875 121.683594 C 287.460938 122.054688 287.5 122.390625 287.5 122.765625 C 287.5 123.101562 287.535156 123.476562 287.535156 123.8125 C 287.574219 125.195312 287.609375 126.582031 287.609375 127.851562 C 287.574219 126.429688 287.535156 125.046875 287.5 123.664062 C 287.5 123.328125 287.5 122.953125 287.460938 122.617188 C 287.421875 122.242188 287.386719 121.90625 287.386719 121.570312 Z M 199.78125 29.476562 C 187.070312 27.90625 173.871094 28.765625 161.121094 32.355469 C 168.035156 30.375 175.402344 29.066406 182.84375 28.617188 C 190.285156 28.167969 197.761719 28.691406 204.828125 30.074219 C 203.144531 29.8125 201.464844 29.664062 199.78125 29.476562 Z M 235.898438 41.964844 C 230.328125 38.75 224.347656 36.019531 218.066406 33.964844 C 224.273438 35.984375 230.292969 38.636719 235.863281 41.890625 C 241.472656 45.144531 246.632812 48.921875 251.15625 53.035156 C 246.59375 48.957031 241.472656 45.21875 235.898438 41.964844 Z M 99.386719 101.117188 C 95.949219 112.707031 94.675781 125.195312 95.910156 137.910156 C 95.835938 137.5 95.835938 137.050781 95.796875 136.636719 C 95.761719 136.226562 95.722656 135.777344 95.6875 135.367188 C 95.613281 134.507812 95.535156 133.648438 95.5 132.75 C 95.460938 131.890625 95.460938 130.992188 95.425781 130.09375 C 95.425781 129.644531 95.386719 129.199219 95.386719 128.75 C 95.386719 128.300781 95.351562 127.851562 95.386719 127.402344 C 95.425781 125.609375 95.238281 124 95.199219 123.140625 C 95.613281 118.464844 96.285156 113.867188 97.445312 108.484375 C 97.59375 107.660156 97.96875 105.867188 98.265625 104.222656 C 98.640625 103.25 99.015625 102.203125 99.386719 101.117188 Z M 173.871094 27.71875 C 173.53125 27.757812 173.195312 27.832031 172.859375 27.871094 C 173.683594 27.757812 174.46875 27.609375 175.289062 27.535156 C 174.804688 27.609375 174.316406 27.683594 173.871094 27.71875 Z M 127.132812 46.9375 C 127.167969 46.902344 127.242188 46.863281 127.28125 46.828125 C 127.242188 46.863281 127.167969 46.902344 127.132812 46.9375 Z M 125.671875 48.0625 C 125.074219 48.546875 124.476562 49.03125 123.839844 49.554688 C 124.441406 49.070312 125.039062 48.546875 125.671875 48.0625 Z M 288.023438 132.152344 C 287.984375 132.9375 287.871094 133.722656 287.796875 134.542969 C 287.722656 135.367188 287.609375 136.226562 287.5 137.085938 C 287.460938 137.5 287.421875 137.945312 287.347656 138.394531 C 287.273438 138.84375 287.199219 139.253906 287.125 139.703125 C 286.976562 140.601562 286.824219 141.5 286.714844 142.394531 L 286.601562 143.070312 C 286.5625 143.292969 286.527344 143.519531 286.453125 143.742188 C 286.339844 144.191406 286.265625 144.640625 286.152344 145.089844 C 285.964844 145.984375 285.777344 146.921875 285.589844 147.816406 C 285.367188 148.714844 285.144531 149.613281 284.917969 150.546875 C 284.695312 151.445312 284.46875 152.34375 284.207031 153.238281 C 283.945312 154.097656 283.648438 154.960938 283.386719 155.820312 C 283.125 156.679688 282.863281 157.5 282.5625 158.324219 C 282.265625 159.148438 281.964844 159.933594 281.664062 160.679688 C 281.367188 161.429688 281.105469 162.214844 280.769531 162.886719 C 280.132812 164.308594 279.570312 165.617188 278.972656 166.773438 C 279.347656 165.652344 279.722656 164.492188 280.09375 163.335938 C 279.832031 163.820312 279.421875 164.644531 278.972656 165.652344 C 278.863281 165.914062 278.75 166.175781 278.601562 166.4375 C 278.449219 166.699219 278.339844 167 278.1875 167.261719 C 277.890625 167.820312 277.589844 168.417969 277.292969 169.054688 C 276.992188 169.652344 276.691406 170.289062 276.355469 170.925781 C 276.019531 171.523438 275.683594 172.121094 275.347656 172.71875 C 274.710938 173.878906 274.113281 174.964844 273.550781 175.824219 C 273.738281 175.410156 273.964844 175.039062 274.1875 174.589844 C 274.410156 174.179688 274.636719 173.730469 274.859375 173.316406 C 275.308594 172.457031 275.832031 171.597656 276.320312 170.699219 C 275.308594 172.457031 275.308594 172.457031 274.335938 174.179688 C 275.160156 172.496094 276.207031 170.625 277.105469 168.570312 C 277.328125 168.046875 277.589844 167.523438 277.816406 167 C 277.925781 166.738281 278.039062 166.476562 278.1875 166.214844 C 278.300781 165.953125 278.414062 165.652344 278.523438 165.390625 C 278.972656 164.308594 279.421875 163.183594 279.871094 162.0625 C 281.554688 157.539062 283.011719 152.714844 283.984375 148.378906 C 284.132812 147.855469 284.207031 147.292969 284.320312 146.769531 C 284.433594 146.246094 284.507812 145.722656 284.621094 145.199219 C 284.695312 144.675781 284.804688 144.191406 284.882812 143.703125 C 284.957031 143.21875 285.066406 142.769531 285.105469 142.285156 C 285.328125 140.453125 285.554688 138.84375 285.667969 137.535156 C 285.816406 134.957031 285.777344 133.648438 285.480469 134.320312 C 284.917969 135.703125 284.207031 143.070312 281.742188 152.082031 C 280.46875 156.566406 278.75 161.503906 276.65625 166.25 C 276.09375 167.449219 275.570312 168.605469 275.011719 169.804688 C 274.410156 170.960938 273.8125 172.085938 273.214844 173.207031 C 273.066406 173.503906 272.917969 173.765625 272.765625 174.066406 C 272.617188 174.328125 272.429688 174.625 272.28125 174.886719 C 271.945312 175.449219 271.644531 175.972656 271.308594 176.496094 C 271.007812 177.019531 270.671875 177.542969 270.375 178.066406 C 270.039062 178.589844 269.699219 179.074219 269.363281 179.5625 C 269.625 179.113281 269.886719 178.703125 270.148438 178.253906 C 270.410156 177.804688 270.636719 177.355469 270.898438 176.90625 C 271.382812 176.011719 271.871094 175.074219 272.394531 174.140625 C 272.878906 173.207031 273.328125 172.234375 273.8125 171.261719 C 274.039062 170.777344 274.300781 170.289062 274.523438 169.804688 C 274.75 169.316406 274.972656 168.832031 275.195312 168.308594 C 275.644531 167.296875 276.058594 166.324219 276.503906 165.316406 C 276.917969 164.308594 277.289062 163.261719 277.703125 162.25 C 277.890625 161.726562 278.113281 161.242188 278.300781 160.71875 C 278.488281 160.195312 278.675781 159.671875 278.824219 159.148438 L 279.347656 157.578125 C 279.535156 157.054688 279.722656 156.53125 279.871094 156.007812 L 280.804688 152.789062 L 281.03125 152.003906 L 281.21875 151.183594 L 281.589844 149.574219 C 282.152344 147.40625 282.488281 145.238281 282.898438 143.070312 C 283.535156 138.730469 284.019531 134.433594 284.019531 130.246094 C 283.945312 131.214844 283.871094 132.113281 283.796875 132.9375 C 283.683594 133.757812 283.574219 134.582031 283.421875 135.441406 C 283.347656 135.890625 283.3125 136.300781 283.234375 136.789062 C 283.160156 137.273438 283.125 137.761719 283.011719 138.285156 C 282.824219 139.332031 282.636719 140.527344 282.449219 141.910156 C 282.414062 142.359375 282.300781 142.808594 282.226562 143.21875 L 281.441406 147.144531 L 280.804688 149.726562 L 280.46875 151.035156 C 280.355469 151.480469 280.246094 151.894531 280.132812 152.304688 C 279.125 155.707031 278.039062 159.109375 276.691406 162.398438 C 274.113281 169.019531 271.269531 174.777344 267.421875 179.898438 C 267.082031 180.421875 266.746094 180.945312 266.375 181.433594 C 265.664062 182.480469 265.0625 183.488281 264.355469 184.535156 C 264.167969 184.835938 263.941406 185.097656 263.753906 185.320312 C 263.570312 185.582031 263.34375 185.804688 263.195312 186.03125 C 262.820312 186.480469 262.484375 186.890625 262.148438 187.265625 C 261.8125 187.636719 261.511719 188.011719 261.25 188.347656 C 260.953125 188.683594 260.652344 189.023438 260.351562 189.320312 C 259.753906 189.992188 259.15625 190.667969 258.445312 191.488281 C 258.109375 191.902344 257.699219 192.3125 257.25 192.796875 C 256.800781 193.285156 256.351562 193.808594 255.828125 194.367188 C 255.753906 194.367188 255.867188 194.183594 256.089844 193.882812 C 255.792969 194.257812 255.417969 194.628906 255.007812 195.078125 C 254.59375 195.492188 254.144531 195.902344 253.699219 196.351562 C 253.25 196.800781 252.800781 197.210938 252.351562 197.660156 C 252.128906 197.882812 251.941406 198.070312 251.714844 198.292969 C 251.492188 198.480469 251.304688 198.707031 251.117188 198.894531 C 250.96875 198.894531 250.820312 198.894531 250.445312 199.117188 C 240.164062 208.015625 227.898438 214.859375 214.511719 218.636719 C 213.503906 218.898438 212.53125 219.195312 211.523438 219.457031 C 210.511719 219.683594 209.539062 219.90625 208.53125 220.128906 C 208.042969 220.242188 207.519531 220.355469 207.035156 220.46875 C 206.546875 220.542969 206.023438 220.652344 205.539062 220.730469 C 204.53125 220.914062 203.558594 221.066406 202.546875 221.253906 C 201.6875 221.363281 200.828125 221.476562 199.96875 221.589844 C 199.109375 221.699219 198.246094 221.851562 197.351562 221.925781 C 196.453125 222 195.59375 222.074219 194.695312 222.113281 C 193.796875 222.1875 192.902344 222.261719 192.003906 222.261719 C 191.105469 222.300781 190.246094 222.375 189.5 222.449219 C 188.75 222.523438 188.152344 222.636719 187.703125 222.636719 C 186.542969 222.5625 185.347656 222.523438 184.152344 222.449219 C 183.851562 222.449219 183.554688 222.410156 183.253906 222.410156 C 182.957031 222.375 182.65625 222.335938 182.355469 222.300781 C 181.757812 222.222656 181.160156 222.1875 180.523438 222.113281 C 179.925781 222.039062 179.292969 222 178.65625 221.925781 C 178.019531 221.851562 177.421875 221.738281 176.75 221.625 C 176.113281 221.515625 175.476562 221.4375 174.804688 221.328125 C 174.46875 221.289062 174.132812 221.253906 173.792969 221.175781 C 173.457031 221.101562 173.121094 221.027344 172.785156 220.992188 C 172.375 220.953125 171.699219 220.839844 170.914062 220.730469 C 170.167969 220.617188 169.269531 220.503906 168.410156 220.355469 C 167.4375 220.019531 166.390625 219.71875 165.269531 219.382812 C 164.859375 219.308594 164.410156 219.160156 164 219.046875 L 162.765625 218.671875 C 161.941406 218.449219 161.121094 218.1875 160.257812 217.960938 C 159.4375 217.664062 158.613281 217.402344 157.828125 217.101562 L 156.59375 216.691406 L 155.996094 216.464844 L 155.398438 216.242188 C 152.183594 215.007812 149.042969 213.664062 146.015625 212.054688 L 146.015625 212.089844 C 145.265625 211.71875 144.480469 211.304688 143.695312 210.894531 C 142.910156 210.484375 142.125 209.996094 141.339844 209.550781 C 139.730469 208.652344 138.160156 207.566406 136.515625 206.519531 C 135.695312 205.996094 134.945312 205.398438 134.125 204.839844 L 132.925781 203.976562 C 132.515625 203.679688 132.140625 203.417969 131.769531 203.117188 C 130.273438 201.882812 128.703125 200.726562 127.28125 199.417969 C 126.570312 198.78125 125.859375 198.183594 125.148438 197.546875 C 124.476562 196.910156 123.804688 196.277344 123.167969 195.640625 C 122.195312 194.742188 121.300781 193.808594 120.4375 192.910156 L 119.054688 191.414062 C 118.570312 190.890625 118.15625 190.332031 117.671875 189.808594 L 116.324219 188.160156 L 115.652344 187.339844 L 115.015625 186.480469 C 115.203125 186.890625 115.203125 187.039062 115.167969 187.152344 C 115.355469 187.339844 115.503906 187.5625 115.691406 187.789062 C 115.878906 188.011719 116.0625 188.238281 116.289062 188.460938 C 116.625 188.835938 116.960938 189.246094 117.296875 189.621094 C 116.027344 188.238281 114.90625 187.003906 114.007812 185.957031 C 113.632812 185.433594 113.261719 184.871094 112.886719 184.3125 C 112.511719 183.710938 112.136719 183.113281 111.765625 182.515625 C 111.390625 181.917969 110.980469 181.28125 110.566406 180.648438 C 110.195312 180.011719 109.78125 179.339844 109.371094 178.664062 C 107.238281 175.410156 105.445312 171.933594 103.726562 168.457031 L 102.527344 165.765625 L 101.929688 164.417969 L 101.40625 163.035156 C 101.070312 162.136719 100.695312 161.203125 100.359375 160.304688 C 100.023438 159.371094 99.761719 158.4375 99.425781 157.503906 C 99.164062 156.902344 99.238281 157.464844 99.164062 157.539062 C 98.15625 154.25 97.40625 150.847656 96.734375 147.40625 C 95.460938 141.273438 94.828125 134.957031 94.828125 128.597656 C 94.75 127.851562 94.75 127.105469 94.75 126.355469 C 94.75 125.609375 94.714844 124.859375 94.714844 124.113281 C 94.789062 123.703125 94.828125 123.214844 94.902344 122.691406 C 94.976562 122.167969 95.050781 121.605469 95.125 120.972656 L 95.273438 119.175781 C 95.3125 118.578125 95.351562 117.980469 95.460938 117.417969 C 95.613281 116.222656 95.796875 115.0625 95.949219 113.867188 C 95.984375 113.457031 96.058594 113.046875 96.171875 112.597656 C 96.246094 112.148438 96.320312 111.699219 96.433594 111.25 C 96.507812 110.765625 96.621094 110.277344 96.695312 109.792969 C 96.769531 109.269531 96.882812 108.746094 96.996094 108.222656 C 97.257812 107.136719 97.519531 106.015625 97.78125 104.855469 C 97.894531 104.257812 98.078125 103.660156 98.265625 103.0625 C 98.453125 102.464844 98.601562 101.828125 98.789062 101.191406 C 100.25 96.144531 102.378906 90.535156 105.109375 85.078125 C 105.445312 84.21875 105.746094 83.542969 105.929688 83.171875 C 106.34375 82.386719 106.792969 81.636719 107.203125 80.890625 C 107.652344 80.140625 108.027344 79.394531 108.511719 78.683594 C 108.960938 77.972656 109.410156 77.261719 109.859375 76.550781 C 110.304688 75.839844 110.753906 75.167969 111.242188 74.496094 C 111.652344 73.898438 112.0625 73.335938 112.4375 72.777344 C 112.847656 72.214844 113.222656 71.617188 113.632812 71.09375 C 114.492188 70.007812 115.316406 68.925781 116.101562 67.878906 C 116.960938 66.867188 117.820312 65.859375 118.605469 64.886719 C 118.792969 64.625 119.019531 64.398438 119.242188 64.175781 C 119.46875 63.953125 119.652344 63.726562 119.878906 63.503906 C 120.289062 63.054688 120.699219 62.605469 121.113281 62.15625 C 121.898438 61.257812 122.757812 60.472656 123.542969 59.6875 C 123.917969 59.316406 124.328125 58.941406 124.703125 58.566406 C 124.886719 58.378906 125.074219 58.195312 125.261719 58.007812 C 125.449219 57.820312 125.636719 57.671875 125.824219 57.519531 C 127.320312 56.210938 128.589844 54.976562 129.75 54.082031 C 131.09375 52.957031 130.984375 52.882812 130.085938 53.40625 C 129.636719 53.667969 129 54.082031 128.214844 54.566406 C 127.46875 55.089844 126.609375 55.726562 125.75 56.398438 C 125.300781 56.734375 124.851562 57.070312 124.402344 57.410156 C 123.953125 57.78125 123.542969 58.117188 123.132812 58.457031 C 122.308594 59.164062 121.484375 59.800781 120.8125 60.363281 C 119.503906 61.519531 118.644531 62.230469 118.867188 61.894531 C 121.1875 58.53125 125.074219 54.453125 130.683594 50.117188 C 133.527344 47.984375 136.703125 45.707031 140.40625 43.574219 C 142.199219 42.453125 144.21875 41.441406 146.238281 40.320312 C 148.332031 39.3125 150.464844 38.226562 152.78125 37.253906 C 155.324219 36.171875 154.390625 36.507812 152.78125 37.066406 C 151.996094 37.367188 151.023438 37.703125 150.238281 37.964844 C 149.453125 38.265625 148.894531 38.488281 148.816406 38.488281 C 149.191406 38.265625 149.601562 38.039062 150.050781 37.742188 C 150.5 37.480469 151.023438 37.253906 151.546875 36.992188 C 153.230469 36.320312 154.875 35.609375 156.59375 35.050781 L 158.089844 34.527344 C 158.578125 34.339844 159.101562 34.152344 159.585938 34.039062 L 162.613281 33.140625 C 162.089844 33.292969 161.53125 33.441406 161.007812 33.589844 C 157.792969 34.527344 154.6875 35.648438 151.921875 36.84375 C 152.371094 36.621094 152.855469 36.394531 153.34375 36.171875 C 153.976562 35.871094 154.613281 35.574219 155.285156 35.3125 C 155.960938 35.050781 156.671875 34.75 157.34375 34.488281 L 158.390625 34.078125 L 158.914062 33.851562 L 159.4375 33.664062 C 160.859375 33.179688 162.242188 32.695312 163.511719 32.246094 C 156.296875 34.078125 149.304688 36.730469 142.6875 40.171875 L 141.453125 40.808594 C 141.039062 41.03125 140.628906 41.253906 140.21875 41.480469 L 137.789062 42.863281 C 136.964844 43.3125 136.21875 43.835938 135.433594 44.359375 L 133.414062 46.003906 L 131.132812 47.648438 C 130.382812 48.210938 129.597656 48.734375 128.890625 49.332031 C 127.429688 50.492188 125.933594 51.613281 124.550781 52.882812 L 122.457031 54.714844 L 120.4375 56.660156 C 119.054688 57.933594 117.820312 59.316406 116.550781 60.660156 C 116.25 60.996094 115.914062 61.335938 115.617188 61.671875 L 114.71875 62.71875 L 112.886719 64.847656 C 112.289062 65.558594 111.726562 66.308594 111.167969 67.054688 L 110.304688 68.175781 C 110.007812 68.550781 109.746094 68.925781 109.484375 69.296875 C 105.109375 75.355469 101.40625 81.863281 98.492188 88.742188 C 100.695312 83.582031 103.425781 78.722656 106.453125 74.160156 C 109.484375 69.636719 112.847656 65.410156 116.4375 61.597656 C 113.183594 65.183594 110.15625 69.035156 107.425781 73.039062 C 104.734375 77.074219 102.304688 81.339844 100.171875 85.75 L 98.640625 89.078125 C 98.378906 89.636719 98.15625 90.199219 97.929688 90.761719 L 97.257812 92.480469 C 97.03125 93.042969 96.808594 93.601562 96.582031 94.199219 L 95.386719 97.714844 L 95.089844 98.574219 L 94.828125 99.472656 C 94.488281 100.667969 94.152344 101.828125 93.816406 103.023438 C 93.519531 104.222656 93.257812 105.417969 92.957031 106.613281 C 92.808594 107.210938 92.65625 107.808594 92.546875 108.410156 L 92.210938 110.242188 L 91.871094 112.074219 C 91.835938 112.371094 91.761719 112.671875 91.722656 112.96875 L 91.609375 113.90625 L 91.125 117.832031 L 90.824219 121.757812 L 90.75 122.730469 C 90.75 123.066406 90.75 123.402344 90.714844 123.703125 L 90.675781 125.644531 L 90.640625 127.628906 C 90.640625 128.300781 90.675781 128.9375 90.675781 129.609375 L 90.75 131.589844 C 90.789062 132.261719 90.789062 132.898438 90.824219 133.570312 L 91.125 137.5 C 91.164062 137.835938 91.199219 138.132812 91.238281 138.46875 L 91.347656 139.441406 L 91.609375 141.386719 L 91.722656 142.359375 L 91.796875 142.84375 L 91.871094 143.332031 L 92.210938 145.273438 C 94.003906 155.632812 97.59375 165.578125 102.453125 174.8125 C 102.003906 174.066406 101.519531 173.207031 101.035156 172.347656 C 100.546875 171.449219 100.023438 170.550781 99.574219 169.542969 C 99.761719 169.953125 99.949219 170.363281 100.171875 170.777344 L 100.808594 172.007812 L 102.082031 174.476562 C 102.492188 175.300781 102.976562 176.085938 103.425781 176.871094 C 103.875 177.65625 104.324219 178.476562 104.808594 179.261719 L 106.304688 181.582031 C 106.792969 182.367188 107.277344 183.152344 107.839844 183.863281 C 108.921875 185.359375 109.933594 186.890625 111.089844 188.3125 C 111.800781 189.171875 112.511719 190.03125 113.261719 190.890625 L 115.503906 193.359375 C 114.941406 192.796875 113.632812 191.378906 112.699219 190.367188 C 119.914062 199.15625 128.550781 206.707031 138.160156 212.539062 C 147.734375 218.410156 158.277344 222.410156 168.933594 224.65625 C 167.214844 224.316406 166.355469 224.167969 165.570312 224.054688 C 166.128906 224.167969 166.726562 224.316406 167.289062 224.429688 C 167.851562 224.542969 168.449219 224.691406 169.046875 224.804688 C 170.617188 225.066406 172.1875 225.367188 173.757812 225.589844 C 175.328125 225.777344 176.898438 225.964844 178.429688 226.152344 C 176.898438 226 175.328125 225.8125 173.757812 225.628906 C 172.1875 225.402344 170.617188 225.101562 169.082031 224.839844 C 168.449219 224.765625 167.8125 224.578125 167.175781 224.46875 C 166.542969 224.316406 165.90625 224.207031 165.269531 224.054688 C 164.894531 224.019531 164.484375 223.945312 164 223.832031 C 163.511719 223.71875 162.914062 223.53125 162.128906 223.269531 C 156.371094 221.738281 151.136719 219.757812 147.472656 217.925781 C 145.675781 217.101562 143.996094 216.128906 142.3125 215.234375 C 141.453125 214.785156 140.628906 214.261719 139.808594 213.8125 C 138.984375 213.324219 138.160156 212.839844 137.339844 212.351562 C 136.554688 211.828125 135.769531 211.304688 134.945312 210.820312 C 134.160156 210.296875 133.375 209.8125 132.628906 209.25 C 131.09375 208.164062 129.5625 207.117188 128.140625 205.960938 C 122.347656 201.433594 117.222656 196.460938 113 191.117188 C 111.054688 188.609375 111.652344 189.171875 112.699219 190.40625 C 112.175781 189.730469 111.613281 189.023438 111.089844 188.347656 L 109.859375 186.851562 L 108.699219 185.28125 C 107.949219 184.234375 107.128906 183.226562 106.417969 182.105469 C 105.707031 181.019531 104.960938 179.9375 104.285156 178.8125 C 103.613281 177.691406 102.976562 176.535156 102.304688 175.410156 C 99.5 170.214844 97.183594 164.792969 95.386719 159.257812 C 95.199219 158.734375 95.011719 158.175781 94.828125 157.652344 C 94.640625 157.128906 94.488281 156.566406 94.339844 156.007812 C 94.527344 156.53125 94.640625 157.089844 94.828125 157.652344 C 90.488281 143.332031 89.480469 128.261719 91.574219 113.832031 C 91.6875 112.746094 91.910156 111.699219 92.097656 110.613281 L 92.359375 109.007812 C 92.433594 108.484375 92.546875 107.921875 92.65625 107.398438 C 93.144531 105.269531 93.554688 103.136719 94.191406 101.042969 C 95.3125 96.816406 96.808594 92.703125 98.453125 88.703125 L 98.15625 89.375 L 97.894531 90.050781 L 97.332031 91.433594 C 96.957031 92.367188 96.582031 93.265625 96.246094 94.238281 C 95.910156 95.171875 95.613281 96.144531 95.273438 97.078125 L 94.789062 98.5 L 94.378906 99.957031 L 93.554688 102.835938 C 93.292969 103.808594 93.105469 104.78125 92.84375 105.753906 L 92.507812 107.210938 L 92.320312 107.960938 L 92.171875 108.707031 L 91.648438 111.660156 C 91.460938 112.632812 91.3125 113.644531 91.199219 114.652344 L 90.789062 117.644531 C 90.714844 118.652344 90.640625 119.625 90.527344 120.636719 C 90.453125 121.644531 90.339844 122.617188 90.339844 123.625 C 90.300781 124.636719 90.265625 125.609375 90.226562 126.617188 C 90.226562 127.105469 90.191406 127.628906 90.191406 128.113281 L 90.226562 129.609375 C 90.226562 130.617188 90.265625 131.589844 90.265625 132.601562 C 90.300781 133.609375 90.378906 134.582031 90.453125 135.554688 C 89.332031 125.046875 90.152344 113.308594 93.105469 101.941406 C 91.085938 109.269531 90.003906 116.894531 89.742188 124.5625 C 89.703125 125.308594 89.667969 126.019531 89.667969 126.730469 C 89.667969 127.105469 89.628906 127.441406 89.628906 127.8125 C 89.628906 128.1875 89.628906 128.523438 89.628906 128.898438 C 89.628906 130.320312 89.667969 131.738281 89.667969 133.085938 C 89.742188 134.433594 89.816406 135.742188 89.855469 136.9375 C 89.890625 138.132812 90.039062 139.253906 90.078125 140.265625 C 89.21875 132.785156 89.21875 126.503906 89.515625 120.597656 C 88.546875 133.460938 89.964844 146.734375 94.042969 159.410156 C 94.226562 160.042969 94.453125 160.644531 94.640625 161.277344 C 94.75 161.578125 94.828125 161.914062 94.9375 162.214844 C 95.050781 162.511719 95.164062 162.8125 95.273438 163.109375 C 95.164062 162.8125 95.050781 162.511719 94.9375 162.214844 L 94.640625 161.277344 C 94.453125 160.679688 94.226562 160.042969 94.042969 159.445312 C 91.796875 152.527344 90.152344 145.199219 89.40625 137.722656 C 88.65625 130.246094 88.808594 122.691406 89.855469 115.511719 L 89.742188 116.785156 C 89.703125 117.195312 89.667969 117.644531 89.628906 118.054688 C 89.59375 118.914062 89.554688 119.773438 89.480469 120.636719 C 89.667969 117.71875 90.078125 114.839844 90.488281 111.960938 C 90.75 110.539062 91.011719 109.117188 91.273438 107.699219 C 91.609375 106.277344 91.949219 104.894531 92.246094 103.472656 C 93.667969 97.863281 95.574219 92.40625 97.894531 87.171875 C 100.210938 81.9375 102.976562 76.925781 106.15625 72.175781 C 109.335938 67.464844 112.921875 63.015625 116.8125 58.867188 C 116.25 59.390625 115.691406 59.949219 115.128906 60.511719 C 114.570312 61.074219 114.007812 61.707031 113.445312 62.34375 C 112.886719 62.980469 112.289062 63.613281 111.726562 64.289062 C 111.167969 65 110.605469 65.671875 110.042969 66.417969 C 107.761719 69.296875 105.59375 72.550781 103.539062 75.917969 C 99.5 82.722656 96.246094 90.199219 93.890625 96.78125 C 97.59375 84.890625 103.761719 73.449219 112.027344 63.539062 C 120.253906 53.59375 130.570312 45.183594 142.089844 39.085938 C 153.605469 32.953125 166.316406 29.214844 179.105469 27.980469 C 185.496094 27.347656 191.890625 27.347656 198.210938 27.871094 C 204.492188 28.429688 210.699219 29.589844 216.644531 31.273438 L 213.464844 30.375 C 212.417969 30.074219 211.335938 29.851562 210.25 29.589844 C 208.117188 29.027344 205.949219 28.691406 203.78125 28.28125 C 199.445312 27.609375 195.070312 27.121094 190.65625 27.046875 C 186.246094 26.859375 181.832031 27.085938 177.421875 27.457031 C 176.335938 27.570312 175.214844 27.71875 174.132812 27.832031 C 173.570312 27.90625 173.007812 27.945312 172.484375 28.058594 L 170.839844 28.320312 C 169.757812 28.503906 168.636719 28.65625 167.550781 28.878906 C 166.464844 29.105469 165.382812 29.367188 164.296875 29.589844 C 165.121094 29.402344 165.980469 29.214844 166.839844 29.027344 C 167.289062 28.917969 167.699219 28.804688 168.148438 28.730469 C 168.597656 28.65625 169.046875 28.542969 169.496094 28.46875 C 170.429688 28.28125 171.328125 28.132812 172.261719 27.945312 C 172.375 27.90625 172.523438 27.90625 172.636719 27.871094 C 167.4375 28.691406 162.429688 29.851562 157.492188 31.460938 C 156.070312 31.945312 154.652344 32.429688 153.230469 32.917969 C 151.957031 33.441406 150.6875 33.925781 149.417969 34.449219 C 153.902344 32.542969 158.464844 30.9375 163.175781 29.703125 C 170.953125 27.644531 178.953125 26.523438 186.917969 26.261719 C 188.117188 26.1875 189.199219 26.226562 190.210938 26.226562 C 191.179688 26.226562 192.078125 26.226562 192.828125 26.226562 C 194.359375 26.261719 195.519531 26.300781 196.304688 26.300781 C 197.910156 26.300781 198.136719 26.1875 197.539062 26 C 196.9375 25.8125 195.445312 25.589844 193.648438 25.363281 C 192.75 25.253906 191.742188 25.214844 190.734375 25.179688 C 189.722656 25.140625 188.675781 25.066406 187.703125 25.101562 C 185.234375 25.179688 182.769531 25.179688 180.300781 25.441406 C 179.703125 25.476562 179.066406 25.550781 178.46875 25.589844 C 178.167969 25.625 177.871094 25.625 177.570312 25.664062 L 176.675781 25.777344 C 175.476562 25.925781 174.242188 26.074219 173.046875 26.226562 C 171.851562 26.410156 170.652344 26.636719 169.457031 26.859375 C 168.859375 26.972656 168.261719 27.085938 167.664062 27.195312 C 167.066406 27.308594 166.503906 27.457031 165.90625 27.609375 C 164.746094 27.871094 163.550781 28.132812 162.390625 28.429688 C 161.230469 28.765625 160.074219 29.066406 158.949219 29.402344 C 154.390625 30.785156 149.902344 32.394531 145.640625 34.414062 L 144.03125 35.125 C 143.507812 35.386719 142.984375 35.648438 142.460938 35.910156 C 141.414062 36.433594 140.367188 36.957031 139.320312 37.515625 C 137.300781 38.714844 135.246094 39.796875 133.300781 41.105469 C 117.597656 51.125 104.882812 65.335938 96.882812 82.125 C 96.660156 82.609375 96.398438 83.09375 96.171875 83.617188 L 95.535156 85.113281 C 95.125 86.125 94.675781 87.132812 94.265625 88.144531 C 93.890625 89.152344 93.519531 90.199219 93.144531 91.210938 C 92.957031 91.734375 92.769531 92.21875 92.582031 92.742188 L 92.097656 94.3125 L 91.085938 97.453125 L 90.378906 100.59375 L 89.964844 102.164062 L 89.628906 103.773438 L 88.917969 106.988281 C 87.273438 115.585938 86.714844 124.410156 87.199219 133.160156 C 87.386719 135.628906 87.5 138.359375 87.871094 141.125 C 87.945312 141.796875 88.023438 142.507812 88.132812 143.21875 C 88.246094 143.929688 88.359375 144.601562 88.46875 145.273438 C 88.582031 145.949219 88.695312 146.660156 88.84375 147.332031 C 88.917969 147.667969 88.957031 148.003906 89.03125 148.339844 C 89.105469 148.679688 89.179688 149.015625 89.253906 149.351562 C 89.554688 150.660156 89.855469 151.96875 90.117188 153.203125 C 90.453125 154.4375 90.789062 155.59375 91.085938 156.679688 C 91.238281 157.242188 91.386719 157.765625 91.535156 158.25 C 91.722656 158.734375 91.871094 159.222656 92.023438 159.671875 C 92.320312 160.566406 92.621094 161.351562 92.84375 162.0625 C 95.574219 169.207031 99.203125 176.085938 103.574219 182.589844 C 105.746094 185.882812 108.175781 188.945312 110.71875 192.011719 C 111.351562 192.761719 112.0625 193.507812 112.699219 194.257812 C 113.371094 195.003906 114.007812 195.753906 114.753906 196.460938 C 116.175781 197.882812 117.558594 199.339844 119.054688 200.6875 C 119.804688 201.359375 120.515625 202.070312 121.300781 202.746094 C 122.085938 203.378906 122.871094 204.054688 123.617188 204.6875 C 123.992188 205.023438 124.402344 205.363281 124.777344 205.660156 L 126.011719 206.59375 C 126.832031 207.230469 127.617188 207.828125 128.441406 208.464844 C 131.804688 210.820312 135.207031 213.136719 138.910156 215.082031 C 140.703125 216.128906 142.613281 217.027344 144.480469 217.960938 C 144.929688 218.1875 145.414062 218.410156 145.902344 218.636719 L 147.359375 219.269531 L 148.816406 219.90625 L 149.527344 220.242188 L 150.277344 220.542969 C 151.25 220.914062 152.257812 221.289062 153.230469 221.664062 L 153.976562 221.960938 C 154.238281 222.039062 154.464844 222.113281 154.726562 222.222656 L 156.257812 222.710938 L 157.792969 223.195312 C 158.316406 223.382812 158.800781 223.53125 159.324219 223.683594 C 160.371094 223.980469 161.382812 224.242188 162.429688 224.542969 C 169.832031 226.5625 177.644531 227.644531 185.535156 227.796875 C 186.507812 227.796875 187.515625 227.871094 188.488281 227.832031 C 189.460938 227.796875 190.472656 227.757812 191.441406 227.757812 L 192.9375 227.722656 C 193.425781 227.722656 193.910156 227.644531 194.433594 227.609375 C 195.40625 227.535156 196.414062 227.460938 197.425781 227.347656 L 198.171875 227.273438 C 198.433594 227.234375 198.660156 227.199219 198.921875 227.160156 L 200.417969 226.972656 C 201.390625 226.824219 202.398438 226.710938 203.371094 226.5625 L 206.324219 226 L 207.78125 225.738281 C 208.269531 225.664062 208.753906 225.515625 209.242188 225.402344 L 212.15625 224.691406 L 212.90625 224.503906 L 213.617188 224.28125 L 215.074219 223.871094 C 216.046875 223.570312 217.019531 223.347656 217.953125 223.007812 L 220.792969 222.039062 L 222.214844 221.550781 L 223.597656 220.992188 L 226.367188 219.867188 C 227.300781 219.457031 228.199219 219.046875 229.09375 218.636719 C 229.992188 218.222656 230.925781 217.8125 231.785156 217.328125 C 233.542969 216.390625 235.339844 215.496094 237.058594 214.484375 C 237.917969 213.960938 238.777344 213.511719 239.640625 212.953125 C 240.460938 212.429688 241.320312 211.867188 242.144531 211.34375 L 243.378906 210.519531 L 244.574219 209.660156 C 245.398438 209.101562 246.183594 208.503906 246.96875 207.941406 C 247.753906 207.34375 248.539062 206.707031 249.285156 206.109375 C 250.035156 205.472656 250.855469 204.914062 251.566406 204.238281 C 257.550781 199.117188 262.894531 193.433594 267.496094 187.300781 C 272.054688 181.171875 275.832031 174.625 278.863281 167.972656 C 281.890625 161.316406 284.132812 154.472656 285.628906 147.742188 C 287.160156 141.011719 287.984375 134.359375 288.285156 127.964844 C 288.246094 129.160156 288.132812 130.582031 288.023438 132.152344 Z M 91.011719 99.847656 C 91.3125 98.613281 91.609375 97.453125 91.984375 96.332031 C 92.359375 95.210938 92.734375 94.164062 93.070312 93.152344 C 93.441406 92.144531 93.890625 91.171875 94.265625 90.238281 C 95.875 86.460938 97.667969 83.28125 99.464844 79.804688 C 101.96875 75.09375 104.808594 70.53125 108.027344 66.269531 C 108.847656 65.222656 109.671875 64.175781 110.457031 63.089844 C 111.316406 62.082031 112.175781 61.074219 113.035156 60.0625 C 113.445312 59.539062 113.894531 59.054688 114.382812 58.605469 L 115.726562 57.148438 C 116.175781 56.660156 116.625 56.175781 117.109375 55.726562 C 117.597656 55.277344 118.046875 54.828125 118.53125 54.34375 C 119.46875 53.445312 120.402344 52.511719 121.410156 51.648438 C 122.382812 50.789062 123.355469 49.929688 124.363281 49.070312 C 125.375 48.246094 126.382812 47.460938 127.394531 46.640625 C 127.878906 46.230469 128.441406 45.855469 128.925781 45.480469 C 129.449219 45.105469 129.972656 44.734375 130.496094 44.359375 C 131.019531 43.984375 131.507812 43.609375 132.066406 43.238281 C 132.589844 42.902344 133.113281 42.527344 133.675781 42.191406 C 134.757812 41.515625 135.769531 40.769531 136.851562 40.171875 C 137.9375 39.535156 139.023438 38.898438 140.070312 38.300781 C 141.152344 37.742188 142.273438 37.144531 143.359375 36.582031 C 137.675781 39.460938 132.292969 42.863281 127.28125 46.753906 C 130.648438 44.171875 134.011719 41.964844 137.488281 39.910156 C 138.085938 39.574219 138.683594 39.238281 139.246094 38.898438 L 140.144531 38.375 L 141.039062 37.929688 C 142.273438 37.328125 143.472656 36.695312 144.742188 36.058594 C 146.015625 35.496094 147.324219 34.9375 148.632812 34.339844 C 149.941406 33.777344 151.324219 33.292969 152.707031 32.769531 C 151.882812 33.140625 150.835938 33.589844 149.679688 34.078125 C 149.078125 34.300781 148.519531 34.601562 147.921875 34.863281 C 147.324219 35.125 146.722656 35.421875 146.125 35.683594 C 145.527344 35.984375 144.96875 36.207031 144.40625 36.507812 C 143.882812 36.804688 143.359375 37.066406 142.910156 37.328125 C 142.011719 37.816406 141.265625 38.265625 140.890625 38.527344 C 142.164062 37.851562 143.433594 37.179688 144.742188 36.582031 C 143.433594 37.253906 142.125 37.929688 140.777344 38.636719 C 140.816406 38.601562 140.855469 38.601562 140.890625 38.5625 C 128.402344 45.367188 117.335938 54.828125 108.625 66.046875 C 104.285156 71.652344 100.472656 77.671875 97.40625 83.992188 C 94.339844 90.347656 91.910156 96.96875 90.191406 103.734375 C 90.378906 102.351562 90.714844 101.082031 91.011719 99.847656 Z M 148.707031 34.824219 C 147.585938 35.347656 146.425781 35.871094 145.265625 36.394531 C 146.386719 35.871094 147.546875 35.347656 148.707031 34.824219 Z M 127.132812 46.9375 C 126.644531 47.3125 126.160156 47.6875 125.671875 48.097656 C 126.160156 47.6875 126.644531 47.3125 127.132812 46.9375 Z M 137.601562 49.332031 C 138.835938 48.621094 140.105469 47.800781 141.527344 47.089844 L 140.179688 47.875 L 138.871094 48.695312 C 138.011719 49.257812 137.152344 49.816406 136.292969 50.378906 C 134.648438 51.574219 132.925781 52.734375 131.320312 54.042969 C 128.066406 56.546875 125.039062 59.351562 122.121094 62.304688 L 119.992188 64.550781 C 119.617188 64.921875 119.316406 65.335938 118.980469 65.707031 L 117.972656 66.867188 L 116.960938 68.027344 C 116.625 68.402344 116.324219 68.851562 115.988281 69.261719 C 115.355469 70.082031 114.71875 70.90625 114.082031 71.730469 C 113.484375 72.589844 112.886719 73.410156 112.289062 74.269531 C 111.988281 74.683594 111.691406 75.132812 111.390625 75.542969 L 110.566406 76.851562 C 110.007812 77.75 109.445312 78.609375 108.886719 79.507812 C 108.363281 80.402344 107.839844 81.339844 107.316406 82.234375 L 107.277344 82.234375 C 110.492188 76.328125 115.242188 69.597656 120.402344 64.0625 C 121.039062 63.390625 121.710938 62.679688 122.308594 62.042969 C 122.609375 61.707031 122.945312 61.371094 123.28125 61.074219 C 123.617188 60.773438 123.917969 60.4375 124.253906 60.136719 C 124.886719 59.539062 125.488281 58.902344 126.121094 58.304688 C 126.757812 57.746094 127.355469 57.183594 127.953125 56.660156 C 128.253906 56.398438 128.550781 56.136719 128.8125 55.875 C 128.964844 55.761719 129.113281 55.613281 129.226562 55.5 C 129.375 55.390625 129.523438 55.277344 129.675781 55.128906 C 130.234375 54.640625 130.796875 54.191406 131.320312 53.742188 C 131.84375 53.296875 132.328125 52.882812 132.777344 52.472656 C 133.265625 52.097656 133.675781 51.726562 134.085938 51.386719 C 135.207031 50.789062 136.328125 50.042969 137.601562 49.332031 Z M 245.921875 49.742188 C 242.070312 46.828125 237.992188 44.171875 233.769531 41.816406 L 230.554688 40.132812 C 230.03125 39.835938 229.46875 39.609375 228.90625 39.347656 L 227.261719 38.5625 C 226.703125 38.300781 226.179688 38.039062 225.617188 37.816406 L 223.933594 37.144531 L 222.253906 36.46875 L 221.394531 36.132812 L 220.53125 35.835938 C 219.375 35.421875 218.214844 35.050781 217.09375 34.636719 C 215.933594 34.300781 214.738281 33.925781 213.578125 33.589844 C 212.417969 33.21875 211.222656 32.953125 210.027344 32.65625 C 208.828125 32.355469 207.632812 32.058594 206.4375 31.871094 C 206.960938 31.984375 207.519531 32.058594 208.042969 32.167969 L 209.613281 32.542969 C 210.660156 32.804688 211.707031 32.992188 212.753906 33.292969 C 214.8125 33.890625 216.941406 34.414062 218.960938 35.160156 C 223.074219 36.46875 227.074219 38.191406 230.964844 40.058594 C 235.9375 42.5625 240.609375 45.519531 244.949219 48.769531 C 249.285156 52.023438 253.210938 55.613281 256.765625 59.390625 C 253.359375 55.914062 249.734375 52.695312 245.921875 49.742188 Z M 162.726562 37.777344 C 163.550781 37.554688 164.371094 37.328125 165.195312 37.144531 C 166.019531 36.957031 166.878906 36.804688 167.738281 36.621094 C 169.421875 36.246094 171.140625 36.019531 172.824219 35.757812 C 171.101562 36.058594 169.421875 36.320312 167.738281 36.730469 C 166.914062 36.917969 166.054688 37.105469 165.234375 37.292969 C 164.410156 37.515625 163.585938 37.742188 162.765625 37.964844 C 163.363281 37.777344 162.800781 37.816406 162.726562 37.777344 Z M 195.96875 34.789062 C 196.378906 34.863281 196.828125 34.972656 197.351562 35.050781 C 197.875 35.125 198.433594 35.273438 199.035156 35.347656 L 198.097656 35.199219 L 197.613281 35.125 L 197.125 35.085938 C 196.492188 35.050781 195.855469 34.972656 195.257812 34.9375 C 194.621094 34.898438 193.984375 34.824219 193.386719 34.789062 C 193.089844 34.75 192.75 34.75 192.453125 34.75 L 191.519531 34.710938 C 193.011719 34.636719 194.472656 34.75 195.96875 34.789062 Z M 242.179688 52.324219 C 242.519531 52.546875 242.855469 52.808594 243.191406 53.035156 C 243.527344 53.257812 243.828125 53.558594 244.125 53.78125 C 243.339844 53.144531 242.519531 52.585938 241.695312 51.988281 C 241.285156 51.6875 240.871094 51.386719 240.460938 51.125 C 240.050781 50.828125 239.640625 50.527344 239.191406 50.265625 L 236.609375 48.621094 L 235.976562 48.210938 L 235.300781 47.835938 C 234.851562 47.574219 234.441406 47.351562 233.992188 47.089844 C 234.816406 47.5 235.488281 47.800781 235.863281 48.023438 C 236.609375 48.472656 237.320312 48.957031 238.03125 49.445312 C 238.40625 49.667969 238.742188 49.894531 239.117188 50.15625 C 239.488281 50.378906 239.824219 50.601562 240.164062 50.863281 C 240.835938 51.351562 241.507812 51.835938 242.179688 52.324219 Z M 242.179688 52.324219 " fill-opacity="1" fill-rule="nonzero"/></g><g clip-path="url(#6185b08e40)"><path fill="#bf953f" d="M 227.570312 95.738281 C 227.160156 92.707031 221.671875 92.707031 214.460938 97.132812 C 207.253906 101.558594 205.203125 110.976562 205.203125 110.976562 C 209.21875 100 218.476562 95.65625 222.738281 95.164062 C 226.996094 94.675781 226.421875 98.035156 225.441406 100.574219 C 224.457031 103.113281 221.097656 110.8125 206.023438 114.5 C 202.644531 115.328125 199.335938 116.339844 196.179688 117.453125 C 191.171875 119.511719 185.804688 121.890625 181.691406 124.25 C 172.84375 129.328125 164.050781 139.851562 163.339844 139.078125 C 162.441406 138.09375 167.578125 132.28125 172.1875 129.082031 C 176.128906 126.351562 185.25 121.300781 196.179688 117.453125 C 201.941406 115.082031 207.222656 113.132812 209.546875 112.125 C 213.890625 110.242188 219.296875 107.945312 222.738281 102.703125 C 226.179688 97.460938 224.539062 95.164062 218.886719 97.871094 C 213.234375 100.574219 211.101562 104.507812 211.101562 104.507812 C 215.445312 98.769531 225.605469 95.574219 222 101.230469 C 218.394531 106.882812 211.839844 109.667969 206.351562 112.289062 C 200.863281 114.910156 186.199219 119.90625 174.402344 126.378906 C 162.601562 132.851562 159.328125 141.371094 160.636719 142.847656 C 161.949219 144.320312 162.929688 143.257812 172.269531 134.328125 C 181.609375 125.398438 191.113281 118.105469 209.054688 115.15625 C 226.996094 112.207031 227.980469 98.769531 227.570312 95.738281 " fill-opacity="1" fill-rule="nonzero"/></g><g clip-path="url(#b3b0f3ba7a)"><path fill="#bf953f" d="M 203.175781 126.144531 C 188.492188 118.09375 174.867188 114.484375 181.488281 116.835938 C 192.417969 120.683594 201.484375 126.351562 205.425781 129.082031 C 210.039062 132.28125 215.175781 138.09375 214.273438 139.078125 C 213.566406 139.851562 204.773438 129.328125 195.921875 124.25 C 191.8125 121.890625 186.441406 119.511719 181.4375 117.453125 C 178.28125 116.339844 174.957031 115.375 171.589844 114.5 C 160.011719 111.488281 152.980469 103.4375 152.085938 101.503906 C 155.375 105.039062 162.378906 108.539062 162.378906 108.539062 C 155.835938 103.347656 154.328125 99.628906 154.328125 99.628906 C 156.171875 101.902344 163.605469 107.375 163.605469 107.375 C 162.132812 105.835938 157.953125 100.367188 157.953125 100.367188 C 167.355469 109.707031 176.140625 113.949219 176.140625 113.949219 C 162.746094 105.40625 152.914062 92.441406 152.914062 92.441406 C 153.960938 96.253906 156.601562 100.183594 156.601562 100.183594 C 154.023438 98.402344 149.660156 93.609375 149.660156 93.609375 C 150.703125 96.480469 153.960938 101.609375 154.917969 103.089844 C 151.910156 100.644531 146.824219 94.839844 147.386719 95.699219 C 148.429688 97.296875 153.777344 112.597656 168.5625 115.15625 C 186.476562 118.257812 196.003906 125.398438 205.34375 134.328125 C 214.683594 143.257812 215.667969 144.320312 216.980469 142.847656 C 218.289062 141.371094 214.976562 132.613281 203.175781 126.144531 " fill-opacity="1" fill-rule="nonzero"/></g><path fill="#bf953f" d="M 203.746094 61.375 C 203.746094 61.375 194.984375 54.855469 182.375 55.605469 C 169.765625 56.351562 163.140625 66.609375 166.027344 74.519531 C 168.515625 81.347656 177.46875 79.902344 180.183594 75.855469 C 182.800781 71.953125 181.796875 68.355469 180.132812 66.289062 C 178.449219 64.207031 177.566406 68.960938 179.597656 71.527344 C 181.628906 74.089844 186.007812 76.226562 190.710938 74.519531 C 195.414062 72.808594 200.433594 64.527344 206.527344 66.023438 C 212.617188 67.519531 212.296875 75.210938 209.089844 78.3125 C 205.886719 81.410156 200.648438 80.929688 197.65625 78.257812 C 194.664062 75.585938 198.886719 76.015625 198.777344 80.714844 C 198.671875 85.417969 196.425781 88.835938 198.832031 92.363281 C 201.417969 96.15625 203.285156 91.011719 198.15625 88.765625 L 198.910156 90.066406 C 198.910156 90.066406 201.183594 91.9375 200.300781 92.351562 C 199.195312 92.871094 198.671875 89.316406 199.652344 85.878906 C 200.351562 83.429688 201.34375 79.648438 198.726562 76.546875 C 196.429688 73.832031 194.128906 76.65625 198.191406 79.539062 C 202.25 82.425781 205.996094 82.683594 208.984375 81.320312 C 212.617188 79.664062 215.289062 73.554688 211.441406 68.035156 C 207.515625 62.398438 200.914062 63.566406 196.214844 67.25 C 193.949219 69.027344 188.75 75.230469 183.195312 72.984375 C 178.445312 71.070312 179.277344 67.414062 179.8125 67.839844 C 180.34375 68.265625 181.628906 70.671875 179.917969 74.089844 C 178.207031 77.511719 172.4375 79.21875 169.339844 75.265625 C 166.238281 71.3125 168.269531 62.550781 177.246094 58.808594 C 186.222656 55.070312 195.839844 57.742188 203.746094 61.375 " fill-opacity="1" fill-rule="nonzero"/><path fill="#bf953f" d="M 197.375 103.195312 C 198.199219 101.726562 198.601562 100.496094 198.652344 100.164062 C 198.652344 100.164062 200.945312 99.917969 202.089844 101.964844 C 203.167969 103.890625 199.761719 104.367188 197.375 103.195312 Z M 191.441406 107.535156 C 186.703125 109.683594 180.832031 106.949219 178.351562 103.199219 C 178.839844 103.027344 179.347656 102.835938 179.890625 102.621094 C 185.144531 100.554688 187.179688 102.292969 187.179688 102.292969 C 187.179688 102.292969 188.164062 100.984375 192.507812 102.785156 C 193.683594 103.273438 194.703125 103.761719 195.628906 104.1875 C 194.664062 105.441406 193.316406 106.6875 191.441406 107.535156 Z M 174.59375 98.722656 C 174.871094 99.804688 175.265625 100.980469 175.828125 102.148438 C 171.171875 103.929688 170.972656 99.167969 174.59375 98.722656 Z M 197.832031 99.671875 C 197.832031 99.671875 197.542969 101.058594 196.589844 102.734375 C 194.199219 101.230469 190.542969 98.8125 187.179688 99.671875 C 187.179688 99.671875 184.238281 97.9375 177.433594 101.382812 C 177.109375 100.578125 176.816406 99.726562 176.574219 98.875 C 177.207031 99.027344 177.902344 99.285156 178.660156 99.671875 C 178.660156 99.671875 177.863281 98.867188 176.441406 98.375 C 175.539062 94.878906 175.535156 91.378906 177.59375 90.167969 C 180.382812 88.53125 185.296875 87.382812 193.980469 88.777344 C 195.589844 89.035156 196.894531 89.355469 197.832031 89.691406 C 197.84375 89.941406 197.941406 90.191406 197.976562 90.367188 C 198.011719 90.53125 198.253906 90.753906 198.296875 90.902344 L 198.40625 90.546875 L 198.40625 87.234375 L 197.867188 87.191406 C 197.816406 87.71875 197.777344 88.210938 197.761719 88.65625 C 194.488281 87.660156 186.785156 85.75 180.21875 86.972656 C 173.171875 88.285156 173.949219 92.972656 173.949219 94.019531 C 173.949219 94.234375 173.960938 95.867188 174.425781 98.007812 C 174.3125 98.003906 174.203125 98 174.082031 98.003906 C 171.042969 98.0625 169.476562 101.441406 171.042969 103.113281 C 172.261719 104.417969 173.941406 104.546875 176.710938 103.738281 C 178.296875 106.226562 180.792969 108.449219 184.722656 109.339844 C 190.671875 110.683594 194.414062 107.558594 196.503906 104.582031 C 198.546875 105.472656 200.152344 105.886719 202.089844 104.996094 C 205.121094 103.605469 203.238281 98.933594 197.832031 99.671875 " fill-opacity="1" fill-rule="nonzero"/><g fill="#bf953f" fill-opacity="1"><g transform="translate(132.796973, 178.077279)"><g><path d="M 0 -3.898438 C 0 -1.386719 1.585938 0.664062 4.386719 0.664062 C 7.648438 0.664062 11.027344 -2.105469 13.421875 -4.097656 L 14.085938 -4.648438 C 14.316406 -4.820312 14.375 -5.050781 14.375 -5.226562 C 14.375 -5.457031 14.203125 -5.628906 13.972656 -5.628906 C 13.796875 -5.628906 13.625 -5.542969 13.453125 -5.398438 L 12.902344 -4.90625 C 10.882812 -3.089844 7.824219 -0.75 5.023438 -0.75 C 2.972656 -0.75 1.644531 -2.019531 1.644531 -4.070312 C 1.644531 -6.984375 4.359375 -10.855469 10.363281 -12.007812 C 10.738281 -12.039062 10.96875 -12.414062 10.96875 -12.789062 C 10.96875 -12.992188 10.910156 -13.191406 10.480469 -13.511719 C 9.671875 -14.117188 9.238281 -15.070312 9.238281 -16.019531 C 9.238281 -18.246094 11.71875 -20.582031 13.941406 -20.582031 C 14.578125 -20.582031 15.644531 -20.265625 15.644531 -19.457031 C 15.644531 -19.253906 15.5 -19.109375 15.386719 -18.996094 C 14.085938 -17.695312 12.585938 -15.644531 12.585938 -13.796875 C 12.585938 -12.703125 13.105469 -12.09375 13.886719 -12.09375 C 15.878906 -12.09375 16.972656 -16.453125 16.972656 -17.984375 C 16.972656 -19.023438 19.195312 -19.949219 20.0625 -20.035156 C 20.640625 -20.089844 20.898438 -20.4375 20.898438 -20.785156 C 20.898438 -21.074219 20.667969 -21.332031 20.265625 -21.332031 L 20.121094 -21.332031 C 19.082031 -21.332031 18.042969 -20.84375 17.175781 -20.324219 C 17.003906 -20.234375 16.859375 -20.148438 16.714844 -20.148438 C 16.597656 -20.148438 16.511719 -20.207031 16.367188 -20.46875 C 15.847656 -21.417969 14.722656 -21.910156 13.480469 -21.910156 C 10.652344 -21.910156 8.082031 -19.195312 8.082031 -16.308594 C 8.082031 -15.097656 8.542969 -13.886719 9.640625 -12.933594 C 2.945312 -11.664062 0 -7.332031 0 -3.898438 Z M 15.703125 -17.203125 C 15.761719 -17.203125 15.820312 -17.117188 15.820312 -16.945312 C 15.820312 -16.195312 14.695312 -13.105469 13.941406 -13.105469 C 13.796875 -13.105469 13.742188 -13.222656 13.742188 -13.394531 C 13.742188 -14.316406 15.214844 -17.203125 15.703125 -17.203125 Z M 15.703125 -17.203125 "/></g></g></g><g fill="#bf953f" fill-opacity="1"><g transform="translate(146.160662, 178.077279)"><g><path d="M -0.546875 -2.972656 C -0.546875 -1.875 0.0585938 -1.269531 1.039062 -1.269531 C 2.800781 -1.269531 5.109375 -3.058594 6.695312 -4.707031 C 6.785156 -4.820312 6.871094 -4.90625 6.871094 -5.023438 C 6.871094 -5.28125 6.609375 -5.484375 6.320312 -5.484375 C 6.207031 -5.484375 6.089844 -5.425781 5.976562 -5.3125 C 4.503906 -3.839844 2.597656 -2.453125 1.53125 -2.453125 C 1.039062 -2.453125 0.835938 -2.742188 0.835938 -3.261719 C 0.835938 -4.53125 2.078125 -6.378906 3.058594 -7.246094 C 5.457031 -9.382812 7.449219 -11.054688 8.515625 -12.414062 C 9.296875 -13.421875 9.640625 -14.261719 9.640625 -14.867188 C 9.640625 -15.53125 9.265625 -15.90625 8.660156 -15.90625 C 7.910156 -15.90625 6.8125 -15.359375 5.628906 -14.03125 L 4.1875 -12.210938 C 2.597656 -10.074219 -0.546875 -5.484375 -0.546875 -2.972656 Z M 4.359375 -9.929688 L 5.425781 -11.460938 L 6.898438 -13.277344 C 7.621094 -14.085938 8.113281 -14.433594 8.3125 -14.433594 C 8.402344 -14.433594 8.457031 -14.375 8.457031 -14.261719 C 8.457031 -13.335938 4.820312 -9.671875 4.359375 -9.671875 C 4.300781 -9.671875 4.273438 -9.699219 4.273438 -9.757812 C 4.273438 -9.785156 4.300781 -9.871094 4.359375 -9.929688 Z M 4.359375 -9.929688 "/></g></g></g><g fill="#bf953f" fill-opacity="1"><g transform="translate(152.106497, 178.077279)"><g><path d="M -0.867188 -3.03125 C -0.867188 -2.078125 -0.171875 -1.53125 0.808594 -1.53125 C 2.050781 -1.53125 3.609375 -2.195312 5.570312 -4.472656 L 5.746094 -4.675781 C 5.859375 -4.820312 5.945312 -4.9375 5.945312 -5.082031 C 5.945312 -5.3125 5.714844 -5.515625 5.457031 -5.515625 C 5.339844 -5.515625 5.195312 -5.457031 5.082031 -5.339844 L 4.878906 -5.167969 C 4.15625 -4.5625 2.136719 -2.511719 1.125 -2.511719 C 0.808594 -2.511719 0.578125 -2.714844 0.578125 -3.203125 C 0.578125 -3.320312 0.578125 -3.464844 0.605469 -3.523438 C 0.921875 -4.15625 2.195312 -5.945312 3.058594 -7.042969 L 3.78125 -7.9375 C 3.925781 -8.113281 3.984375 -8.3125 3.984375 -8.457031 C 3.984375 -8.804688 3.695312 -9.035156 3.378906 -9.035156 C 3.117188 -9.035156 2.800781 -8.890625 2.539062 -8.542969 L 1.820312 -7.621094 C 1.097656 -6.695312 -0.0859375 -5.339844 -0.578125 -4.273438 C -0.78125 -3.808594 -0.867188 -3.40625 -0.867188 -3.03125 Z M 3.695312 -10.046875 C 3.695312 -9.640625 4.011719 -9.324219 4.417969 -9.324219 C 4.820312 -9.324219 5.167969 -9.640625 5.167969 -10.046875 C 5.167969 -10.449219 4.820312 -10.796875 4.417969 -10.796875 C 4.011719 -10.796875 3.695312 -10.449219 3.695312 -10.046875 Z M 3.695312 -10.046875 "/></g></g></g><g fill="#bf953f" fill-opacity="1"><g transform="translate(157.128702, 178.077279)"><g><path d="M -1.5 -11.34375 C -1.5 -11.085938 -1.269531 -10.824219 -0.921875 -10.824219 C -0.78125 -10.824219 -0.636719 -10.855469 -0.316406 -11.027344 C 0.433594 -11.429688 1.242188 -11.632812 2.105469 -11.632812 C 2.800781 -11.632812 3.523438 -11.519531 4.332031 -11.375 L 3.867188 -10.765625 C 2.597656 -9.121094 -0.402344 -5.28125 -0.78125 -3.464844 C -0.808594 -3.289062 -0.835938 -3.148438 -0.835938 -3.003906 C -0.835938 -2.136719 -0.261719 -1.5 0.894531 -1.5 C 2.972656 -1.5 5.859375 -3.550781 7.015625 -4.707031 L 7.042969 -4.734375 C 7.160156 -4.820312 7.21875 -4.964844 7.21875 -5.050781 C 7.21875 -5.28125 6.984375 -5.457031 6.667969 -5.457031 C 6.523438 -5.457031 6.378906 -5.425781 6.292969 -5.339844 L 6.265625 -5.3125 C 5.371094 -4.359375 2.859375 -2.597656 1.53125 -2.597656 C 1.011719 -2.597656 0.78125 -2.886719 0.78125 -3.289062 C 0.78125 -3.40625 0.808594 -3.523438 0.835938 -3.667969 C 1.183594 -5.371094 3.984375 -8.660156 5.484375 -10.507812 L 5.976562 -11.113281 C 6.640625 -11 7.246094 -10.910156 7.5625 -10.910156 C 8.488281 -10.910156 11.375 -11.546875 11.375 -12.328125 C 11.375 -12.644531 11 -12.789062 10.765625 -12.789062 C 10.59375 -12.789062 10.449219 -12.730469 10.335938 -12.671875 C 9.238281 -12.125 8.632812 -11.863281 7.851562 -11.863281 C 7.503906 -11.863281 7.101562 -11.894531 6.640625 -11.949219 L 7.449219 -12.902344 C 7.5625 -13.019531 7.621094 -13.164062 7.621094 -13.308594 C 7.621094 -13.710938 7.21875 -13.972656 6.839844 -13.972656 C 6.609375 -13.972656 6.378906 -13.886719 6.0625 -13.511719 L 4.992188 -12.210938 L 4.332031 -12.328125 C 3.433594 -12.472656 2.65625 -12.644531 2.136719 -12.644531 C 1.210938 -12.644531 -1.5 -12.152344 -1.5 -11.34375 Z M -1.5 -11.34375 "/></g></g></g><g fill="#bf953f" fill-opacity="1"><g transform="translate(163.39203, 178.077279)"><g><path d="M 3.089844 -1.585938 C 5.714844 -1.585938 7.910156 -2.828125 9.84375 -4.707031 C 9.960938 -4.820312 9.988281 -4.9375 9.988281 -5.023438 C 9.988281 -5.28125 9.726562 -5.484375 9.46875 -5.484375 C 9.351562 -5.484375 9.207031 -5.425781 9.121094 -5.339844 C 7.59375 -3.808594 5.6875 -2.597656 3.550781 -2.597656 C 2.511719 -2.597656 1.445312 -2.886719 1.445312 -3.839844 C 1.445312 -4.1875 1.558594 -4.503906 2.019531 -4.589844 C 3.636719 -4.734375 7.707031 -5.425781 7.707031 -7.503906 C 7.707031 -8.457031 6.839844 -9.179688 5.570312 -9.179688 C 3.089844 -9.179688 -0.289062 -6.410156 -0.289062 -3.925781 C -0.289062 -2.570312 0.78125 -1.585938 3.089844 -1.585938 Z M 5.542969 -7.765625 C 5.945312 -7.765625 6.320312 -7.535156 6.320312 -7.1875 C 6.320312 -6.121094 3.320312 -5.714844 2.65625 -5.570312 L 2.511719 -5.542969 C 2.25 -5.542969 2.195312 -5.628906 2.195312 -5.746094 C 2.195312 -6.496094 4.617188 -7.765625 5.542969 -7.765625 Z M 5.542969 -7.765625 "/></g></g></g><g fill="#bf953f" fill-opacity="1"><g transform="translate(172.455086, 178.077279)"><g/></g></g><g fill="#bf953f" fill-opacity="1"><g transform="translate(182.499496, 178.077279)"><g><path d="M 0 1.53125 C 0 1.90625 0.316406 2.28125 1.097656 2.28125 C 3.523438 2.28125 7.101562 -1.445312 9.960938 -4.992188 C 11.460938 -6.839844 12.847656 -8.746094 14.261719 -10.679688 L 15.558594 -12.441406 C 17.695312 -15.359375 19.082031 -17.117188 20.179688 -18.300781 C 20.265625 -18.386719 20.351562 -18.445312 20.4375 -18.445312 C 20.582031 -18.445312 20.699219 -18.332031 20.667969 -18.128906 C 20.46875 -16.628906 19.457031 -7.21875 18.675781 -6.554688 C 17.609375 -5.65625 15.964844 -3.925781 15.964844 -2.425781 C 15.964844 -1.617188 16.453125 -1.15625 17.203125 -1.15625 C 19.253906 -1.15625 20.207031 -4.53125 20.378906 -5.917969 C 20.4375 -6.410156 20.554688 -6.785156 20.898438 -7.101562 C 25.203125 -11.027344 32.707031 -16.742188 36.34375 -18.792969 C 36.515625 -18.878906 36.660156 -18.910156 36.75 -18.910156 C 36.894531 -18.910156 36.949219 -18.820312 36.949219 -18.707031 C 36.949219 -18.621094 36.921875 -18.476562 36.835938 -18.359375 L 33.542969 -14.375 C 29.445312 -9.527344 24.683594 -3.898438 24.683594 -0.0585938 C 24.683594 0.546875 24.796875 1.183594 25.402344 1.183594 C 26.097656 1.183594 26.152344 0.316406 26.152344 0 C 26.152344 -3.289062 30.800781 -8.890625 34.8125 -13.683594 C 36.949219 -16.253906 38.914062 -18.589844 39.722656 -19.976562 C 39.921875 -20.324219 39.953125 -20.4375 39.953125 -20.523438 C 39.953125 -20.957031 39.492188 -21.273438 38.914062 -21.273438 C 38.683594 -21.273438 38.453125 -21.246094 38.046875 -21.042969 C 35.738281 -19.890625 26.816406 -13.972656 20.84375 -8.257812 C 20.785156 -8.199219 20.699219 -8.167969 20.640625 -8.167969 C 20.554688 -8.167969 20.46875 -8.226562 20.46875 -8.371094 C 20.46875 -8.402344 20.46875 -8.429688 20.523438 -8.601562 C 21.246094 -10.796875 21.738281 -18.792969 22.226562 -20.234375 L 22.257812 -20.324219 C 22.257812 -20.785156 21.96875 -21.074219 21.707031 -21.074219 C 20.46875 -21.074219 15.328125 -14.40625 14.460938 -13.25 L 13.191406 -11.519531 C 10.105469 -7.304688 4.386719 0.75 1.066406 0.75 C 0.347656 0.75 0 1.15625 0 1.53125 Z M 18.765625 -5.371094 C 18.792969 -5.371094 18.820312 -5.339844 18.820312 -5.226562 C 18.820312 -4.675781 17.925781 -2.425781 17.347656 -2.425781 C 17.203125 -2.425781 17.148438 -2.539062 17.148438 -2.683594 C 17.148438 -3.203125 18.246094 -5.371094 18.765625 -5.371094 Z M 18.765625 -5.371094 "/></g></g></g><g fill="#bf953f" fill-opacity="1"><g transform="translate(213.152265, 178.077279)"><g><path d="M 3.089844 -1.585938 C 5.714844 -1.585938 7.910156 -2.828125 9.84375 -4.707031 C 9.960938 -4.820312 9.988281 -4.9375 9.988281 -5.023438 C 9.988281 -5.28125 9.726562 -5.484375 9.46875 -5.484375 C 9.351562 -5.484375 9.207031 -5.425781 9.121094 -5.339844 C 7.59375 -3.808594 5.6875 -2.597656 3.550781 -2.597656 C 2.511719 -2.597656 1.445312 -2.886719 1.445312 -3.839844 C 1.445312 -4.1875 1.558594 -4.503906 2.019531 -4.589844 C 3.636719 -4.734375 7.707031 -5.425781 7.707031 -7.503906 C 7.707031 -8.457031 6.839844 -9.179688 5.570312 -9.179688 C 3.089844 -9.179688 -0.289062 -6.410156 -0.289062 -3.925781 C -0.289062 -2.570312 0.78125 -1.585938 3.089844 -1.585938 Z M 5.542969 -7.765625 C 5.945312 -7.765625 6.320312 -7.535156 6.320312 -7.1875 C 6.320312 -6.121094 3.320312 -5.714844 2.65625 -5.570312 L 2.511719 -5.542969 C 2.25 -5.542969 2.195312 -5.628906 2.195312 -5.746094 C 2.195312 -6.496094 4.617188 -7.765625 5.542969 -7.765625 Z M 5.542969 -7.765625 "/></g></g></g><g fill="#bf953f" fill-opacity="1"><g transform="translate(222.215321, 178.077279)"><g><path d="M -1.992188 -2.28125 C -1.992188 -1.933594 -1.703125 -1.617188 -1.328125 -1.617188 C -1.097656 -1.617188 -0.867188 -1.761719 -0.722656 -1.964844 L 1.558594 -5.253906 C 2.339844 -6.378906 4.214844 -7.96875 5.65625 -7.96875 C 6.0625 -7.96875 6.351562 -7.851562 6.351562 -7.503906 C 6.351562 -7.304688 6.292969 -7.042969 6.035156 -6.695312 L 4.792969 -4.964844 C 4.273438 -4.1875 4.042969 -3.492188 4.042969 -2.972656 C 4.042969 -2.136719 4.589844 -1.675781 5.425781 -1.675781 C 7.128906 -1.675781 9.007812 -3.578125 10.132812 -4.734375 C 10.21875 -4.851562 10.246094 -4.9375 10.246094 -5.050781 C 10.246094 -5.3125 10.015625 -5.542969 9.757812 -5.542969 C 9.640625 -5.542969 9.554688 -5.484375 9.441406 -5.398438 L 9.265625 -5.253906 C 8.601562 -4.707031 6.554688 -2.683594 5.6875 -2.683594 C 5.484375 -2.683594 5.371094 -2.800781 5.371094 -3.03125 C 5.371094 -3.320312 5.542969 -3.839844 6.003906 -4.445312 L 6.582031 -5.226562 C 6.839844 -5.601562 7.128906 -5.917969 7.332031 -6.234375 C 7.648438 -6.726562 7.765625 -7.1875 7.765625 -7.5625 C 7.765625 -8.601562 6.929688 -9.121094 5.890625 -9.121094 C 5.457031 -9.121094 4.992188 -9.035156 4.53125 -8.832031 C 4.359375 -8.746094 4.242188 -8.71875 4.128906 -8.71875 C 4.011719 -8.71875 3.898438 -8.777344 3.839844 -8.949219 C 3.753906 -9.179688 3.523438 -9.265625 3.289062 -9.265625 C 3.089844 -9.265625 2.800781 -9.152344 2.597656 -8.863281 L 1.414062 -7.21875 C 0.316406 -5.6875 -0.894531 -4.1875 -1.875 -2.625 C -1.964844 -2.511719 -1.992188 -2.394531 -1.992188 -2.28125 Z M -1.992188 -2.28125 "/></g></g></g><g fill="#bf953f" fill-opacity="1"><g transform="translate(231.538147, 178.077279)"><g><path d="M -0.980469 -2.914062 C -0.980469 -1.964844 -0.261719 -1.414062 0.78125 -1.414062 C 1.445312 -1.414062 2.28125 -1.644531 3.117188 -2.136719 C 3.636719 -2.453125 4.011719 -2.570312 4.359375 -2.570312 C 4.707031 -2.570312 5.023438 -2.425781 5.28125 -2.105469 C 5.570312 -1.730469 6.003906 -1.585938 6.4375 -1.585938 C 8.054688 -1.585938 10.21875 -3.523438 11.375 -4.648438 L 11.402344 -4.675781 C 11.519531 -4.792969 11.546875 -4.90625 11.546875 -5.023438 C 11.546875 -5.253906 11.316406 -5.457031 11.054688 -5.457031 C 10.910156 -5.457031 10.738281 -5.398438 10.625 -5.253906 C 9.757812 -4.15625 7.792969 -2.714844 6.695312 -2.714844 C 6.292969 -2.714844 6.0625 -2.945312 6.0625 -3.347656 C 6.0625 -3.667969 6.207031 -4.070312 6.523438 -4.5625 C 6.984375 -5.28125 8.140625 -6.464844 8.863281 -7.304688 L 9.554688 -8.113281 C 9.699219 -8.257812 9.757812 -8.429688 9.757812 -8.574219 C 9.757812 -8.976562 9.351562 -9.238281 8.976562 -9.238281 C 8.746094 -9.238281 8.488281 -9.121094 8.34375 -8.949219 C 7.1875 -7.5625 3.148438 -2.367188 1.242188 -2.367188 C 0.835938 -2.367188 0.636719 -2.597656 0.636719 -3.003906 C 0.636719 -3.347656 0.78125 -3.78125 1.066406 -4.273438 C 1.585938 -5.136719 2.859375 -6.582031 3.609375 -7.449219 L 4.15625 -8.082031 C 4.300781 -8.226562 4.359375 -8.429688 4.359375 -8.574219 C 4.359375 -8.976562 3.984375 -9.238281 3.636719 -9.238281 C 3.378906 -9.238281 3.089844 -9.09375 2.886719 -8.832031 L 2.164062 -7.96875 C 1.300781 -6.957031 0.117188 -5.570312 -0.460938 -4.5625 C -0.835938 -3.925781 -0.980469 -3.378906 -0.980469 -2.914062 Z M -0.980469 -2.914062 "/></g></g></g></svg>