<svg xmlns="http://www.w3.org/2000/svg" xmlns:xlink="http://www.w3.org/1999/xlink" width="500" zoomAndPan="magnify" viewBox="0 0 375 374.999991" height="500" preserveAspectRatio="xMidYMid meet" version="1.0"><defs><g/><clipPath id="6e62eb2e73"><path d="M 0 0 L 372.75 0 L 372.75 375 L 0 375 Z M 0 0 " clip-rule="nonzero"/></clipPath><clipPath id="3d7638d23d"><path d="M 146 128.148438 L 248.449219 128.148438 L 248.449219 204.121094 L 146 204.121094 Z M 146 128.148438 " clip-rule="nonzero"/></clipPath><clipPath id="42f1a66df0"><path d="M 126.3125 126.339844 L 233 126.339844 L 233 204.121094 L 126.3125 204.121094 Z M 126.3125 126.339844 " clip-rule="nonzero"/></clipPath></defs><g clip-path="url(#6e62eb2e73)"><path fill="#bf953f" d="M 307.222656 48.601562 C 326.789062 65.820312 342.898438 87.042969 353.890625 110.6875 C 354.375 111.378906 355.066406 112.761719 355.894531 114.492188 C 356.308594 115.320312 356.726562 116.289062 357.207031 117.324219 C 357.691406 118.363281 358.109375 119.46875 358.523438 120.574219 C 358.9375 121.679688 359.421875 122.789062 359.835938 123.964844 C 360.25 125.070312 360.734375 126.175781 361.082031 127.28125 C 361.839844 129.425781 362.601562 131.429688 363.15625 132.949219 C 362.324219 130.324219 361.566406 127.765625 360.664062 125.277344 C 359.765625 122.789062 358.800781 120.367188 357.898438 118.015625 C 356.933594 115.667969 355.894531 113.316406 354.925781 111.035156 L 354.167969 109.304688 L 353.335938 107.648438 C 352.785156 106.539062 352.230469 105.433594 351.679688 104.328125 C 348.429688 97.898438 344.765625 91.675781 340.617188 85.382812 C 347.046875 94.855469 352.578125 104.949219 357.140625 115.460938 C 356.242188 113.386719 355.273438 111.378906 354.375 109.304688 C 353.335938 107.300781 352.300781 105.226562 351.261719 103.222656 C 350.296875 101.148438 349.050781 99.144531 347.945312 97.136719 C 346.769531 95.132812 345.664062 93.058594 344.347656 91.121094 C 339.441406 83.101562 333.703125 75.429688 327.480469 68.101562 C 314.964844 53.375 299.6875 40.582031 282.886719 30.421875 C 276.734375 26.824219 271.0625 23.160156 264.289062 19.84375 C 262.628906 19.011719 260.902344 18.113281 259.101562 17.351562 C 257.304688 16.59375 255.371094 15.832031 253.363281 15.003906 C 251.359375 14.171875 249.285156 13.550781 247.074219 12.859375 C 244.859375 12.167969 242.511719 11.476562 240.019531 10.921875 C 252.257812 14.726562 264.148438 19.84375 275.417969 26.132812 C 286.828125 32.425781 297.472656 39.960938 307.222656 48.601562 Z M 339.785156 83.933594 C 339.371094 83.308594 338.886719 82.617188 338.402344 81.996094 C 338.886719 82.617188 339.300781 83.242188 339.785156 83.933594 Z M 371.175781 178.441406 C 371.105469 177.199219 370.96875 175.886719 370.898438 174.640625 C 371.035156 175.953125 371.105469 177.335938 371.242188 178.652344 C 371.3125 179.339844 371.382812 179.964844 371.382812 180.65625 C 371.382812 181.277344 371.449219 181.96875 371.449219 182.589844 C 371.519531 185.148438 371.589844 187.707031 371.589844 190.058594 C 371.519531 187.429688 371.449219 184.871094 371.382812 182.316406 C 371.382812 181.691406 371.382812 181 371.3125 180.378906 C 371.242188 179.6875 371.175781 179.066406 371.175781 178.441406 Z M 209.1875 8.15625 C 185.679688 5.253906 161.273438 6.84375 137.699219 13.480469 C 150.488281 9.816406 164.109375 7.398438 177.867188 6.566406 C 191.625 5.738281 205.453125 6.707031 218.519531 9.265625 C 215.410156 8.78125 212.296875 8.503906 209.1875 8.15625 Z M 275.972656 31.25 C 265.671875 25.304688 254.609375 20.257812 242.996094 16.453125 C 254.472656 20.1875 265.601562 25.097656 275.902344 31.113281 C 286.273438 37.125 295.816406 44.109375 304.179688 51.714844 C 295.746094 44.179688 286.273438 37.265625 275.972656 31.25 Z M 23.554688 140.625 C 17.191406 162.058594 14.839844 185.148438 17.125 208.65625 C 16.984375 207.894531 16.984375 207.066406 16.914062 206.304688 C 16.847656 205.542969 16.777344 204.714844 16.707031 203.953125 C 16.570312 202.363281 16.433594 200.773438 16.363281 199.113281 C 16.292969 197.523438 16.292969 195.867188 16.222656 194.207031 C 16.222656 193.375 16.15625 192.546875 16.15625 191.71875 C 16.15625 190.886719 16.085938 190.058594 16.15625 189.226562 C 16.222656 185.910156 15.878906 182.9375 15.808594 181.347656 C 16.570312 172.703125 17.816406 164.199219 19.957031 154.246094 C 20.234375 152.722656 20.925781 149.40625 21.480469 146.363281 C 22.171875 144.566406 22.863281 142.628906 23.554688 140.625 Z M 161.273438 4.910156 C 160.652344 4.976562 160.03125 5.117188 159.40625 5.183594 C 160.929688 4.976562 162.378906 4.703125 163.902344 4.5625 C 163.003906 4.703125 162.105469 4.839844 161.273438 4.910156 Z M 74.851562 40.445312 C 74.921875 40.375 75.058594 40.308594 75.128906 40.238281 C 75.058594 40.308594 74.921875 40.375 74.851562 40.445312 Z M 72.15625 42.519531 C 71.050781 43.417969 69.945312 44.316406 68.769531 45.285156 C 69.875 44.386719 70.980469 43.417969 72.15625 42.519531 Z M 372.351562 198.007812 C 372.28125 199.460938 372.074219 200.914062 371.933594 202.433594 C 371.796875 203.953125 371.589844 205.542969 371.382812 207.136719 C 371.3125 207.894531 371.242188 208.726562 371.105469 209.554688 C 370.96875 210.382812 370.828125 211.144531 370.691406 211.972656 C 370.414062 213.632812 370.136719 215.292969 369.929688 216.953125 L 369.722656 218.195312 C 369.652344 218.613281 369.585938 219.027344 369.445312 219.441406 C 369.238281 220.269531 369.101562 221.101562 368.894531 221.929688 C 368.546875 223.589844 368.203125 225.316406 367.855469 226.976562 C 367.441406 228.636719 367.027344 230.296875 366.613281 232.023438 C 366.195312 233.683594 365.78125 235.34375 365.296875 237.003906 C 364.8125 238.59375 364.261719 240.183594 363.777344 241.773438 C 363.292969 243.363281 362.808594 244.882812 362.253906 246.40625 C 361.703125 247.925781 361.148438 249.378906 360.597656 250.761719 C 360.042969 252.144531 359.558594 253.59375 358.9375 254.839844 C 357.761719 257.464844 356.726562 259.886719 355.617188 262.03125 C 356.308594 259.957031 357 257.8125 357.691406 255.667969 C 357.207031 256.566406 356.449219 258.089844 355.617188 259.957031 C 355.410156 260.441406 355.203125 260.921875 354.925781 261.40625 C 354.652344 261.890625 354.441406 262.445312 354.167969 262.929688 C 353.613281 263.964844 353.0625 265.070312 352.507812 266.246094 C 351.953125 267.351562 351.402344 268.527344 350.777344 269.703125 C 350.15625 270.808594 349.535156 271.917969 348.914062 273.023438 C 347.738281 275.164062 346.628906 277.171875 345.59375 278.761719 C 345.9375 278 346.355469 277.308594 346.769531 276.480469 C 347.183594 275.71875 347.597656 274.890625 348.011719 274.128906 C 348.84375 272.539062 349.8125 270.949219 350.710938 269.289062 C 348.84375 272.539062 348.84375 272.539062 347.046875 275.71875 C 348.566406 272.609375 350.503906 269.152344 352.160156 265.347656 C 352.578125 264.378906 353.0625 263.414062 353.476562 262.445312 C 353.683594 261.960938 353.890625 261.476562 354.167969 260.992188 C 354.375 260.507812 354.582031 259.957031 354.789062 259.472656 C 355.617188 257.464844 356.449219 255.394531 357.277344 253.320312 C 360.390625 244.953125 363.085938 236.035156 364.882812 228.015625 C 365.160156 227.046875 365.296875 226.007812 365.503906 225.042969 C 365.710938 224.074219 365.851562 223.105469 366.058594 222.136719 C 366.195312 221.167969 366.402344 220.269531 366.542969 219.371094 C 366.679688 218.472656 366.886719 217.644531 366.957031 216.746094 C 367.371094 213.355469 367.785156 210.382812 367.996094 207.964844 C 368.269531 203.195312 368.203125 200.773438 367.648438 202.019531 C 366.613281 204.578125 365.296875 218.195312 360.734375 234.859375 C 358.382812 243.15625 355.203125 252.28125 351.332031 261.0625 C 350.296875 263.273438 349.328125 265.417969 348.289062 267.628906 C 347.183594 269.773438 346.078125 271.847656 344.972656 273.921875 C 344.695312 274.472656 344.417969 274.957031 344.140625 275.511719 C 343.867188 275.996094 343.519531 276.546875 343.242188 277.03125 C 342.621094 278.070312 342.066406 279.039062 341.445312 280.003906 C 340.890625 280.972656 340.269531 281.941406 339.71875 282.910156 C 339.09375 283.878906 338.472656 284.777344 337.851562 285.675781 C 338.335938 284.84375 338.816406 284.085938 339.300781 283.253906 C 339.785156 282.425781 340.199219 281.59375 340.683594 280.765625 C 341.582031 279.105469 342.484375 277.378906 343.449219 275.648438 C 344.347656 273.921875 345.179688 272.125 346.078125 270.328125 C 346.492188 269.425781 346.976562 268.527344 347.390625 267.628906 C 347.804688 266.730469 348.222656 265.832031 348.636719 264.863281 C 349.464844 262.996094 350.226562 261.199219 351.054688 259.332031 C 351.816406 257.464844 352.507812 255.53125 353.269531 253.664062 C 353.613281 252.695312 354.027344 251.796875 354.375 250.828125 C 354.71875 249.863281 355.066406 248.894531 355.34375 247.925781 L 356.308594 245.023438 C 356.65625 244.054688 357 243.085938 357.277344 242.117188 L 359.007812 236.171875 L 359.421875 234.71875 L 359.765625 233.199219 L 360.457031 230.226562 C 361.496094 226.214844 362.117188 222.207031 362.878906 218.195312 C 364.054688 210.175781 364.953125 202.226562 364.953125 194.484375 C 364.8125 196.28125 364.675781 197.941406 364.539062 199.460938 C 364.328125 200.980469 364.121094 202.503906 363.847656 204.09375 C 363.707031 204.921875 363.636719 205.683594 363.5 206.582031 C 363.363281 207.480469 363.292969 208.378906 363.085938 209.347656 C 362.738281 211.28125 362.394531 213.496094 362.046875 216.054688 C 361.980469 216.882812 361.773438 217.710938 361.632812 218.472656 L 361.148438 220.894531 L 360.183594 225.734375 L 359.007812 230.503906 L 358.382812 232.921875 C 358.175781 233.753906 357.96875 234.511719 357.761719 235.273438 C 355.894531 241.566406 353.890625 247.855469 351.402344 253.941406 C 346.628906 266.179688 341.375 276.824219 334.253906 286.296875 C 333.632812 287.265625 333.011719 288.234375 332.320312 289.132812 C 331.003906 291.066406 329.898438 292.933594 328.585938 294.871094 C 328.242188 295.421875 327.824219 295.90625 327.480469 296.320312 C 327.132812 296.804688 326.71875 297.21875 326.441406 297.636719 C 325.75 298.464844 325.128906 299.226562 324.507812 299.917969 C 323.882812 300.609375 323.332031 301.300781 322.847656 301.921875 C 322.292969 302.542969 321.742188 303.167969 321.1875 303.71875 C 320.082031 304.964844 318.976562 306.207031 317.664062 307.730469 C 317.039062 308.488281 316.28125 309.25 315.449219 310.148438 C 314.621094 311.046875 313.789062 312.015625 312.824219 313.054688 C 312.683594 313.054688 312.890625 312.707031 313.308594 312.152344 C 312.753906 312.84375 312.0625 313.535156 311.300781 314.367188 C 310.542969 315.128906 309.710938 315.886719 308.882812 316.71875 C 308.050781 317.546875 307.222656 318.308594 306.394531 319.136719 C 305.976562 319.550781 305.632812 319.898438 305.21875 320.3125 C 304.804688 320.65625 304.457031 321.074219 304.113281 321.417969 C 303.835938 321.417969 303.558594 321.417969 302.867188 321.832031 C 283.855469 338.289062 261.175781 350.941406 236.425781 357.921875 C 234.558594 358.40625 232.761719 358.960938 230.894531 359.445312 C 229.027344 359.859375 227.230469 360.273438 225.363281 360.6875 C 224.464844 360.894531 223.496094 361.101562 222.597656 361.3125 C 221.699219 361.449219 220.730469 361.65625 219.832031 361.792969 C 217.964844 362.140625 216.167969 362.417969 214.300781 362.761719 C 212.710938 362.96875 211.121094 363.175781 209.53125 363.386719 C 207.941406 363.59375 206.351562 363.867188 204.691406 364.007812 C 203.03125 364.144531 201.441406 364.285156 199.785156 364.351562 C 198.125 364.492188 196.464844 364.628906 194.804688 364.628906 C 193.144531 364.699219 191.554688 364.835938 190.171875 364.976562 C 188.789062 365.113281 187.683594 365.320312 186.855469 365.320312 C 184.710938 365.183594 182.5 365.113281 180.285156 364.976562 C 179.734375 364.976562 179.179688 364.90625 178.628906 364.90625 C 178.074219 364.835938 177.519531 364.769531 176.96875 364.699219 C 175.863281 364.558594 174.753906 364.492188 173.582031 364.351562 C 172.472656 364.214844 171.300781 364.144531 170.125 364.007812 C 168.949219 363.867188 167.84375 363.660156 166.597656 363.453125 C 165.421875 363.246094 164.246094 363.109375 163.003906 362.902344 C 162.378906 362.832031 161.757812 362.761719 161.136719 362.625 C 160.511719 362.484375 159.890625 362.347656 159.269531 362.277344 C 158.507812 362.210938 157.265625 362.003906 155.8125 361.792969 C 154.429688 361.585938 152.769531 361.378906 151.179688 361.101562 C 149.382812 360.480469 147.445312 359.929688 145.371094 359.304688 C 144.613281 359.167969 143.78125 358.890625 143.023438 358.683594 L 140.742188 357.992188 C 139.21875 357.578125 137.699219 357.09375 136.109375 356.679688 C 134.585938 356.125 133.066406 355.640625 131.613281 355.089844 L 129.332031 354.328125 L 127.121094 353.5 C 121.175781 351.21875 115.367188 348.726562 109.765625 345.753906 L 109.765625 345.824219 C 108.382812 345.132812 106.933594 344.371094 105.480469 343.613281 C 104.027344 342.851562 102.578125 341.953125 101.125 341.121094 C 98.152344 339.464844 95.25 337.457031 92.207031 335.523438 C 90.683594 334.554688 89.300781 333.449219 87.78125 332.410156 L 85.570312 330.820312 C 84.808594 330.269531 84.117188 329.785156 83.425781 329.230469 C 80.660156 326.949219 77.757812 324.804688 75.128906 322.386719 C 73.816406 321.210938 72.503906 320.105469 71.1875 318.929688 C 69.945312 317.753906 68.699219 316.578125 67.523438 315.402344 C 65.726562 313.746094 64.066406 312.015625 62.476562 310.355469 L 59.917969 307.589844 C 59.019531 306.625 58.257812 305.585938 57.359375 304.617188 L 54.871094 301.578125 L 53.628906 300.054688 L 52.453125 298.464844 C 52.796875 299.226562 52.796875 299.503906 52.730469 299.710938 C 53.074219 300.054688 53.351562 300.46875 53.695312 300.886719 C 54.042969 301.300781 54.386719 301.714844 54.804688 302.128906 C 55.425781 302.820312 56.046875 303.582031 56.667969 304.273438 C 54.320312 301.714844 52.246094 299.433594 50.585938 297.496094 C 49.894531 296.53125 49.203125 295.492188 48.511719 294.457031 C 47.820312 293.347656 47.128906 292.242188 46.4375 291.136719 C 45.746094 290.03125 44.984375 288.855469 44.226562 287.679688 C 43.535156 286.503906 42.773438 285.261719 42.011719 284.015625 C 38.070312 278 34.753906 271.570312 31.574219 265.140625 L 29.359375 260.164062 L 28.253906 257.675781 L 27.285156 255.117188 C 26.664062 253.457031 25.972656 251.726562 25.351562 250.070312 C 24.726562 248.339844 24.246094 246.613281 23.621094 244.882812 C 23.136719 243.777344 23.277344 244.816406 23.136719 244.953125 C 21.269531 238.867188 19.886719 232.578125 18.644531 226.21875 C 16.292969 214.878906 15.117188 203.195312 15.117188 191.441406 C 14.980469 190.058594 14.980469 188.675781 14.980469 187.292969 C 14.980469 185.910156 14.910156 184.527344 14.910156 183.144531 C 15.050781 182.382812 15.117188 181.484375 15.257812 180.515625 C 15.394531 179.550781 15.53125 178.511719 15.671875 177.335938 L 15.949219 174.019531 C 16.015625 172.910156 16.085938 171.804688 16.292969 170.769531 C 16.570312 168.554688 16.914062 166.414062 17.191406 164.199219 C 17.261719 163.441406 17.398438 162.679688 17.605469 161.851562 C 17.746094 161.019531 17.882812 160.191406 18.089844 159.359375 C 18.230469 158.460938 18.4375 157.5625 18.574219 156.664062 C 18.714844 155.695312 18.921875 154.730469 19.128906 153.761719 C 19.613281 151.757812 20.097656 149.683594 20.578125 147.539062 C 20.789062 146.433594 21.132812 145.328125 21.480469 144.21875 C 21.824219 143.113281 22.101562 141.9375 22.445312 140.761719 C 25.144531 131.429688 29.082031 121.058594 34.132812 110.964844 C 34.753906 109.375 35.304688 108.128906 35.652344 107.4375 C 36.414062 105.988281 37.242188 104.605469 38.003906 103.222656 C 38.832031 101.839844 39.523438 100.457031 40.421875 99.144531 C 41.253906 97.828125 42.082031 96.515625 42.910156 95.203125 C 43.742188 93.886719 44.570312 92.644531 45.46875 91.398438 C 46.230469 90.292969 46.992188 89.257812 47.683594 88.21875 C 48.441406 87.183594 49.132812 86.074219 49.894531 85.109375 C 51.484375 83.101562 53.003906 81.097656 54.457031 79.164062 C 56.046875 77.296875 57.636719 75.429688 59.089844 73.632812 C 59.433594 73.148438 59.851562 72.730469 60.265625 72.316406 C 60.679688 71.902344 61.023438 71.488281 61.441406 71.074219 C 62.199219 70.242188 62.960938 69.414062 63.722656 68.585938 C 65.171875 66.925781 66.761719 65.472656 68.214844 64.019531 C 68.90625 63.328125 69.667969 62.636719 70.359375 61.945312 C 70.703125 61.601562 71.050781 61.253906 71.394531 60.910156 C 71.742188 60.5625 72.085938 60.289062 72.433594 60.011719 C 75.199219 57.589844 77.550781 55.308594 79.691406 53.652344 C 82.179688 51.578125 81.972656 51.4375 80.316406 52.40625 C 79.484375 52.890625 78.308594 53.652344 76.859375 54.550781 C 75.476562 55.515625 73.882812 56.691406 72.292969 57.9375 C 71.464844 58.558594 70.636719 59.179688 69.804688 59.804688 C 68.976562 60.496094 68.214844 61.117188 67.453125 61.738281 C 65.933594 63.054688 64.414062 64.226562 63.167969 65.265625 C 60.75 67.410156 59.160156 68.722656 59.574219 68.101562 C 63.859375 61.878906 71.050781 54.34375 81.421875 46.320312 C 86.675781 42.382812 92.550781 38.164062 99.394531 34.222656 C 102.714844 32.148438 106.449219 30.28125 110.183594 28.207031 C 114.054688 26.339844 117.996094 24.335938 122.28125 22.539062 C 126.980469 20.535156 125.253906 21.15625 122.28125 22.191406 C 120.828125 22.746094 119.03125 23.367188 117.578125 23.851562 C 116.128906 24.40625 115.089844 24.820312 114.953125 24.820312 C 115.644531 24.40625 116.402344 23.992188 117.234375 23.4375 C 118.0625 22.953125 119.03125 22.539062 120 22.054688 C 123.109375 20.808594 126.152344 19.496094 129.332031 18.460938 L 132.097656 17.492188 C 132.996094 17.144531 133.964844 16.800781 134.863281 16.59375 L 140.464844 14.933594 C 139.496094 15.210938 138.457031 15.488281 137.492188 15.761719 C 131.546875 17.492188 125.808594 19.566406 120.691406 21.777344 C 121.519531 21.363281 122.417969 20.949219 123.316406 20.535156 C 124.492188 19.980469 125.667969 19.425781 126.914062 18.945312 C 128.15625 18.460938 129.472656 17.90625 130.714844 17.421875 L 132.652344 16.664062 L 133.621094 16.246094 L 134.585938 15.902344 C 137.214844 15.003906 139.773438 14.105469 142.125 13.273438 C 128.78125 16.664062 115.851562 21.570312 103.613281 27.929688 L 101.332031 29.105469 C 100.570312 29.523438 99.8125 29.9375 99.050781 30.351562 L 94.558594 32.910156 C 93.035156 33.738281 91.652344 34.707031 90.199219 35.675781 L 86.46875 38.71875 L 82.25 41.757812 C 80.867188 42.796875 79.414062 43.765625 78.101562 44.871094 C 75.40625 47.011719 72.640625 49.085938 70.082031 51.4375 L 66.210938 54.824219 L 62.476562 58.421875 C 59.917969 60.773438 57.636719 63.328125 55.285156 65.820312 C 54.734375 66.441406 54.113281 67.0625 53.558594 67.683594 L 51.898438 69.621094 L 48.511719 73.5625 C 47.40625 74.875 46.367188 76.257812 45.332031 77.640625 L 43.742188 79.714844 C 43.1875 80.40625 42.703125 81.097656 42.21875 81.789062 C 34.132812 92.988281 27.285156 105.019531 21.894531 117.742188 C 25.972656 108.199219 31.019531 99.210938 36.621094 90.777344 C 42.21875 82.410156 48.441406 74.597656 55.078125 67.546875 C 49.066406 74.183594 43.464844 81.304688 38.417969 88.703125 C 33.441406 96.167969 28.945312 104.050781 25.003906 112.210938 L 22.171875 118.363281 C 21.6875 119.398438 21.269531 120.4375 20.855469 121.472656 L 19.613281 124.652344 C 19.195312 125.691406 18.78125 126.726562 18.367188 127.835938 L 17.261719 131.085938 L 16.15625 134.332031 L 15.601562 135.921875 L 15.117188 137.582031 C 14.496094 139.796875 13.875 141.9375 13.25 144.152344 C 12.699219 146.363281 12.214844 148.574219 11.660156 150.789062 C 11.382812 151.894531 11.109375 153 10.902344 154.105469 L 10.277344 157.496094 L 9.65625 160.882812 C 9.585938 161.433594 9.449219 161.988281 9.378906 162.542969 L 9.171875 164.269531 L 8.273438 171.527344 L 7.71875 178.789062 L 7.582031 180.585938 C 7.582031 181.207031 7.582031 181.832031 7.511719 182.382812 L 7.445312 185.980469 L 7.375 189.644531 C 7.375 190.886719 7.445312 192.0625 7.445312 193.308594 L 7.582031 196.972656 C 7.652344 198.214844 7.652344 199.390625 7.71875 200.636719 L 8.273438 207.894531 C 8.34375 208.519531 8.410156 209.070312 8.480469 209.691406 L 8.6875 211.492188 L 9.171875 215.085938 L 9.378906 216.882812 L 9.519531 217.78125 L 9.65625 218.679688 L 10.277344 222.277344 C 13.597656 241.425781 20.234375 259.816406 29.222656 276.894531 C 28.390625 275.511719 27.492188 273.921875 26.59375 272.332031 C 25.695312 270.671875 24.726562 269.011719 23.898438 267.144531 C 24.246094 267.90625 24.589844 268.667969 25.003906 269.425781 L 26.179688 271.710938 L 28.53125 276.273438 C 29.292969 277.792969 30.191406 279.246094 31.019531 280.695312 C 31.847656 282.148438 32.679688 283.667969 33.578125 285.121094 L 36.34375 289.40625 C 37.242188 290.859375 38.140625 292.3125 39.179688 293.625 C 41.183594 296.390625 43.050781 299.226562 45.191406 301.851562 C 46.507812 303.441406 47.820312 305.03125 49.203125 306.625 L 53.351562 311.1875 C 52.3125 310.148438 49.894531 307.523438 48.164062 305.65625 C 61.507812 321.902344 77.480469 335.867188 95.25 346.652344 C 112.945312 357.507812 132.445312 364.90625 152.148438 369.054688 C 148.96875 368.433594 147.378906 368.15625 145.925781 367.949219 C 146.960938 368.15625 148.070312 368.433594 149.105469 368.640625 C 150.144531 368.847656 151.25 369.125 152.355469 369.332031 C 155.257812 369.816406 158.164062 370.367188 161.066406 370.78125 C 163.96875 371.128906 166.875 371.472656 169.707031 371.820312 C 166.875 371.542969 163.96875 371.199219 161.066406 370.851562 C 158.164062 370.4375 155.257812 369.882812 152.425781 369.398438 C 151.25 369.261719 150.074219 368.914062 148.898438 368.707031 C 147.722656 368.433594 146.546875 368.222656 145.371094 367.949219 C 144.679688 367.878906 143.921875 367.742188 143.023438 367.53125 C 142.125 367.324219 141.015625 366.980469 139.566406 366.496094 C 128.917969 363.660156 119.238281 359.996094 112.464844 356.609375 C 109.144531 355.089844 106.035156 353.289062 102.921875 351.632812 C 101.332031 350.800781 99.8125 349.835938 98.289062 349.003906 C 96.769531 348.105469 95.25 347.207031 93.726562 346.308594 C 92.273438 345.339844 90.824219 344.371094 89.300781 343.472656 C 87.851562 342.503906 86.398438 341.605469 85.015625 340.570312 C 82.179688 338.566406 79.347656 336.628906 76.71875 334.484375 C 66.003906 326.121094 56.53125 316.925781 48.71875 307.039062 C 45.125 302.40625 46.230469 303.441406 48.164062 305.722656 C 47.199219 304.480469 46.160156 303.167969 45.191406 301.921875 L 42.910156 299.15625 L 40.769531 296.253906 C 39.386719 294.316406 37.863281 292.449219 36.550781 290.375 C 35.238281 288.371094 33.855469 286.367188 32.609375 284.292969 C 31.367188 282.21875 30.191406 280.074219 28.945312 278 C 23.761719 268.390625 19.472656 258.367188 16.15625 248.132812 C 15.808594 247.164062 15.464844 246.128906 15.117188 245.160156 C 14.773438 244.191406 14.496094 243.15625 14.21875 242.117188 C 14.566406 243.085938 14.773438 244.125 15.117188 245.160156 C 7.097656 218.679688 5.230469 190.820312 9.101562 164.132812 C 9.3125 162.125 9.726562 160.191406 10.070312 158.1875 L 10.554688 155.214844 C 10.695312 154.246094 10.902344 153.207031 11.109375 152.238281 C 12.007812 148.300781 12.765625 144.359375 13.941406 140.488281 C 16.015625 132.675781 18.78125 125.070312 21.824219 117.671875 L 21.269531 118.914062 L 20.789062 120.160156 L 19.75 122.71875 C 19.058594 124.445312 18.367188 126.105469 17.746094 127.902344 C 17.125 129.632812 16.570312 131.429688 15.949219 133.15625 L 15.050781 135.785156 L 14.289062 138.480469 L 12.765625 143.804688 C 12.285156 145.601562 11.9375 147.402344 11.453125 149.199219 L 10.832031 151.894531 L 10.484375 153.277344 L 10.210938 154.660156 L 9.242188 160.121094 C 8.894531 161.917969 8.621094 163.785156 8.410156 165.652344 L 7.652344 171.183594 C 7.511719 173.050781 7.375 174.847656 7.167969 176.714844 C 7.027344 178.582031 6.820312 180.378906 6.820312 182.246094 C 6.753906 184.113281 6.683594 185.910156 6.613281 187.777344 C 6.613281 188.675781 6.546875 189.644531 6.546875 190.542969 L 6.613281 193.308594 C 6.613281 195.175781 6.683594 196.972656 6.683594 198.839844 C 6.753906 200.707031 6.890625 202.503906 7.027344 204.300781 C 4.953125 184.871094 6.476562 163.164062 11.9375 142.144531 C 8.203125 155.695312 6.199219 169.800781 5.714844 183.972656 C 5.644531 185.355469 5.578125 186.671875 5.578125 187.984375 C 5.578125 188.675781 5.507812 189.296875 5.507812 189.988281 C 5.507812 190.679688 5.507812 191.300781 5.507812 191.992188 C 5.507812 194.621094 5.578125 197.25 5.578125 199.738281 C 5.714844 202.226562 5.855469 204.644531 5.921875 206.859375 C 5.992188 209.070312 6.269531 211.144531 6.335938 213.011719 C 4.746094 199.183594 4.746094 187.570312 5.300781 176.644531 C 3.503906 200.429688 6.128906 224.972656 13.667969 248.410156 C 14.011719 249.585938 14.425781 250.691406 14.773438 251.867188 C 14.980469 252.417969 15.117188 253.042969 15.324219 253.59375 C 15.53125 254.148438 15.742188 254.703125 15.949219 255.253906 C 15.742188 254.703125 15.53125 254.148438 15.324219 253.59375 L 14.773438 251.867188 C 14.425781 250.761719 14.011719 249.585938 13.667969 248.480469 C 9.519531 235.6875 6.476562 222.136719 5.09375 208.308594 C 3.710938 194.484375 3.988281 180.515625 5.921875 167.242188 L 5.714844 169.59375 C 5.644531 170.355469 5.578125 171.183594 5.507812 171.945312 C 5.4375 173.535156 5.371094 175.125 5.230469 176.714844 C 5.578125 171.320312 6.335938 166 7.097656 160.675781 C 7.582031 158.046875 8.066406 155.421875 8.550781 152.792969 C 9.171875 150.164062 9.792969 147.609375 10.347656 144.980469 C 12.976562 134.609375 16.5 124.515625 20.789062 114.835938 C 25.074219 105.15625 30.191406 95.894531 36.066406 87.113281 C 41.945312 78.402344 48.582031 70.175781 55.769531 62.5 C 54.734375 63.46875 53.695312 64.503906 52.660156 65.542969 C 51.621094 66.578125 50.585938 67.753906 49.546875 68.929688 C 48.511719 70.105469 47.40625 71.28125 46.367188 72.523438 C 45.332031 73.839844 44.292969 75.082031 43.257812 76.464844 C 39.039062 81.789062 35.03125 87.804688 31.226562 94.027344 C 23.761719 106.609375 17.746094 120.4375 13.390625 132.605469 C 20.234375 110.621094 31.640625 89.464844 46.921875 71.140625 C 62.132812 52.75 81.214844 37.195312 102.507812 25.925781 C 123.800781 14.585938 147.308594 7.675781 170.953125 5.394531 C 182.777344 4.21875 194.597656 4.21875 206.28125 5.183594 C 217.898438 6.222656 229.375 8.367188 240.367188 11.476562 L 234.492188 9.816406 C 232.554688 9.265625 230.550781 8.847656 228.542969 8.367188 C 224.605469 7.328125 220.59375 6.707031 216.582031 5.945312 C 208.5625 4.703125 200.476562 3.800781 192.316406 3.664062 C 184.160156 3.320312 176 3.734375 167.84375 4.425781 C 165.835938 4.632812 163.761719 4.910156 161.757812 5.117188 C 160.722656 5.253906 159.683594 5.324219 158.714844 5.53125 L 155.675781 6.015625 C 153.667969 6.359375 151.59375 6.636719 149.589844 7.050781 C 147.585938 7.464844 145.578125 7.949219 143.574219 8.367188 C 145.097656 8.019531 146.6875 7.675781 148.277344 7.328125 C 149.105469 7.121094 149.867188 6.914062 150.695312 6.773438 C 151.527344 6.636719 152.355469 6.429688 153.183594 6.292969 C 154.914062 5.945312 156.574219 5.667969 158.300781 5.324219 C 158.507812 5.253906 158.785156 5.253906 158.992188 5.183594 C 149.382812 6.707031 140.117188 8.847656 130.992188 11.824219 C 128.363281 12.722656 125.738281 13.621094 123.109375 14.519531 C 120.757812 15.488281 118.410156 16.386719 116.058594 17.351562 C 124.355469 13.828125 132.789062 10.855469 141.5 8.574219 C 155.882812 4.769531 170.675781 2.695312 185.402344 2.210938 C 187.617188 2.074219 189.621094 2.144531 191.488281 2.144531 C 193.285156 2.144531 194.945312 2.144531 196.328125 2.144531 C 199.160156 2.210938 201.304688 2.28125 202.757812 2.28125 C 205.730469 2.28125 206.144531 2.074219 205.039062 1.726562 C 203.933594 1.382812 201.167969 0.96875 197.847656 0.554688 C 196.1875 0.34375 194.320312 0.277344 192.453125 0.207031 C 190.589844 0.136719 188.652344 0 186.855469 0.0703125 C 182.292969 0.207031 177.730469 0.207031 173.164062 0.691406 C 172.058594 0.761719 170.882812 0.898438 169.777344 0.96875 C 169.226562 1.035156 168.671875 1.035156 168.117188 1.105469 L 166.460938 1.3125 C 164.246094 1.589844 161.964844 1.867188 159.753906 2.144531 C 157.539062 2.488281 155.328125 2.902344 153.117188 3.320312 C 152.007812 3.527344 150.902344 3.734375 149.796875 3.941406 C 148.691406 4.148438 147.652344 4.425781 146.546875 4.703125 C 144.40625 5.183594 142.191406 5.667969 140.050781 6.222656 C 137.90625 6.84375 135.761719 7.398438 133.6875 8.019531 C 125.253906 10.578125 116.957031 13.550781 109.074219 17.285156 L 106.101562 18.597656 C 105.136719 19.082031 104.167969 19.566406 103.199219 20.050781 C 101.261719 21.019531 99.328125 21.984375 97.390625 23.023438 C 93.65625 25.234375 89.855469 27.238281 86.261719 29.660156 C 57.222656 48.1875 33.714844 74.460938 18.921875 105.503906 C 18.507812 106.402344 18.023438 107.300781 17.605469 108.269531 L 16.433594 111.035156 C 15.671875 112.902344 14.839844 114.769531 14.082031 116.632812 C 13.390625 118.5 12.699219 120.4375 12.007812 122.304688 C 11.660156 123.273438 11.316406 124.171875 10.96875 125.136719 L 10.070312 128.042969 L 8.203125 133.847656 L 6.890625 139.65625 L 6.128906 142.5625 L 5.507812 145.535156 L 4.195312 151.480469 C 1.152344 167.382812 0.117188 183.699219 1.015625 199.875 C 1.359375 204.4375 1.566406 209.484375 2.257812 214.601562 C 2.398438 215.847656 2.535156 217.160156 2.742188 218.472656 C 2.949219 219.785156 3.15625 221.03125 3.363281 222.277344 C 3.570312 223.519531 3.78125 224.835938 4.054688 226.078125 C 4.195312 226.699219 4.261719 227.324219 4.402344 227.945312 C 4.539062 228.566406 4.679688 229.191406 4.816406 229.8125 C 5.371094 232.230469 5.921875 234.652344 6.40625 236.933594 C 7.027344 239.214844 7.652344 241.359375 8.203125 243.363281 C 8.480469 244.398438 8.757812 245.367188 9.035156 246.265625 C 9.378906 247.164062 9.65625 248.0625 9.933594 248.894531 C 10.484375 250.554688 11.039062 252.003906 11.453125 253.320312 C 16.5 266.523438 23.207031 279.246094 31.296875 291.273438 C 35.304688 297.359375 39.800781 303.027344 44.5 308.699219 C 45.675781 310.082031 46.992188 311.464844 48.164062 312.84375 C 49.410156 314.226562 50.585938 315.609375 51.96875 316.925781 C 54.59375 319.550781 57.152344 322.25 59.917969 324.738281 C 61.300781 325.980469 62.617188 327.296875 64.066406 328.539062 C 65.519531 329.714844 66.972656 330.960938 68.355469 332.136719 C 69.046875 332.757812 69.804688 333.378906 70.496094 333.933594 L 72.777344 335.660156 C 74.300781 336.835938 75.75 337.941406 77.273438 339.117188 C 83.496094 343.472656 89.785156 347.761719 96.632812 351.355469 C 99.949219 353.289062 103.476562 354.949219 106.933594 356.679688 C 107.761719 357.09375 108.660156 357.507812 109.558594 357.921875 L 112.257812 359.097656 L 114.953125 360.273438 L 116.265625 360.894531 L 117.648438 361.449219 C 119.445312 362.140625 121.3125 362.832031 123.109375 363.523438 L 124.492188 364.078125 C 124.976562 364.214844 125.390625 364.351562 125.875 364.558594 L 128.710938 365.460938 L 131.546875 366.359375 C 132.511719 366.703125 133.410156 366.980469 134.378906 367.257812 C 136.316406 367.808594 138.183594 368.292969 140.117188 368.847656 C 153.808594 372.582031 168.257812 374.585938 182.84375 374.863281 C 184.640625 374.863281 186.507812 375 188.308594 374.929688 C 190.105469 374.863281 191.972656 374.792969 193.769531 374.792969 L 196.535156 374.722656 C 197.433594 374.722656 198.332031 374.585938 199.300781 374.515625 C 201.097656 374.378906 202.964844 374.238281 204.832031 374.03125 L 206.214844 373.894531 C 206.695312 373.824219 207.113281 373.753906 207.597656 373.6875 L 210.363281 373.339844 C 212.160156 373.0625 214.027344 372.855469 215.824219 372.582031 L 221.285156 371.542969 L 223.980469 371.058594 C 224.878906 370.921875 225.777344 370.644531 226.679688 370.4375 L 232.070312 369.125 L 233.453125 368.777344 L 234.765625 368.363281 L 237.464844 367.601562 C 239.261719 367.050781 241.058594 366.632812 242.785156 366.011719 L 248.042969 364.214844 L 250.667969 363.316406 L 253.226562 362.277344 L 258.34375 360.203125 C 260.070312 359.445312 261.730469 358.683594 263.390625 357.921875 C 265.050781 357.164062 266.777344 356.402344 268.367188 355.503906 C 271.617188 353.773438 274.9375 352.117188 278.117188 350.25 C 279.707031 349.28125 281.296875 348.453125 282.886719 347.414062 C 284.40625 346.445312 285.996094 345.410156 287.519531 344.441406 L 289.800781 342.921875 L 292.011719 341.332031 C 293.535156 340.292969 294.984375 339.1875 296.4375 338.148438 C 297.890625 337.042969 299.339844 335.867188 300.722656 334.761719 C 302.105469 333.585938 303.628906 332.550781 304.941406 331.304688 C 316.003906 321.832031 325.890625 311.324219 334.394531 299.984375 C 342.828125 288.648438 349.8125 276.546875 355.410156 264.242188 C 361.011719 251.9375 365.160156 239.285156 367.925781 226.839844 C 370.757812 214.394531 372.28125 202.089844 372.832031 190.265625 C 372.765625 192.476562 372.558594 195.105469 372.351562 198.007812 Z M 8.066406 138.273438 C 8.621094 135.992188 9.171875 133.847656 9.863281 131.777344 C 10.554688 129.703125 11.246094 127.765625 11.867188 125.898438 C 12.558594 124.03125 13.390625 122.234375 14.082031 120.507812 C 17.054688 113.523438 20.371094 107.648438 23.691406 101.21875 C 28.324219 92.503906 33.578125 84.070312 39.523438 76.1875 C 41.042969 74.253906 42.566406 72.316406 44.015625 70.3125 C 45.609375 68.445312 47.199219 66.578125 48.789062 64.710938 C 49.546875 63.746094 50.378906 62.84375 51.277344 62.015625 L 53.765625 59.320312 C 54.59375 58.421875 55.425781 57.523438 56.324219 56.691406 C 57.222656 55.863281 58.050781 55.03125 58.949219 54.132812 C 60.679688 52.476562 62.40625 50.746094 64.273438 49.15625 C 66.070312 47.566406 67.871094 45.976562 69.738281 44.386719 C 71.601562 42.863281 73.46875 41.414062 75.335938 39.890625 C 76.234375 39.132812 77.273438 38.441406 78.171875 37.75 C 79.140625 37.058594 80.105469 36.367188 81.074219 35.675781 C 82.042969 34.984375 82.941406 34.292969 83.980469 33.601562 C 84.945312 32.976562 85.914062 32.285156 86.953125 31.664062 C 88.957031 30.421875 90.824219 29.039062 92.828125 27.929688 C 94.832031 26.757812 96.839844 25.582031 98.773438 24.472656 C 100.777344 23.4375 102.851562 22.332031 104.859375 21.292969 C 94.347656 26.617188 84.394531 32.910156 75.128906 40.097656 C 81.351562 35.328125 87.574219 31.25 94.003906 27.449219 C 95.109375 26.824219 96.214844 26.203125 97.253906 25.582031 L 98.914062 24.613281 L 100.570312 23.78125 C 102.851562 22.675781 105.066406 21.5 107.417969 20.328125 C 109.765625 19.289062 112.1875 18.253906 114.605469 17.144531 C 117.027344 16.109375 119.585938 15.210938 122.140625 14.242188 C 120.621094 14.933594 118.6875 15.761719 116.542969 16.660156 C 115.4375 17.078125 114.398438 17.628906 113.292969 18.113281 C 112.1875 18.597656 111.082031 19.152344 109.972656 19.636719 C 108.867188 20.1875 107.832031 20.601562 106.792969 21.15625 C 105.824219 21.710938 104.859375 22.191406 104.027344 22.675781 C 102.371094 23.574219 100.988281 24.40625 100.296875 24.890625 C 102.644531 23.644531 104.996094 22.402344 107.417969 21.292969 C 104.996094 22.539062 102.578125 23.78125 100.085938 25.097656 C 100.15625 25.027344 100.226562 25.027344 100.296875 24.957031 C 77.203125 37.542969 56.738281 55.03125 40.628906 75.773438 C 32.609375 86.144531 25.558594 97.277344 19.886719 108.960938 C 14.21875 120.714844 9.726562 132.949219 6.546875 145.464844 C 6.890625 142.90625 7.511719 140.554688 8.066406 138.273438 Z M 114.746094 18.042969 C 112.671875 19.011719 110.527344 19.980469 108.382812 20.949219 C 110.457031 19.980469 112.601562 19.011719 114.746094 18.042969 Z M 74.851562 40.445312 C 73.953125 41.136719 73.054688 41.828125 72.15625 42.589844 C 73.054688 41.828125 73.953125 41.136719 74.851562 40.445312 Z M 94.210938 44.871094 C 96.492188 43.554688 98.84375 42.035156 101.46875 40.722656 L 98.980469 42.171875 L 96.5625 43.695312 C 94.972656 44.730469 93.382812 45.769531 91.792969 46.804688 C 88.75 49.019531 85.570312 51.160156 82.597656 53.582031 C 76.582031 58.214844 70.980469 63.398438 65.589844 68.859375 L 61.648438 73.007812 C 60.957031 73.699219 60.402344 74.460938 59.78125 75.152344 L 57.914062 77.296875 L 56.046875 79.4375 C 55.425781 80.128906 54.871094 80.960938 54.25 81.71875 C 53.074219 83.242188 51.898438 84.761719 50.722656 86.28125 C 49.617188 87.875 48.511719 89.394531 47.40625 90.984375 C 46.851562 91.746094 46.300781 92.574219 45.746094 93.335938 L 44.226562 95.753906 C 43.1875 97.414062 42.152344 99.003906 41.113281 100.664062 C 40.144531 102.324219 39.179688 104.050781 38.210938 105.710938 L 38.140625 105.710938 C 44.085938 94.785156 52.867188 82.34375 62.40625 72.109375 C 63.582031 70.867188 64.828125 69.550781 65.933594 68.375 C 66.488281 67.753906 67.109375 67.132812 67.730469 66.578125 C 68.355469 66.027344 68.90625 65.402344 69.527344 64.851562 C 70.703125 63.746094 71.8125 62.570312 72.984375 61.464844 C 74.160156 60.425781 75.265625 59.390625 76.375 58.421875 C 76.925781 57.9375 77.480469 57.453125 77.964844 56.96875 C 78.242188 56.761719 78.515625 56.484375 78.722656 56.277344 C 79 56.070312 79.277344 55.863281 79.554688 55.585938 C 80.589844 54.6875 81.628906 53.859375 82.597656 53.027344 C 83.5625 52.199219 84.460938 51.4375 85.292969 50.675781 C 86.191406 49.984375 86.953125 49.292969 87.710938 48.671875 C 89.785156 47.566406 91.859375 46.183594 94.210938 44.871094 Z M 294.5 45.628906 C 287.378906 40.238281 279.84375 35.328125 272.03125 30.972656 L 266.085938 27.863281 C 265.117188 27.308594 264.082031 26.894531 263.042969 26.410156 L 260.003906 24.957031 C 258.964844 24.472656 257.996094 23.992188 256.960938 23.574219 L 253.847656 22.332031 L 250.738281 21.085938 L 249.148438 20.464844 L 247.558594 19.910156 C 245.414062 19.152344 243.269531 18.460938 241.195312 17.699219 C 239.054688 17.078125 236.839844 16.386719 234.699219 15.761719 C 232.554688 15.070312 230.34375 14.589844 228.128906 14.035156 C 225.917969 13.480469 223.703125 12.929688 221.492188 12.582031 C 222.460938 12.789062 223.496094 12.929688 224.464844 13.136719 L 227.371094 13.828125 C 229.304688 14.3125 231.242188 14.65625 233.175781 15.210938 C 236.980469 16.316406 240.921875 17.285156 244.652344 18.667969 C 252.257812 21.085938 259.65625 24.265625 266.847656 27.722656 C 276.042969 32.355469 284.683594 37.816406 292.703125 43.832031 C 300.722656 49.847656 307.984375 56.484375 314.550781 63.46875 C 308.257812 57.039062 301.554688 51.09375 294.5 45.628906 Z M 140.671875 23.507812 C 142.191406 23.09375 143.714844 22.675781 145.234375 22.332031 C 146.753906 21.984375 148.34375 21.710938 149.9375 21.363281 C 153.046875 20.671875 156.226562 20.257812 159.339844 19.773438 C 156.15625 20.328125 153.046875 20.808594 149.9375 21.570312 C 148.414062 21.917969 146.824219 22.261719 145.304688 22.609375 C 143.78125 23.023438 142.261719 23.4375 140.742188 23.851562 C 141.847656 23.507812 140.808594 23.574219 140.671875 23.507812 Z M 202.132812 17.976562 C 202.894531 18.113281 203.722656 18.320312 204.691406 18.460938 C 205.660156 18.597656 206.695312 18.875 207.804688 19.011719 L 206.074219 18.734375 L 205.175781 18.597656 L 204.277344 18.527344 C 203.101562 18.460938 201.925781 18.320312 200.820312 18.253906 C 199.644531 18.183594 198.46875 18.042969 197.363281 17.976562 C 196.8125 17.90625 196.1875 17.90625 195.636719 17.90625 L 193.90625 17.835938 C 196.671875 17.699219 199.367188 17.90625 202.132812 17.976562 Z M 287.585938 50.402344 C 288.210938 50.816406 288.832031 51.300781 289.453125 51.714844 C 290.078125 52.128906 290.628906 52.683594 291.183594 53.097656 C 289.730469 51.921875 288.210938 50.886719 286.6875 49.777344 C 285.929688 49.226562 285.167969 48.671875 284.40625 48.1875 C 283.648438 47.636719 282.886719 47.082031 282.058594 46.597656 L 277.285156 43.554688 L 276.109375 42.796875 L 274.867188 42.105469 C 274.035156 41.621094 273.277344 41.207031 272.445312 40.722656 C 273.96875 41.480469 275.210938 42.035156 275.902344 42.449219 C 277.285156 43.28125 278.601562 44.179688 279.914062 45.078125 C 280.605469 45.492188 281.226562 45.90625 281.917969 46.390625 C 282.609375 46.804688 283.230469 47.21875 283.855469 47.703125 C 285.097656 48.601562 286.34375 49.503906 287.585938 50.402344 Z M 287.585938 50.402344 " fill-opacity="1" fill-rule="nonzero"/></g><g clip-path="url(#3d7638d23d)"><path fill="#bf953f" d="M 248.5625 131.503906 C 247.9375 126.886719 239.574219 126.886719 228.585938 133.625 C 217.601562 140.367188 214.480469 154.722656 214.480469 154.722656 C 220.597656 137.996094 234.703125 131.378906 241.195312 130.628906 C 247.6875 129.882812 246.8125 135 245.316406 138.871094 C 243.816406 142.738281 238.699219 154.472656 215.730469 160.089844 C 210.582031 161.351562 205.539062 162.894531 200.726562 164.585938 C 193.101562 167.726562 184.921875 171.347656 178.652344 174.945312 C 165.171875 182.683594 151.769531 198.71875 150.691406 197.542969 C 149.316406 196.042969 157.144531 187.183594 164.171875 182.3125 C 170.175781 178.148438 184.074219 170.453125 200.726562 164.585938 C 209.511719 160.976562 217.558594 158.007812 221.097656 156.46875 C 227.714844 153.597656 235.953125 150.105469 241.195312 142.113281 C 246.441406 134.125 243.941406 130.628906 235.328125 134.75 C 226.714844 138.871094 223.46875 144.863281 223.46875 144.863281 C 230.085938 136.121094 245.566406 131.253906 240.070312 139.867188 C 234.578125 148.480469 224.59375 152.726562 216.230469 156.71875 C 207.867188 160.714844 185.519531 168.332031 167.542969 178.191406 C 149.566406 188.054688 144.574219 201.035156 146.570312 203.285156 C 148.566406 205.53125 150.066406 203.90625 164.296875 190.300781 C 178.527344 176.695312 193.007812 165.582031 220.347656 161.089844 C 247.6875 156.59375 249.183594 136.121094 248.5625 131.503906 " fill-opacity="1" fill-rule="nonzero"/></g><g clip-path="url(#42f1a66df0)"><path fill="#bf953f" d="M 211.390625 177.832031 C 189.015625 165.566406 168.253906 160.066406 178.34375 163.648438 C 194.996094 169.515625 208.816406 178.148438 214.820312 182.3125 C 221.847656 187.183594 229.675781 196.042969 228.304688 197.542969 C 227.222656 198.71875 213.820312 182.683594 200.339844 174.945312 C 194.074219 171.347656 185.890625 167.726562 178.265625 164.585938 C 173.453125 162.894531 168.394531 161.425781 163.261719 160.089844 C 145.617188 155.503906 134.902344 143.234375 133.542969 140.289062 C 138.550781 145.671875 149.222656 151.007812 149.222656 151.007812 C 139.253906 143.097656 136.960938 137.433594 136.960938 137.433594 C 139.765625 140.898438 151.097656 149.230469 151.097656 149.230469 C 148.851562 146.890625 142.484375 138.554688 142.484375 138.554688 C 156.808594 152.789062 170.195312 159.246094 170.195312 159.246094 C 149.785156 146.234375 134.804688 126.476562 134.804688 126.476562 C 136.398438 132.285156 140.421875 138.277344 140.421875 138.277344 C 136.492188 135.5625 129.84375 128.257812 129.84375 128.257812 C 131.433594 132.632812 136.398438 140.445312 137.859375 142.703125 C 133.273438 138.972656 125.523438 130.128906 126.378906 131.441406 C 127.972656 133.875 136.117188 157.1875 158.644531 161.089844 C 185.945312 165.816406 200.464844 176.695312 214.695312 190.300781 C 228.925781 203.90625 230.425781 205.53125 232.421875 203.285156 C 234.417969 201.035156 229.371094 187.6875 211.390625 177.832031 " fill-opacity="1" fill-rule="nonzero"/></g><path fill="#bf953f" d="M 212.261719 79.140625 C 212.261719 79.140625 198.910156 69.207031 179.695312 70.347656 C 160.480469 71.484375 150.386719 87.117188 154.78125 99.167969 C 158.578125 109.574219 172.21875 107.371094 176.359375 101.203125 C 180.347656 95.257812 178.816406 89.773438 176.273438 86.628906 C 173.710938 83.453125 172.367188 90.699219 175.460938 94.609375 C 178.554688 98.515625 185.230469 101.773438 192.394531 99.167969 C 199.558594 96.5625 207.214844 83.941406 216.496094 86.222656 C 225.777344 88.5 225.289062 100.226562 220.402344 104.945312 C 215.519531 109.667969 207.539062 108.9375 202.980469 104.867188 C 198.421875 100.796875 204.851562 101.445312 204.691406 108.613281 C 204.527344 115.773438 201.105469 120.984375 204.769531 126.359375 C 208.710938 132.136719 211.554688 124.296875 203.738281 120.878906 L 204.894531 122.859375 C 204.894531 122.859375 208.351562 125.707031 207.007812 126.339844 C 205.324219 127.128906 204.527344 121.71875 206.019531 116.480469 C 207.082031 112.746094 208.597656 106.984375 204.609375 102.261719 C 201.109375 98.117188 197.605469 102.425781 203.792969 106.820312 C 209.980469 111.214844 215.6875 111.609375 220.238281 109.535156 C 225.777344 107.007812 229.847656 97.699219 223.984375 89.289062 C 218 80.699219 207.945312 82.476562 200.78125 88.09375 C 197.332031 90.796875 189.410156 100.253906 180.941406 96.832031 C 173.707031 93.910156 174.972656 88.339844 175.789062 88.992188 C 176.601562 89.640625 178.554688 93.304688 175.949219 98.515625 C 173.34375 103.726562 164.550781 106.332031 159.828125 100.304688 C 155.109375 94.28125 158.203125 80.929688 171.878906 75.230469 C 185.558594 69.53125 200.210938 73.601562 212.261719 79.140625 " fill-opacity="1" fill-rule="nonzero"/><path fill="#bf953f" d="M 202.550781 142.863281 C 203.808594 140.625 204.417969 138.75 204.496094 138.246094 C 204.496094 138.246094 207.988281 137.871094 209.738281 140.992188 C 211.378906 143.925781 206.1875 144.652344 202.550781 142.863281 Z M 193.511719 149.480469 C 186.292969 152.75 177.34375 148.582031 173.566406 142.871094 C 174.304688 142.605469 175.082031 142.316406 175.90625 141.988281 C 183.914062 138.835938 187.015625 141.492188 187.015625 141.492188 C 187.015625 141.492188 188.515625 139.492188 195.132812 142.238281 C 196.925781 142.984375 198.480469 143.726562 199.886719 144.375 C 198.421875 146.285156 196.367188 148.183594 193.511719 149.480469 Z M 167.839844 136.046875 C 168.261719 137.695312 168.863281 139.488281 169.71875 141.269531 C 162.621094 143.984375 162.320312 136.726562 167.839844 136.046875 Z M 203.246094 137.496094 C 203.246094 137.496094 202.804688 139.605469 201.355469 142.164062 C 197.707031 139.871094 192.136719 136.1875 187.015625 137.496094 C 187.015625 137.496094 182.535156 134.851562 172.167969 140.105469 C 171.671875 138.875 171.226562 137.582031 170.855469 136.277344 C 171.820312 136.511719 172.878906 136.90625 174.035156 137.496094 C 174.035156 137.496094 172.816406 136.269531 170.652344 135.515625 C 169.277344 130.191406 169.273438 124.859375 172.410156 123.015625 C 176.65625 120.519531 184.144531 118.769531 197.378906 120.894531 C 199.832031 121.285156 201.816406 121.777344 203.246094 122.289062 C 203.261719 122.667969 203.410156 123.050781 203.46875 123.320312 C 203.523438 123.566406 203.886719 123.90625 203.957031 124.132812 L 204.121094 123.589844 L 204.121094 118.542969 L 203.296875 118.476562 C 203.222656 119.28125 203.164062 120.03125 203.136719 120.710938 C 198.152344 119.195312 186.414062 116.285156 176.40625 118.144531 C 165.671875 120.144531 166.855469 127.289062 166.855469 128.882812 C 166.855469 129.207031 166.875 131.699219 167.582031 134.960938 C 167.410156 134.957031 167.238281 134.949219 167.058594 134.953125 C 162.425781 135.046875 160.042969 140.191406 162.425781 142.738281 C 164.285156 144.726562 166.839844 144.921875 171.0625 143.691406 C 173.480469 147.484375 177.28125 150.871094 183.273438 152.226562 C 192.339844 154.277344 198.039062 149.515625 201.222656 144.976562 C 204.335938 146.332031 206.78125 146.96875 209.738281 145.609375 C 214.355469 143.488281 211.488281 136.371094 203.246094 137.496094 " fill-opacity="1" fill-rule="nonzero"/><g fill="#bf953f" fill-opacity="1"><g transform="translate(75.855284, 276.846363)"><g><path d="M 0 -7.953125 C 0 -2.828125 3.242188 1.355469 8.957031 1.355469 C 15.613281 1.355469 22.503906 -4.300781 27.394531 -8.367188 L 28.75 -9.484375 C 29.222656 -9.839844 29.339844 -10.308594 29.339844 -10.664062 C 29.339844 -11.136719 28.984375 -11.488281 28.515625 -11.488281 C 28.160156 -11.488281 27.808594 -11.3125 27.453125 -11.015625 L 26.335938 -10.015625 C 22.210938 -6.304688 15.964844 -1.53125 10.25 -1.53125 C 6.066406 -1.53125 3.359375 -4.125 3.359375 -8.308594 C 3.359375 -14.257812 8.894531 -22.152344 21.152344 -24.507812 C 21.917969 -24.566406 22.386719 -25.332031 22.386719 -26.097656 C 22.386719 -26.511719 22.269531 -26.925781 21.386719 -27.574219 C 19.738281 -28.808594 18.851562 -30.753906 18.851562 -32.699219 C 18.851562 -37.234375 23.917969 -42.007812 28.457031 -42.007812 C 29.753906 -42.007812 31.933594 -41.359375 31.933594 -39.707031 C 31.933594 -39.296875 31.636719 -39 31.402344 -38.765625 C 28.75 -36.113281 25.6875 -31.933594 25.6875 -28.160156 C 25.6875 -25.921875 26.746094 -24.683594 28.339844 -24.683594 C 32.402344 -24.683594 34.640625 -33.582031 34.640625 -36.703125 C 34.640625 -38.824219 39.179688 -40.710938 40.945312 -40.886719 C 42.125 -41.003906 42.65625 -41.710938 42.65625 -42.417969 C 42.65625 -43.007812 42.183594 -43.539062 41.359375 -43.539062 L 41.0625 -43.539062 C 38.941406 -43.539062 36.820312 -42.535156 35.054688 -41.476562 C 34.699219 -41.300781 34.40625 -41.121094 34.113281 -41.121094 C 33.875 -41.121094 33.699219 -41.242188 33.40625 -41.769531 C 32.34375 -43.714844 30.046875 -44.714844 27.511719 -44.714844 C 21.738281 -44.714844 16.496094 -39.179688 16.496094 -33.289062 C 16.496094 -30.8125 17.4375 -28.339844 19.675781 -26.394531 C 6.007812 -23.800781 0 -14.964844 0 -7.953125 Z M 32.050781 -35.113281 C 32.167969 -35.113281 32.285156 -34.9375 32.285156 -34.582031 C 32.285156 -33.050781 29.988281 -26.746094 28.457031 -26.746094 C 28.160156 -26.746094 28.042969 -26.984375 28.042969 -27.335938 C 28.042969 -29.222656 31.046875 -35.113281 32.050781 -35.113281 Z M 32.050781 -35.113281 "/></g></g></g><g fill="#bf953f" fill-opacity="1"><g transform="translate(103.130374, 276.846363)"><g><path d="M -1.121094 -6.066406 C -1.121094 -3.828125 0.117188 -2.59375 2.121094 -2.59375 C 5.714844 -2.59375 10.429688 -6.246094 13.667969 -9.601562 C 13.84375 -9.839844 14.023438 -10.015625 14.023438 -10.25 C 14.023438 -10.78125 13.492188 -11.195312 12.902344 -11.195312 C 12.667969 -11.195312 12.429688 -11.074219 12.195312 -10.839844 C 9.191406 -7.835938 5.300781 -5.007812 3.121094 -5.007812 C 2.121094 -5.007812 1.707031 -5.597656 1.707031 -6.65625 C 1.707031 -9.25 4.242188 -13.019531 6.246094 -14.789062 C 11.136719 -19.148438 15.199219 -22.566406 17.378906 -25.332031 C 18.972656 -27.394531 19.675781 -29.105469 19.675781 -30.339844 C 19.675781 -31.695312 18.910156 -32.460938 17.675781 -32.460938 C 16.144531 -32.460938 13.902344 -31.34375 11.488281 -28.632812 L 8.542969 -24.921875 C 5.300781 -20.5625 -1.121094 -11.195312 -1.121094 -6.066406 Z M 8.894531 -20.265625 L 11.074219 -23.390625 L 14.082031 -27.101562 C 15.554688 -28.75 16.554688 -29.457031 16.96875 -29.457031 C 17.144531 -29.457031 17.261719 -29.339844 17.261719 -29.105469 C 17.261719 -27.21875 9.839844 -19.738281 8.894531 -19.738281 C 8.777344 -19.738281 8.71875 -19.796875 8.71875 -19.914062 C 8.71875 -19.972656 8.777344 -20.148438 8.894531 -20.265625 Z M 8.894531 -20.265625 "/></g></g></g><g fill="#bf953f" fill-opacity="1"><g transform="translate(115.265734, 276.846363)"><g><path d="M -1.765625 -6.1875 C -1.765625 -4.242188 -0.351562 -3.121094 1.648438 -3.121094 C 4.183594 -3.121094 7.363281 -4.476562 11.371094 -9.132812 L 11.722656 -9.542969 C 11.960938 -9.839844 12.136719 -10.074219 12.136719 -10.367188 C 12.136719 -10.839844 11.664062 -11.253906 11.136719 -11.253906 C 10.898438 -11.253906 10.605469 -11.136719 10.367188 -10.898438 L 9.957031 -10.546875 C 8.484375 -9.308594 4.359375 -5.125 2.296875 -5.125 C 1.648438 -5.125 1.179688 -5.539062 1.179688 -6.539062 C 1.179688 -6.773438 1.179688 -7.070312 1.238281 -7.1875 C 1.886719 -8.484375 4.476562 -12.136719 6.246094 -14.375 L 7.71875 -16.203125 C 8.011719 -16.554688 8.128906 -16.96875 8.128906 -17.261719 C 8.128906 -17.96875 7.542969 -18.441406 6.894531 -18.441406 C 6.363281 -18.441406 5.714844 -18.144531 5.183594 -17.4375 L 3.710938 -15.554688 C 2.238281 -13.667969 -0.175781 -10.898438 -1.179688 -8.71875 C -1.589844 -7.777344 -1.765625 -6.953125 -1.765625 -6.1875 Z M 7.542969 -20.503906 C 7.542969 -19.675781 8.1875 -19.03125 9.015625 -19.03125 C 9.839844 -19.03125 10.546875 -19.675781 10.546875 -20.503906 C 10.546875 -21.328125 9.839844 -22.035156 9.015625 -22.035156 C 8.1875 -22.035156 7.542969 -21.328125 7.542969 -20.503906 Z M 7.542969 -20.503906 "/></g></g></g><g fill="#bf953f" fill-opacity="1"><g transform="translate(125.515989, 276.846363)"><g><path d="M -3.0625 -23.152344 C -3.0625 -22.625 -2.59375 -22.09375 -1.886719 -22.09375 C -1.589844 -22.09375 -1.296875 -22.152344 -0.648438 -22.503906 C 0.882812 -23.332031 2.535156 -23.742188 4.300781 -23.742188 C 5.714844 -23.742188 7.1875 -23.507812 8.835938 -23.210938 L 7.894531 -21.976562 C 5.300781 -18.617188 -0.824219 -10.78125 -1.589844 -7.070312 C -1.648438 -6.714844 -1.707031 -6.421875 -1.707031 -6.128906 C -1.707031 -4.359375 -0.53125 -3.0625 1.828125 -3.0625 C 6.066406 -3.0625 11.960938 -7.246094 14.316406 -9.601562 L 14.375 -9.660156 C 14.609375 -9.839844 14.730469 -10.132812 14.730469 -10.308594 C 14.730469 -10.78125 14.257812 -11.136719 13.609375 -11.136719 C 13.316406 -11.136719 13.019531 -11.074219 12.84375 -10.898438 L 12.785156 -10.839844 C 10.957031 -8.894531 5.832031 -5.300781 3.121094 -5.300781 C 2.0625 -5.300781 1.589844 -5.890625 1.589844 -6.714844 C 1.589844 -6.953125 1.648438 -7.1875 1.707031 -7.480469 C 2.414062 -10.957031 8.128906 -17.675781 11.195312 -21.445312 L 12.195312 -22.683594 C 13.550781 -22.445312 14.789062 -22.269531 15.4375 -22.269531 C 17.320312 -22.269531 23.210938 -23.566406 23.210938 -25.15625 C 23.210938 -25.804688 22.445312 -26.097656 21.976562 -26.097656 C 21.621094 -26.097656 21.328125 -25.980469 21.089844 -25.863281 C 18.851562 -24.746094 17.617188 -24.214844 16.023438 -24.214844 C 15.316406 -24.214844 14.492188 -24.273438 13.550781 -24.390625 L 15.199219 -26.335938 C 15.4375 -26.570312 15.554688 -26.867188 15.554688 -27.160156 C 15.554688 -27.984375 14.730469 -28.515625 13.964844 -28.515625 C 13.492188 -28.515625 13.019531 -28.339844 12.371094 -27.574219 L 10.191406 -24.921875 L 8.835938 -25.15625 C 7.011719 -25.453125 5.421875 -25.804688 4.359375 -25.804688 C 2.472656 -25.804688 -3.0625 -24.804688 -3.0625 -23.152344 Z M -3.0625 -23.152344 "/></g></g></g><g fill="#bf953f" fill-opacity="1"><g transform="translate(138.299346, 276.846363)"><g><path d="M 6.304688 -3.242188 C 11.664062 -3.242188 16.144531 -5.773438 20.089844 -9.601562 C 20.324219 -9.839844 20.382812 -10.074219 20.382812 -10.25 C 20.382812 -10.78125 19.855469 -11.195312 19.324219 -11.195312 C 19.089844 -11.195312 18.792969 -11.074219 18.617188 -10.898438 C 15.496094 -7.777344 11.605469 -5.300781 7.246094 -5.300781 C 5.125 -5.300781 2.945312 -5.890625 2.945312 -7.835938 C 2.945312 -8.542969 3.179688 -9.191406 4.125 -9.367188 C 7.421875 -9.660156 15.730469 -11.074219 15.730469 -15.316406 C 15.730469 -17.261719 13.964844 -18.734375 11.371094 -18.734375 C 6.304688 -18.734375 -0.589844 -13.078125 -0.589844 -8.011719 C -0.589844 -5.242188 1.589844 -3.242188 6.304688 -3.242188 Z M 11.3125 -15.847656 C 12.136719 -15.847656 12.902344 -15.375 12.902344 -14.667969 C 12.902344 -12.488281 6.773438 -11.664062 5.421875 -11.371094 L 5.125 -11.3125 C 4.59375 -11.3125 4.476562 -11.488281 4.476562 -11.722656 C 4.476562 -13.257812 9.425781 -15.847656 11.3125 -15.847656 Z M 11.3125 -15.847656 "/></g></g></g><g fill="#bf953f" fill-opacity="1"><g transform="translate(156.796927, 276.846363)"><g/></g></g><g fill="#bf953f" fill-opacity="1"><g transform="translate(177.297427, 276.846363)"><g><path d="M 0 3.121094 C 0 3.886719 0.648438 4.65625 2.238281 4.65625 C 7.1875 4.65625 14.492188 -2.945312 20.324219 -10.191406 C 23.390625 -13.964844 26.21875 -17.851562 29.105469 -21.796875 L 31.753906 -25.390625 C 36.113281 -31.34375 38.941406 -34.9375 41.183594 -37.351562 C 41.359375 -37.527344 41.535156 -37.648438 41.710938 -37.648438 C 42.007812 -37.648438 42.242188 -37.410156 42.183594 -37 C 41.769531 -33.933594 39.707031 -14.730469 38.117188 -13.375 C 35.9375 -11.546875 32.582031 -8.011719 32.582031 -4.949219 C 32.582031 -3.300781 33.582031 -2.355469 35.113281 -2.355469 C 39.296875 -2.355469 41.242188 -9.25 41.59375 -12.078125 C 41.710938 -13.078125 41.949219 -13.84375 42.65625 -14.492188 C 51.433594 -22.503906 66.75 -34.171875 74.175781 -38.355469 C 74.527344 -38.53125 74.824219 -38.589844 75 -38.589844 C 75.292969 -38.589844 75.410156 -38.414062 75.410156 -38.175781 C 75.410156 -38 75.351562 -37.707031 75.175781 -37.46875 L 68.460938 -29.339844 C 60.09375 -19.441406 50.371094 -7.953125 50.371094 -0.117188 C 50.371094 1.121094 50.609375 2.414062 51.84375 2.414062 C 53.257812 2.414062 53.378906 0.648438 53.378906 0 C 53.378906 -6.714844 62.863281 -18.144531 71.050781 -27.925781 C 75.410156 -33.167969 79.417969 -37.941406 81.066406 -40.769531 C 81.480469 -41.476562 81.539062 -41.710938 81.539062 -41.890625 C 81.539062 -42.773438 80.597656 -43.421875 79.417969 -43.421875 C 78.945312 -43.421875 78.476562 -43.363281 77.648438 -42.949219 C 72.9375 -40.59375 54.730469 -28.515625 42.535156 -16.851562 C 42.417969 -16.730469 42.242188 -16.671875 42.125 -16.671875 C 41.949219 -16.671875 41.769531 -16.789062 41.769531 -17.085938 C 41.769531 -17.144531 41.769531 -17.203125 41.890625 -17.558594 C 43.363281 -22.035156 44.363281 -38.355469 45.363281 -41.300781 L 45.421875 -41.476562 C 45.421875 -42.417969 44.835938 -43.007812 44.304688 -43.007812 C 41.769531 -43.007812 31.285156 -29.398438 29.515625 -27.042969 L 26.925781 -23.507812 C 20.621094 -14.90625 8.957031 1.53125 2.179688 1.53125 C 0.707031 1.53125 0 2.355469 0 3.121094 Z M 38.296875 -10.957031 C 38.355469 -10.957031 38.414062 -10.898438 38.414062 -10.664062 C 38.414062 -9.542969 36.585938 -4.949219 35.40625 -4.949219 C 35.113281 -4.949219 34.996094 -5.183594 34.996094 -5.480469 C 34.996094 -6.539062 37.234375 -10.957031 38.296875 -10.957031 Z M 38.296875 -10.957031 "/></g></g></g><g fill="#bf953f" fill-opacity="1"><g transform="translate(239.859303, 276.846363)"><g><path d="M 6.304688 -3.242188 C 11.664062 -3.242188 16.144531 -5.773438 20.089844 -9.601562 C 20.324219 -9.839844 20.382812 -10.074219 20.382812 -10.25 C 20.382812 -10.78125 19.855469 -11.195312 19.324219 -11.195312 C 19.089844 -11.195312 18.792969 -11.074219 18.617188 -10.898438 C 15.496094 -7.777344 11.605469 -5.300781 7.246094 -5.300781 C 5.125 -5.300781 2.945312 -5.890625 2.945312 -7.835938 C 2.945312 -8.542969 3.179688 -9.191406 4.125 -9.367188 C 7.421875 -9.660156 15.730469 -11.074219 15.730469 -15.316406 C 15.730469 -17.261719 13.964844 -18.734375 11.371094 -18.734375 C 6.304688 -18.734375 -0.589844 -13.078125 -0.589844 -8.011719 C -0.589844 -5.242188 1.589844 -3.242188 6.304688 -3.242188 Z M 11.3125 -15.847656 C 12.136719 -15.847656 12.902344 -15.375 12.902344 -14.667969 C 12.902344 -12.488281 6.773438 -11.664062 5.421875 -11.371094 L 5.125 -11.3125 C 4.59375 -11.3125 4.476562 -11.488281 4.476562 -11.722656 C 4.476562 -13.257812 9.425781 -15.847656 11.3125 -15.847656 Z M 11.3125 -15.847656 "/></g></g></g><g fill="#bf953f" fill-opacity="1"><g transform="translate(258.356885, 276.846363)"><g><path d="M -4.066406 -4.65625 C -4.066406 -3.949219 -3.476562 -3.300781 -2.710938 -3.300781 C -2.238281 -3.300781 -1.765625 -3.59375 -1.472656 -4.007812 L 3.179688 -10.722656 C 4.773438 -13.019531 8.601562 -16.261719 11.546875 -16.261719 C 12.371094 -16.261719 12.960938 -16.023438 12.960938 -15.316406 C 12.960938 -14.90625 12.84375 -14.375 12.3125 -13.667969 L 9.78125 -10.132812 C 8.71875 -8.542969 8.25 -7.128906 8.25 -6.066406 C 8.25 -4.359375 9.367188 -3.417969 11.074219 -3.417969 C 14.550781 -3.417969 18.382812 -7.304688 20.679688 -9.660156 C 20.855469 -9.898438 20.914062 -10.074219 20.914062 -10.308594 C 20.914062 -10.839844 20.445312 -11.3125 19.914062 -11.3125 C 19.675781 -11.3125 19.5 -11.195312 19.265625 -11.015625 L 18.910156 -10.722656 C 17.558594 -9.601562 13.375 -5.480469 11.605469 -5.480469 C 11.195312 -5.480469 10.957031 -5.714844 10.957031 -6.1875 C 10.957031 -6.773438 11.3125 -7.835938 12.253906 -9.074219 L 13.433594 -10.664062 C 13.964844 -11.429688 14.550781 -12.078125 14.964844 -12.726562 C 15.613281 -13.726562 15.847656 -14.667969 15.847656 -15.4375 C 15.847656 -17.558594 14.140625 -18.617188 12.019531 -18.617188 C 11.136719 -18.617188 10.191406 -18.441406 9.25 -18.027344 C 8.894531 -17.851562 8.660156 -17.792969 8.425781 -17.792969 C 8.1875 -17.792969 7.953125 -17.910156 7.835938 -18.265625 C 7.660156 -18.734375 7.1875 -18.910156 6.714844 -18.910156 C 6.304688 -18.910156 5.714844 -18.675781 5.300781 -18.085938 L 2.886719 -14.730469 C 0.648438 -11.605469 -1.828125 -8.542969 -3.828125 -5.359375 C -4.007812 -5.125 -4.066406 -4.890625 -4.066406 -4.65625 Z M -4.066406 -4.65625 "/></g></g></g><g fill="#bf953f" fill-opacity="1"><g transform="translate(277.384661, 276.846363)"><g><path d="M -2.003906 -5.949219 C -2.003906 -4.007812 -0.53125 -2.886719 1.589844 -2.886719 C 2.945312 -2.886719 4.65625 -3.359375 6.363281 -4.359375 C 7.421875 -5.007812 8.1875 -5.242188 8.894531 -5.242188 C 9.601562 -5.242188 10.25 -4.949219 10.78125 -4.300781 C 11.371094 -3.535156 12.253906 -3.242188 13.136719 -3.242188 C 16.4375 -3.242188 20.855469 -7.1875 23.210938 -9.484375 L 23.273438 -9.542969 C 23.507812 -9.78125 23.566406 -10.015625 23.566406 -10.25 C 23.566406 -10.722656 23.09375 -11.136719 22.566406 -11.136719 C 22.269531 -11.136719 21.917969 -11.015625 21.679688 -10.722656 C 19.914062 -8.484375 15.90625 -5.539062 13.667969 -5.539062 C 12.84375 -5.539062 12.371094 -6.007812 12.371094 -6.835938 C 12.371094 -7.480469 12.667969 -8.308594 13.316406 -9.308594 C 14.257812 -10.78125 16.613281 -13.195312 18.085938 -14.90625 L 19.5 -16.554688 C 19.796875 -16.851562 19.914062 -17.203125 19.914062 -17.496094 C 19.914062 -18.324219 19.089844 -18.851562 18.324219 -18.851562 C 17.851562 -18.851562 17.320312 -18.617188 17.027344 -18.265625 C 14.667969 -15.4375 6.421875 -4.832031 2.535156 -4.832031 C 1.707031 -4.832031 1.296875 -5.300781 1.296875 -6.128906 C 1.296875 -6.835938 1.589844 -7.71875 2.179688 -8.71875 C 3.242188 -10.488281 5.832031 -13.433594 7.363281 -15.199219 L 8.484375 -16.496094 C 8.777344 -16.789062 8.894531 -17.203125 8.894531 -17.496094 C 8.894531 -18.324219 8.128906 -18.851562 7.421875 -18.851562 C 6.894531 -18.851562 6.304688 -18.558594 5.890625 -18.027344 L 4.417969 -16.261719 C 2.652344 -14.199219 0.234375 -11.371094 -0.941406 -9.308594 C -1.707031 -8.011719 -2.003906 -6.894531 -2.003906 -5.949219 Z M -2.003906 -5.949219 "/></g></g></g></svg>